Light.ufo
<glyph name="exclam" format="1">
  <advance width="234"/>
  <unicode hex="0021"/>
  <outline>
    <contour>
      <point x="164.192" y="29.266" type="curve" smooth="yes"/>
      <point x="164.192" y="11.7659"/>
      <point x="139.418" y="-7.44634"/>
      <point x="116.852" y="-7.44634" type="curve" smooth="yes"/>
      <point x="94.9383" y="-7.44634"/>
      <point x="70.7976" y="11.5187"/>
      <point x="70.7976" y="28.7345" type="curve" smooth="yes"/>
      <point x="70.7976" y="46.0817"/>
      <point x="96.3822" y="65.4463"/>
      <point x="119.302" y="65.4463" type="curve" smooth="yes"/>
      <point x="140.885" y="65.4463"/>
      <point x="164.192" y="46.6617"/>
    </contour>
    <contour>
      <point x="96" y="616" type="line" smooth="yes"/>
      <point x="96" y="632.137"/>
      <point x="104.897" y="644"/>
      <point x="117" y="644" type="curve" smooth="yes"/>
      <point x="129.103" y="644"/>
      <point x="138" y="632.137"/>
      <point x="138" y="616" type="curve" smooth="yes"/>
      <point x="138" y="197" type="line" smooth="yes"/>
      <point x="138" y="180.863"/>
      <point x="129.103" y="169"/>
      <point x="117" y="169" type="curve" smooth="yes"/>
      <point x="104.897" y="169"/>
      <point x="96" y="180.863"/>
      <point x="96" y="197" type="curve" smooth="yes"/>
    </contour>
  </outline>
</glyph>
<glyph name="quotedbl" format="1">
  <advance width="285"/>
  <unicode hex="0022"/>
  <outline>
    <contour>
      <point x="214" y="466" type="line" smooth="yes"/>
      <point x="214" y="449.863"/>
      <point x="205.103" y="438"/>
      <point x="193" y="438" type="curve" smooth="yes"/>
      <point x="180.897" y="438"/>
      <point x="172" y="449.863"/>
      <point x="172" y="466" type="curve" smooth="yes"/>
      <point x="172" y="615" type="line" smooth="yes"/>
      <point x="172" y="631.137"/>
      <point x="180.897" y="643"/>
      <point x="193" y="643" type="curve" smooth="yes"/>
      <point x="205.103" y="643"/>
      <point x="214" y="631.137"/>
      <point x="214" y="615" type="curve" smooth="yes"/>
    </contour>
    <contour>
      <point x="112" y="466" type="line" smooth="yes"/>
      <point x="112" y="449.884"/>
      <point x="103.593" y="438"/>
      <point x="92.1906" y="438" type="curve" smooth="yes"/>
      <point x="80.4854" y="438"/>
      <point x="71" y="450.534"/>
      <point x="71" y="466" type="curve" smooth="yes"/>
      <point x="71" y="615" type="line" smooth="yes"/>
      <point x="71" y="630.466"/>
      <point x="80.4854" y="643"/>
      <point x="92.1906" y="643" type="curve" smooth="yes"/>
      <point x="103.593" y="643"/>
      <point x="112" y="631.116"/>
      <point x="112" y="615" type="curve" smooth="yes"/>
    </contour>
  </outline>
</glyph>
<glyph name="numbersign" format="1">
  <advance width="595"/>
  <unicode hex="0023"/>
  <outline>
    <contour>
      <point x="315.326" y="625" type="curve" smooth="yes"/>
      <point x="326.47" y="625"/>
      <point x="334" y="618.281"/>
      <point x="334" y="608.338" type="curve" smooth="yes"/>
      <point x="334" y="582.171"/>
      <point x="282.526" y="459.365"/>
      <point x="272" y="431" type="curve"/>
      <point x="406" y="431" type="line"/>
      <point x="470" y="604" type="line" smooth="yes"/>
      <point x="475.48" y="618.814"/>
      <point x="482.164" y="625"/>
      <point x="492.69" y="625" type="curve" smooth="yes"/>
      <point x="504.12" y="625"/>
      <point x="513.032" y="616.632"/>
      <point x="513.032" y="605.901" type="curve" smooth="yes"/>
      <point x="513.032" y="581.787"/>
      <point x="462.347" y="459.364"/>
      <point x="452" y="431" type="curve"/>
      <point x="522" y="431" type="line" smooth="yes"/>
      <point x="538.137" y="431"/>
      <point x="550" y="422.103"/>
      <point x="550" y="410" type="curve" smooth="yes"/>
      <point x="550" y="397.897"/>
      <point x="538.137" y="389"/>
      <point x="522" y="389" type="curve" smooth="yes"/>
      <point x="436" y="389" type="line"/>
      <point x="385" y="247" type="line"/>
      <point x="491" y="247" type="line" smooth="yes"/>
      <point x="507.137" y="247"/>
      <point x="519" y="238.103"/>
      <point x="519" y="226" type="curve" smooth="yes"/>
      <point x="519" y="213.897"/>
      <point x="507.137" y="205"/>
      <point x="491" y="205" type="curve" smooth="yes"/>
      <point x="370" y="205" type="line"/>
      <point x="306" y="32" type="line" smooth="yes"/>
      <point x="300.632" y="17.4887"/>
      <point x="293.261" y="11"/>
      <point x="282.146" y="11" type="curve" smooth="yes"/>
      <point x="270.806" y="11"/>
      <point x="263" y="17.8539"/>
      <point x="263" y="27.8095" type="curve" smooth="yes"/>
      <point x="263" y="53.1607"/>
      <point x="314.867" y="177.692"/>
      <point x="325" y="205" type="curve"/>
      <point x="190" y="205" type="line"/>
      <point x="127" y="32" type="line" smooth="yes"/>
      <point x="121.757" y="17.6035"/>
      <point x="114.314" y="11"/>
      <point x="103.328" y="11" type="curve" smooth="yes"/>
      <point x="92.2918" y="11"/>
      <point x="85" y="17.6419"/>
      <point x="85" y="27.6942" type="curve" smooth="yes"/>
      <point x="85" y="53.9773"/>
      <point x="135.595" y="176.475"/>
      <point x="146" y="205" type="curve"/>
      <point x="73" y="205" type="line" smooth="yes"/>
      <point x="56.8624" y="205"/>
      <point x="45" y="213.897"/>
      <point x="45" y="226" type="curve" smooth="yes"/>
      <point x="45" y="238.103"/>
      <point x="56.8624" y="247"/>
      <point x="73" y="247" type="curve" smooth="yes"/>
      <point x="162" y="247" type="line"/>
      <point x="213" y="389" type="line"/>
      <point x="103" y="389" type="line" smooth="yes"/>
      <point x="87.4171" y="389"/>
      <point x="76" y="397.88"/>
      <point x="76" y="410" type="curve" smooth="yes"/>
      <point x="76" y="422.12"/>
      <point x="87.4171" y="431"/>
      <point x="103" y="431" type="curve" smooth="yes"/>
      <point x="228" y="431" type="line"/>
      <point x="292" y="604" type="line" smooth="yes"/>
      <point x="297.379" y="618.541"/>
      <point x="304.554" y="625"/>
    </contour>
    <contour>
      <point x="257" y="389" type="line"/>
      <point x="206" y="247" type="line"/>
      <point x="340" y="247" type="line"/>
      <point x="391" y="389" type="line"/>
    </contour>
  </outline>
</glyph>
<glyph name="dollar" format="1">
  <advance width="567"/>
  <unicode hex="0024"/>
  <outline>
    <contour>
      <point x="61" y="181.651" type="curve" smooth="yes"/>
      <point x="61" y="212.36"/>
      <point x="69.1996" y="228.004"/>
      <point x="85.294" y="228.004" type="curve" smooth="yes"/>
      <point x="125.716" y="228.004"/>
      <point x="69.3681" y="133"/>
      <point x="163" y="133" type="curve" smooth="yes"/>
      <point x="267" y="133" type="line"/>
      <point x="267" y="306" type="line"/>
      <point x="158.732" y="306"/>
      <point x="61" y="293.887"/>
      <point x="61" y="429.087" type="curve" smooth="yes"/>
      <point x="61" y="568.43"/>
      <point x="164.814" y="552"/>
      <point x="267" y="552" type="curve"/>
      <point x="267" y="569.682"/>
      <point x="256.212" y="643"/>
      <point x="288" y="643" type="curve" smooth="yes"/>
      <point x="319.788" y="643"/>
      <point x="309" y="569.682"/>
      <point x="309" y="552" type="curve"/>
      <point x="406.741" y="552"/>
      <point x="505" y="578.153"/>
      <point x="505" y="462.593" type="curve" smooth="yes"/>
      <point x="505" y="430.761"/>
      <point x="496.953" y="414.996"/>
      <point x="480.706" y="414.996" type="curve" smooth="yes"/>
      <point x="440.284" y="414.996"/>
      <point x="496.632" y="510"/>
      <point x="403" y="510" type="curve" smooth="yes"/>
      <point x="309" y="510" type="line"/>
      <point x="309" y="348" type="line"/>
      <point x="421.11" y="348"/>
      <point x="507" y="354.67"/>
      <point x="507" y="221.315" type="curve" smooth="yes"/>
      <point x="507" y="80.7379"/>
      <point x="411.555" y="91"/>
      <point x="309" y="91" type="curve"/>
      <point x="309" y="69.5908"/>
      <point x="320.572" y="-7"/>
      <point x="288" y="-7" type="curve" smooth="yes"/>
      <point x="255.428" y="-7"/>
      <point x="267" y="69.5908"/>
      <point x="267" y="91" type="curve"/>
      <point x="156" y="91" type="line" smooth="yes"/>
      <point x="91.9009" y="91"/>
      <point x="61" y="120.486"/>
    </contour>
    <contour>
      <point x="309" y="306" type="line"/>
      <point x="309" y="133" type="line"/>
      <point x="401" y="133" type="line" smooth="yes"/>
      <point x="442.521" y="133"/>
      <point x="465" y="160.128"/>
      <point x="465" y="210.236" type="curve" smooth="yes"/>
      <point x="465" y="267.414"/>
      <point x="439.212" y="306"/>
      <point x="401" y="306" type="curve" smooth="yes"/>
    </contour>
    <contour>
      <point x="267" y="348" type="line"/>
      <point x="267" y="510" type="line"/>
      <point x="167" y="510" type="line" smooth="yes"/>
      <point x="125.039" y="510"/>
      <point x="103" y="484.599"/>
      <point x="103" y="436.235" type="curve" smooth="yes"/>
      <point x="103" y="382.489"/>
      <point x="128.016" y="348"/>
      <point x="167" y="348" type="curve" smooth="yes"/>
    </contour>
  </outline>
</glyph>
<glyph name="percent" format="1">
  <advance width="540"/>
  <unicode hex="0025"/>
  <outline>
    <contour>
      <point x="382.313" y="218" type="curve" smooth="yes"/>
      <point x="362.532" y="218"/>
      <point x="348.147" y="203.264"/>
      <point x="348.147" y="183" type="curve" smooth="yes"/>
      <point x="348.147" y="162.736"/>
      <point x="362.532" y="148"/>
      <point x="382.313" y="148" type="curve" smooth="yes"/>
      <point x="401.908" y="148"/>
      <point x="416.029" y="162.659"/>
      <point x="416.029" y="183" type="curve" smooth="yes"/>
      <point x="416.03" y="203.341"/>
      <point x="401.908" y="218"/>
    </contour>
    <contour>
      <point x="303.67" y="180.885" type="curve" smooth="yes"/>
      <point x="303.67" y="220.68"/>
      <point x="344.154" y="261.147"/>
      <point x="383.965" y="261.147" type="curve" smooth="yes"/>
      <point x="422.492" y="261.147"/>
      <point x="460.33" y="223.474"/>
      <point x="460.33" y="185.115" type="curve" smooth="yes"/>
      <point x="460.33" y="145.32"/>
      <point x="419.846" y="104.853"/>
      <point x="380.034" y="104.853" type="curve" smooth="yes"/>
      <point x="341.508" y="104.853"/>
      <point x="303.67" y="142.526"/>
    </contour>
    <contour>
      <point x="124.165" y="471.787" type="curve" smooth="yes"/>
      <point x="124.165" y="453.339"/>
      <point x="141.339" y="436.165"/>
      <point x="159.787" y="436.165" type="curve" smooth="yes"/>
      <point x="177.679" y="436.165"/>
      <point x="193.835" y="452.321"/>
      <point x="193.835" y="470.213" type="curve" smooth="yes"/>
      <point x="193.835" y="488.661"/>
      <point x="176.661" y="505.835"/>
      <point x="158.213" y="505.835" type="curve" smooth="yes"/>
      <point x="140.321" y="505.835"/>
      <point x="124.165" y="489.679"/>
    </contour>
    <contour>
      <point x="81" y="471" type="curve" smooth="yes"/>
      <point x="81" y="513.05"/>
      <point x="116.179" y="548"/>
      <point x="158.504" y="548" type="curve" smooth="yes"/>
      <point x="200.514" y="548"/>
      <point x="235" y="513.287"/>
      <point x="235" y="471" type="curve" smooth="yes"/>
      <point x="235" y="428.713"/>
      <point x="200.514" y="394"/>
      <point x="158.504" y="394" type="curve" smooth="yes"/>
      <point x="116.179" y="394"/>
      <point x="81" y="428.95"/>
    </contour>
    <contour>
      <point x="453.439" y="527.055" type="curve" smooth="yes"/>
      <point x="463.255" y="527.055"/>
      <point x="470.304" y="520.149"/>
      <point x="470.304" y="510.53" type="curve" smooth="yes"/>
      <point x="470.304" y="503.028"/>
      <point x="465.844" y="492.844"/>
      <point x="460" y="487" type="curve" smooth="yes"/>
      <point x="110" y="137" type="line" smooth="yes"/>
      <point x="103.319" y="130.319"/>
      <point x="95.6606" y="126.61"/>
      <point x="88.5476" y="126.61" type="curve" smooth="yes"/>
      <point x="77.7192" y="126.61"/>
      <point x="69.3715" y="134.819"/>
      <point x="69.3715" y="145.467" type="curve" smooth="yes"/>
      <point x="69.3715" y="152.506"/>
      <point x="73.1393" y="160.139"/>
      <point x="80" y="167" type="curve" smooth="yes"/>
      <point x="430" y="517" type="line" smooth="yes"/>
      <point x="435.719" y="522.719"/>
      <point x="445.827" y="527.055"/>
    </contour>
  </outline>
</glyph>
<glyph name="ampersand" format="1">
  <advance width="494"/>
  <unicode hex="0026"/>
  <outline>
    <contour>
      <point x="228.406" y="605" type="curve" smooth="yes"/>
      <point x="163.637" y="605"/>
      <point x="106" y="547.475"/>
      <point x="106" y="482.832" type="curve" smooth="yes"/>
      <point x="106" y="453.09"/>
      <point x="118.529" y="424.552"/>
      <point x="145" y="394" type="curve" smooth="yes"/>
      <point x="385" y="117" type="line"/>
      <point x="406.564" y="146.802"/>
      <point x="419" y="184.934"/>
      <point x="419" y="221.257" type="curve" smooth="yes"/>
      <point x="419" y="246.345"/>
      <point x="425.6" y="258"/>
      <point x="439.805" y="258" type="curve" smooth="yes"/>
      <point x="453.764" y="258"/>
      <point x="460" y="246.714"/>
      <point x="460" y="221.451" type="curve" smooth="yes"/>
      <point x="460" y="173.51"/>
      <point x="443.615" y="124.551"/>
      <point x="414" y="84" type="curve"/>
      <point x="427.764" y="68.2282"/>
      <point x="468" y="31.587"/>
      <point x="468" y="8.29392" type="curve" smooth="yes"/>
      <point x="468" y="-0.839007"/>
      <point x="462.018" y="-7"/>
      <point x="453.152" y="-7" type="curve" smooth="yes"/>
      <point x="429.059" y="-7"/>
      <point x="399.047" y="36.946"/>
      <point x="386" y="52" type="curve"/>
      <point x="342.83" y="12.0954"/>
      <point x="290.897" y="-9.12315"/>
      <point x="236.398" y="-9.12315" type="curve" smooth="yes"/>
      <point x="197.165" y="-9.12315"/>
      <point x="156.379" y="2.46664"/>
      <point x="122.213" y="23.3234" type="curve" smooth="yes"/>
      <point x="66.7129" y="57.2042"/>
      <point x="37.6175" y="111.256"/>
      <point x="37.6175" y="180.481" type="curve" smooth="yes"/>
      <point x="37.6175" y="254.557"/>
      <point x="69.458" y="320.011"/>
      <point x="123" y="356" type="curve"/>
      <point x="93.8427" y="391.684"/>
      <point x="62" y="426.888"/>
      <point x="62" y="481.063" type="curve" smooth="yes"/>
      <point x="62" y="565.609"/>
      <point x="142.292" y="647"/>
      <point x="225.698" y="647" type="curve" smooth="yes"/>
      <point x="277.208" y="647"/>
      <point x="331.65" y="612.049"/>
      <point x="360.835" y="560.243" type="curve" smooth="yes"/>
      <point x="364.333" y="554.033"/>
      <point x="374.123" y="537.611"/>
      <point x="374.123" y="527.442" type="curve" smooth="yes"/>
      <point x="374.123" y="517.349"/>
      <point x="364.086" y="507.877"/>
      <point x="353.39" y="507.877" type="curve" smooth="yes"/>
      <point x="319.848" y="507.877"/>
      <point x="312.59" y="605"/>
    </contour>
    <contour>
      <point x="359" y="84" type="curve"/>
      <point x="151" y="325" type="line"/>
      <point x="106.988" y="299.968"/>
      <point x="79" y="245.231"/>
      <point x="79" y="184.187" type="curve" smooth="yes"/>
      <point x="79" y="95.7963"/>
      <point x="141.901" y="33.3879"/>
      <point x="230.99" y="33.3879" type="curve" smooth="yes"/>
      <point x="278.625" y="33.3879"/>
      <point x="324.662" y="51.5896"/>
    </contour>
  </outline>
</glyph>
<glyph name="quotesingle" format="1">
  <advance width="183"/>
  <unicode hex="0027"/>
  <outline>
    <contour>
      <point x="112" y="466" type="line" smooth="yes"/>
      <point x="112" y="449.884"/>
      <point x="103.593" y="438"/>
      <point x="92.1906" y="438" type="curve" smooth="yes"/>
      <point x="80.4854" y="438"/>
      <point x="71" y="450.534"/>
      <point x="71" y="466" type="curve" smooth="yes"/>
      <point x="71" y="615" type="line" smooth="yes"/>
      <point x="71" y="630.466"/>
      <point x="80.4854" y="643"/>
      <point x="92.1906" y="643" type="curve" smooth="yes"/>
      <point x="103.593" y="643"/>
      <point x="112" y="631.116"/>
      <point x="112" y="615" type="curve" smooth="yes"/>
    </contour>
  </outline>
</glyph>
<glyph name="parenleft" format="1">
  <advance width="237"/>
  <unicode hex="0028"/>
  <outline>
    <contour>
      <point x="193" y="636" type="line"/>
      <point x="158.33" y="636.057"/>
      <point x="135.93" y="629.58"/>
      <point x="128.098" y="617.232" type="curve" smooth="yes"/>
      <point x="120.017" y="604.491"/>
      <point x="115" y="560.735"/>
      <point x="115" y="503" type="curve" smooth="yes"/>
      <point x="115" y="133" type="line" smooth="yes"/>
      <point x="115" y="75.2654"/>
      <point x="120.017" y="31.5084"/>
      <point x="128.098" y="18.7683" type="curve" smooth="yes"/>
      <point x="135.931" y="6.42038"/>
      <point x="158.33" y="-0.0571197"/>
      <point x="193" y="0" type="curve"/>
      <point x="193" y="-42" type="line"/>
      <point x="162.708" y="-42.0201"/>
      <point x="141.092" y="-38.5754"/>
      <point x="126.934" y="-31.472" type="curve" smooth="yes"/>
      <point x="92.6829" y="-14.2871"/>
      <point x="73" y="45.7364"/>
      <point x="73" y="133" type="curve" smooth="yes"/>
      <point x="73" y="503" type="line" smooth="yes"/>
      <point x="73" y="590.9"/>
      <point x="92.7537" y="650.583"/>
      <point x="127.524" y="667.739" type="curve" smooth="yes"/>
      <point x="141.675" y="674.72"/>
      <point x="162.729" y="678.02"/>
      <point x="193" y="678" type="curve"/>
    </contour>
  </outline>
</glyph>
<glyph name="parenright" format="1">
  <advance width="236"/>
  <unicode hex="0029"/>
  <outline>
    <contour>
      <point x="44" y="0" type="line"/>
      <point x="77.9186" y="-0.0908765"/>
      <point x="99.9692" y="6.33309"/>
      <point x="107.776" y="18.5798" type="curve" smooth="yes"/>
      <point x="115.917" y="31.351"/>
      <point x="121" y="75.3308"/>
      <point x="121" y="133" type="curve" smooth="yes"/>
      <point x="121" y="503" type="line" smooth="yes"/>
      <point x="121" y="560.669"/>
      <point x="115.917" y="604.649"/>
      <point x="107.776" y="617.42" type="curve" smooth="yes"/>
      <point x="99.9693" y="629.667"/>
      <point x="77.9191" y="636.091"/>
      <point x="44" y="636" type="curve"/>
      <point x="44" y="678" type="line"/>
      <point x="135.739" y="678.144"/>
      <point x="163" y="638.055"/>
      <point x="163" y="503" type="curve" smooth="yes"/>
      <point x="163" y="133" type="line" smooth="yes"/>
      <point x="163" y="-2.05511"/>
      <point x="135.739" y="-42.1441"/>
      <point x="44" y="-42" type="curve"/>
    </contour>
  </outline>
</glyph>
<glyph name="asterisk" format="1">
  <advance width="387"/>
  <unicode hex="002A"/>
  <outline>
    <contour>
      <point x="321.997" y="426.74" type="curve" smooth="yes"/>
      <point x="321.997" y="417.275"/>
      <point x="312.54" y="408.843"/>
      <point x="301.925" y="408.843" type="curve" smooth="yes"/>
      <point x="281.522" y="408.843"/>
      <point x="229.62" y="445.851"/>
      <point x="214" y="455" type="curve"/>
      <point x="214" y="374" type="line" smooth="yes"/>
      <point x="214" y="357.863"/>
      <point x="205.103" y="346"/>
      <point x="193" y="346" type="curve" smooth="yes"/>
      <point x="180.897" y="346"/>
      <point x="172" y="357.863"/>
      <point x="172" y="374" type="curve" smooth="yes"/>
      <point x="172" y="455" type="line"/>
      <point x="157.775" y="446.668"/>
      <point x="103.087" y="408.663"/>
      <point x="84.0043" y="408.663" type="curve" smooth="yes"/>
      <point x="74.2717" y="408.663"/>
      <point x="65.2302" y="417.058"/>
      <point x="65.2302" y="426.094" type="curve" smooth="yes"/>
      <point x="65.2302" y="434.411"/>
      <point x="72.6291" y="446.097"/>
      <point x="81" y="451" type="curve" smooth="yes"/>
      <point x="151" y="492" type="line"/>
      <point x="143.154" y="496.372"/>
      <point x="65" y="531.799"/>
      <point x="65" y="557.39" type="curve" smooth="yes"/>
      <point x="65" y="566.096"/>
      <point x="72.0752" y="573"/>
      <point x="80.9972" y="573" type="curve" smooth="yes"/>
      <point x="103.834" y="573"/>
      <point x="156.084" y="536.322"/>
      <point x="172" y="527" type="curve"/>
      <point x="172" y="608" type="line" smooth="yes"/>
      <point x="172" y="624.137"/>
      <point x="180.897" y="636"/>
      <point x="193" y="636" type="curve" smooth="yes"/>
      <point x="205.103" y="636"/>
      <point x="214" y="624.137"/>
      <point x="214" y="608" type="curve" smooth="yes"/>
      <point x="214" y="527" type="line"/>
      <point x="229.241" y="535.927"/>
      <point x="281.681" y="573.201"/>
      <point x="301.782" y="573.201" type="curve" smooth="yes"/>
      <point x="312.191" y="573.201"/>
      <point x="321.704" y="565.037"/>
      <point x="321.704" y="556.102" type="curve" smooth="yes"/>
      <point x="321.704" y="529.348"/>
      <point x="249.655" y="499.718"/>
      <point x="236" y="492" type="curve"/>
      <point x="305" y="451" type="line" smooth="yes"/>
      <point x="314.95" y="445.087"/>
      <point x="321.997" y="435.03"/>
    </contour>
  </outline>
</glyph>
<glyph name="plus" format="1">
  <advance width="510"/>
  <unicode hex="002B"/>
  <outline>
    <contour>
      <point x="255" y="-7" type="curve" smooth="yes"/>
      <point x="242.88" y="-7"/>
      <point x="234" y="4.41722"/>
      <point x="234" y="20" type="curve" smooth="yes"/>
      <point x="234" y="209" type="line"/>
      <point x="65" y="209" type="line" smooth="yes"/>
      <point x="47.2074" y="209"/>
      <point x="39" y="215.574"/>
      <point x="39" y="229.824" type="curve" smooth="yes"/>
      <point x="39" y="244.467"/>
      <point x="47.832" y="252"/>
      <point x="65" y="252" type="curve" smooth="yes"/>
      <point x="234" y="252" type="line"/>
      <point x="234" y="440" type="line" smooth="yes"/>
      <point x="234" y="456.137"/>
      <point x="242.897" y="468"/>
      <point x="255" y="468" type="curve" smooth="yes"/>
      <point x="267.103" y="468"/>
      <point x="276" y="456.137"/>
      <point x="276" y="440" type="curve" smooth="yes"/>
      <point x="276" y="252" type="line"/>
      <point x="443" y="252" type="line" smooth="yes"/>
      <point x="461.873" y="252"/>
      <point x="472" y="244.414"/>
      <point x="472" y="230.276" type="curve" smooth="yes"/>
      <point x="472" y="216.403"/>
      <point x="461.909" y="209"/>
      <point x="443" y="209" type="curve" smooth="yes"/>
      <point x="276" y="209" type="line"/>
      <point x="276" y="20" type="line" smooth="yes"/>
      <point x="276" y="4.41722"/>
      <point x="267.12" y="-7"/>
    </contour>
  </outline>
</glyph>
<glyph name="comma" format="1">
  <advance width="203"/>
  <unicode hex="002C"/>
  <outline>
    <contour>
      <point x="103.951" y="61" type="curve" smooth="yes"/>
      <point x="117.47" y="61"/>
      <point x="132.74" y="50.8235"/>
      <point x="132.74" y="41.8138" type="curve" smooth="yes"/>
      <point x="132.74" y="15.9774"/>
      <point x="77.3554" y="-80"/>
      <point x="62.4462" y="-80" type="curve" smooth="yes"/>
      <point x="56.5209" y="-80"/>
      <point x="50" y="-69.1898"/>
      <point x="50" y="-59.3669" type="curve" smooth="yes"/>
      <point x="50" y="-17.0113"/>
      <point x="84.9661" y="61"/>
    </contour>
  </outline>
</glyph>
<glyph name="hyphen" format="1">
  <advance width="446"/>
  <unicode hex="002D"/>
  <outline>
    <contour>
      <point x="97" y="209" type="line" smooth="yes"/>
      <point x="83.2207" y="209"/>
      <point x="73" y="218.025"/>
      <point x="73" y="230.192" type="curve" smooth="yes"/>
      <point x="73" y="242.753"/>
      <point x="84.0239" y="252"/>
      <point x="99" y="252" type="curve" smooth="yes"/>
      <point x="344" y="252" type="line" smooth="yes"/>
      <point x="360.791" y="252"/>
      <point x="373" y="242.586"/>
      <point x="373" y="229.639" type="curve" smooth="yes"/>
      <point x="373" y="217.262"/>
      <point x="361.391" y="209"/>
      <point x="344" y="209" type="curve" smooth="yes"/>
    </contour>
  </outline>
</glyph>
<glyph name="period" format="1">
  <advance width="224"/>
  <unicode hex="002E"/>
  <outline>
    <contour>
      <point x="65.7737" y="28.8452" type="curve" smooth="yes"/>
      <point x="65.7737" y="46.5837"/>
      <point x="90.0865" y="65.4463"/>
      <point x="112.95" y="65.4463" type="curve" smooth="yes"/>
      <point x="135.011" y="65.4463"/>
      <point x="158.226" y="46.8382"/>
      <point x="158.226" y="29.1548" type="curve" smooth="yes"/>
      <point x="158.226" y="11.4163"/>
      <point x="133.914" y="-7.44634"/>
      <point x="111.05" y="-7.44634" type="curve" smooth="yes"/>
      <point x="88.9886" y="-7.44634"/>
      <point x="65.7737" y="11.1618"/>
    </contour>
  </outline>
</glyph>
<glyph name="slash" format="1">
  <advance width="349"/>
  <unicode hex="002F"/>
  <outline>
    <contour>
      <point x="286.465" y="645" type="curve" smooth="yes"/>
      <point x="298.724" y="645"/>
      <point x="306" y="637.786"/>
      <point x="306" y="625.63" type="curve" smooth="yes"/>
      <point x="306" y="620.861"/>
      <point x="304.933" y="615.303"/>
      <point x="303" y="610" type="curve" smooth="yes"/>
      <point x="85" y="12" type="line" smooth="yes"/>
      <point x="79.7441" y="-2.41754"/>
      <point x="73.4029" y="-8"/>
      <point x="62.2816" y="-8" type="curve" smooth="yes"/>
      <point x="51.6823" y="-8"/>
      <point x="43" y="-2.54001"/>
      <point x="43" y="4.12551" type="curve" smooth="yes"/>
      <point x="43" y="35.6539"/>
      <point x="242.056" y="564.804"/>
      <point x="260.983" y="616.725" type="curve" smooth="yes"/>
      <point x="269.153" y="639.136"/>
      <point x="274.438" y="645"/>
    </contour>
  </outline>
</glyph>
<glyph name="zero" format="1">
  <advance width="592"/>
  <unicode hex="0030"/>
  <outline>
    <contour>
      <point x="116" y="497" type="curve" smooth="yes"/>
      <point x="116" y="138" type="line" smooth="yes"/>
      <point x="116" y="86.9755"/>
      <point x="172.219" y="42"/>
      <point x="236" y="42" type="curve" smooth="yes"/>
      <point x="356" y="42" type="line" smooth="yes"/>
      <point x="419.781" y="42"/>
      <point x="476" y="86.9755"/>
      <point x="476" y="138" type="curve" smooth="yes"/>
      <point x="476" y="497" type="line" smooth="yes"/>
      <point x="476" y="548.024"/>
      <point x="419.78" y="593"/>
      <point x="356" y="593" type="curve" smooth="yes"/>
      <point x="236" y="593" type="line" smooth="yes"/>
      <point x="172.22" y="593"/>
      <point x="116" y="548.024"/>
    </contour>
    <contour>
      <point x="518" y="154" type="line" smooth="yes"/>
      <point x="518" y="65.3756"/>
      <point x="445.832" y="-0"/>
      <point x="348" y="0" type="curve" smooth="yes"/>
      <point x="244" y="0" type="line" smooth="yes"/>
      <point x="146.168" y="0"/>
      <point x="74" y="65.3756"/>
      <point x="74" y="154" type="curve" smooth="yes"/>
      <point x="74" y="482" type="line" smooth="yes"/>
      <point x="74" y="570.625"/>
      <point x="146.168" y="636"/>
      <point x="244" y="636" type="curve" smooth="yes"/>
      <point x="348" y="636" type="line" smooth="yes"/>
      <point x="445.832" y="636"/>
      <point x="518" y="570.625"/>
      <point x="518" y="482" type="curve" smooth="yes"/>
    </contour>
  </outline>
</glyph>
<glyph name="one" format="1">
  <advance width="592"/>
  <unicode hex="0031"/>
  <outline>
    <contour>
      <point x="284" y="616" type="line"/>
      <point x="273.198" y="605.516"/>
      <point x="245.365" y="570"/>
      <point x="222.384" y="570" type="curve" smooth="yes"/>
      <point x="212.357" y="570"/>
      <point x="206" y="576.56"/>
      <point x="206" y="586.907" type="curve" smooth="yes"/>
      <point x="206" y="593.834"/>
      <point x="209.277" y="601.136"/>
      <point x="214.992" y="606.943" type="curve" smooth="yes"/>
      <point x="227.105" y="619.251"/>
      <point x="281.769" y="686"/>
      <point x="307.706" y="686" type="curve" smooth="yes"/>
      <point x="317.947" y="686"/>
      <point x="326" y="675.435"/>
      <point x="326" y="662" type="curve" smooth="yes"/>
      <point x="326" y="20" type="line" smooth="yes"/>
      <point x="326" y="4.4171"/>
      <point x="317.12" y="-7"/>
      <point x="305" y="-7" type="curve" smooth="yes"/>
      <point x="292.88" y="-7"/>
      <point x="284" y="4.4171"/>
      <point x="284" y="20" type="curve" smooth="yes"/>
    </contour>
  </outline>
</glyph>
<glyph name="two" format="1">
  <advance width="592"/>
  <unicode hex="0032"/>
  <outline>
    <contour>
      <point x="117" y="42" type="curve"/>
      <point x="488" y="42" type="line" smooth="yes"/>
      <point x="505.118" y="42"/>
      <point x="518" y="32.9825"/>
      <point x="518" y="21" type="curve" smooth="yes"/>
      <point x="518" y="9.01753"/>
      <point x="505.118" y="-0"/>
      <point x="488" y="0" type="curve" smooth="yes"/>
      <point x="75" y="0" type="line"/>
      <point x="75" y="44" type="line" smooth="yes"/>
      <point x="75" y="298.845"/>
      <point x="476" y="299.69"/>
      <point x="476" y="507.577" type="curve" smooth="yes"/>
      <point x="476" y="574.786"/>
      <point x="439.317" y="594"/>
      <point x="311" y="594" type="curve" smooth="yes"/>
      <point x="176" y="594" type="line" smooth="yes"/>
      <point x="81.2495" y="594"/>
      <point x="139.649" y="498.997"/>
      <point x="97.6874" y="498.997" type="curve" smooth="yes"/>
      <point x="81.3826" y="498.997"/>
      <point x="74" y="513.221"/>
      <point x="74" y="544.635" type="curve" smooth="yes"/>
      <point x="74" y="607.389"/>
      <point x="103.749" y="636"/>
      <point x="169" y="636" type="curve" smooth="yes"/>
      <point x="311" y="636" type="line" smooth="yes"/>
      <point x="454.991" y="636"/>
      <point x="518" y="596.478"/>
      <point x="518" y="506.162" type="curve" smooth="yes"/>
      <point x="518" y="280.053"/>
      <point x="116.885" y="267.978"/>
    </contour>
  </outline>
</glyph>
<glyph name="three" format="1">
  <advance width="592"/>
  <unicode hex="0033"/>
  <outline>
    <contour>
      <point x="336" y="594" type="curve" smooth="yes"/>
      <point x="256" y="594" type="line" smooth="yes"/>
      <point x="185.624" y="594"/>
      <point x="116" y="561.189"/>
      <point x="116" y="528.022" type="curve" smooth="yes"/>
      <point x="116" y="511.637"/>
      <point x="106.856" y="499"/>
      <point x="95" y="499" type="curve" smooth="yes"/>
      <point x="82.1381" y="499"/>
      <point x="74" y="512.375"/>
      <point x="74" y="533.514" type="curve" smooth="yes"/>
      <point x="74" y="589.821"/>
      <point x="152.852" y="636"/>
      <point x="249" y="636" type="curve" smooth="yes"/>
      <point x="326" y="636" type="line" smooth="yes"/>
      <point x="456.108" y="636"/>
      <point x="518" y="594.26"/>
      <point x="518" y="506.515" type="curve" smooth="yes"/>
      <point x="518" y="428.703"/>
      <point x="454.26" y="340.195"/>
      <point x="388" y="326" type="curve"/>
      <point x="451.631" y="313.866"/>
      <point x="518" y="209.036"/>
      <point x="518" y="120.664" type="curve" smooth="yes"/>
      <point x="518" y="-15.4081"/>
      <point x="395.947" y="-0.3383"/>
      <point x="307.803" y="-0.3383" type="curve" smooth="yes"/>
      <point x="161.251" y="-0.3383"/>
      <point x="73.1281" y="40.2889"/>
      <point x="73.1281" y="107.853" type="curve" smooth="yes"/>
      <point x="73.1281" y="127.231"/>
      <point x="80.2177" y="137"/>
      <point x="94.2814" y="137" type="curve" smooth="yes"/>
      <point x="107.478" y="137"/>
      <point x="116" y="126.865"/>
      <point x="116" y="111.173" type="curve" smooth="yes"/>
      <point x="116" y="76.0079"/>
      <point x="184.829" y="42"/>
      <point x="256" y="42" type="curve" smooth="yes"/>
      <point x="336" y="42" type="line" smooth="yes"/>
      <point x="427.506" y="42"/>
      <point x="477" y="77.0258"/>
      <point x="477" y="141.783" type="curve" smooth="yes"/>
      <point x="477" y="219.895"/>
      <point x="383.453" y="304"/>
      <point x="296.572" y="304" type="curve" smooth="yes"/>
      <point x="273.288" y="304"/>
      <point x="258.995" y="312.305"/>
      <point x="258.995" y="325.833" type="curve" smooth="yes"/>
      <point x="258.995" y="339.182"/>
      <point x="272.417" y="347"/>
      <point x="295.333" y="347" type="curve" smooth="yes"/>
      <point x="385.351" y="347"/>
      <point x="477" y="423.093"/>
      <point x="477" y="497.832" type="curve" smooth="yes"/>
      <point x="477" y="561.328"/>
      <point x="429.096" y="594"/>
    </contour>
  </outline>
</glyph>
<glyph name="four" format="1">
  <advance width="592"/>
  <unicode hex="0034"/>
  <outline>
    <contour>
      <point x="432" y="175" type="line"/>
      <point x="432" y="20" type="line" smooth="yes"/>
      <point x="432" y="4.41719"/>
      <point x="423.12" y="-7"/>
      <point x="411" y="-7" type="curve" smooth="yes"/>
      <point x="398.88" y="-7"/>
      <point x="390" y="4.41719"/>
      <point x="390" y="20" type="curve" smooth="yes"/>
      <point x="390" y="175" type="line"/>
      <point x="72" y="175" type="line"/>
      <point x="72" y="231" type="line"/>
      <point x="375" y="636" type="line"/>
      <point x="432" y="636" type="line"/>
      <point x="432" y="217" type="line"/>
      <point x="493" y="217" type="line" smooth="yes"/>
      <point x="508.583" y="217"/>
      <point x="520" y="208.12"/>
      <point x="520" y="196" type="curve" smooth="yes"/>
      <point x="520" y="183.88"/>
      <point x="508.583" y="175"/>
      <point x="493" y="175" type="curve" smooth="yes"/>
    </contour>
    <contour>
      <point x="390" y="217" type="line"/>
      <point x="390" y="594" type="line"/>
      <point x="109" y="217" type="line"/>
    </contour>
  </outline>
</glyph>
<glyph name="five" format="1">
  <advance width="592"/>
  <unicode hex="0035"/>
  <outline>
    <contour>
      <point x="316.261" y="-9" type="curve" smooth="yes"/>
      <point x="215.48" y="-9"/>
      <point x="79" y="45.8503"/>
      <point x="79" y="86.3534" type="curve" smooth="yes"/>
      <point x="79" y="95.9042"/>
      <point x="86.1566" y="111"/>
      <point x="90.6843" y="111" type="curve" smooth="yes"/>
      <point x="99.4858" y="111"/>
      <point x="204.823" y="33"/>
      <point x="307.084" y="33" type="curve" smooth="yes"/>
      <point x="404.702" y="33"/>
      <point x="471" y="106.29"/>
      <point x="471" y="214.203" type="curve" smooth="yes"/>
      <point x="471" y="319.015"/>
      <point x="407.373" y="392"/>
      <point x="316" y="392" type="curve" smooth="yes"/>
      <point x="85" y="392" type="line"/>
      <point x="94" y="512" type="line" smooth="yes"/>
      <point x="100.965" y="604.872"/>
      <point x="128.449" y="636"/>
      <point x="203" y="636" type="curve" smooth="yes"/>
      <point x="444" y="636" type="line" smooth="yes"/>
      <point x="459.586" y="636"/>
      <point x="471" y="627.122"/>
      <point x="471" y="615" type="curve" smooth="yes"/>
      <point x="471" y="602.878"/>
      <point x="459.586" y="594"/>
      <point x="444" y="594" type="curve" smooth="yes"/>
      <point x="197" y="594" type="line" smooth="yes"/>
      <point x="156.871" y="594"/>
      <point x="141.003" y="571.654"/>
      <point x="136.586" y="508.922" type="curve" smooth="yes"/>
      <point x="135.772" y="497.352"/>
      <point x="134" y="465.663"/>
      <point x="132" y="434" type="curve"/>
      <point x="307" y="434" type="line" smooth="yes"/>
      <point x="426.475" y="434"/>
      <point x="513" y="342.031"/>
      <point x="513" y="215.04" type="curve" smooth="yes"/>
      <point x="513" y="89.719"/>
      <point x="426.311" y="-9"/>
    </contour>
  </outline>
</glyph>
<glyph name="six" format="1">
  <advance width="592"/>
  <unicode hex="0036"/>
  <outline>
    <contour>
      <point x="306.468" y="644" type="curve" smooth="yes"/>
      <point x="318.528" y="644"/>
      <point x="326" y="637.528"/>
      <point x="326" y="627.084" type="curve" smooth="yes"/>
      <point x="326" y="618.698"/>
      <point x="321.093" y="611.411"/>
      <point x="311.138" y="605.016" type="curve" smooth="yes"/>
      <point x="218.806" y="545.702"/>
      <point x="162.694" y="467.771"/>
      <point x="134" y="359" type="curve"/>
      <point x="176.093" y="401.13"/>
      <point x="230.672" y="423"/>
      <point x="293.72" y="423" type="curve" smooth="yes"/>
      <point x="423.429" y="423"/>
      <point x="518" y="331.789"/>
      <point x="518" y="206.69" type="curve" smooth="yes"/>
      <point x="518" y="82.132"/>
      <point x="424.466" y="-9"/>
      <point x="296.624" y="-9" type="curve" smooth="yes"/>
      <point x="164.206" y="-9"/>
      <point x="74" y="86.9599"/>
      <point x="74" y="227.824" type="curve" smooth="yes"/>
      <point x="74" y="316.355"/>
      <point x="103.776" y="430.138"/>
      <point x="142.898" y="491.107" type="curve" smooth="yes"/>
      <point x="192.487" y="568.389"/>
      <point x="273.379" y="644"/>
    </contour>
    <contour>
      <point x="116" y="207" type="curve" smooth="yes"/>
      <point x="116" y="101.146"/>
      <point x="186.496" y="33"/>
      <point x="296" y="33" type="curve" smooth="yes"/>
      <point x="405.504" y="33"/>
      <point x="476" y="101.146"/>
      <point x="476" y="207" type="curve" smooth="yes"/>
      <point x="476" y="312.854"/>
      <point x="405.504" y="381"/>
      <point x="296" y="381" type="curve" smooth="yes"/>
      <point x="186.496" y="381"/>
      <point x="116" y="312.854"/>
    </contour>
  </outline>
</glyph>
<glyph name="seven" format="1">
  <advance width="592"/>
  <unicode hex="0037"/>
  <outline>
    <contour>
      <point x="267.611" y="-10" type="curve" smooth="yes"/>
      <point x="257.631" y="-10"/>
      <point x="249" y="-4.34394"/>
      <point x="249" y="2.19553" type="curve" smooth="yes"/>
      <point x="249" y="33.5856"/>
      <point x="437.681" y="535.423"/>
      <point x="459" y="594" type="curve"/>
      <point x="186" y="594" type="line" smooth="yes"/>
      <point x="89.3831" y="594"/>
      <point x="150.059" y="499.819"/>
      <point x="104" y="500" type="curve"/>
      <point x="103" y="499" type="line"/>
      <point x="88.7482" y="498.936"/>
      <point x="83" y="510.448"/>
      <point x="83" y="539.054" type="curve" smooth="yes"/>
      <point x="83" y="606.779"/>
      <point x="111.634" y="636"/>
      <point x="178" y="636" type="curve" smooth="yes"/>
      <point x="488" y="636" type="line" smooth="yes"/>
      <point x="500.08" y="636"/>
      <point x="509" y="631.098"/>
      <point x="509" y="624.46" type="curve" smooth="yes"/>
      <point x="509" y="593.401"/>
      <point x="313.779" y="72.9172"/>
      <point x="295.583" y="22.8567" type="curve" smooth="yes"/>
      <point x="286.471" y="-2.21127"/>
      <point x="279.84" y="-10"/>
    </contour>
  </outline>
</glyph>
<glyph name="eight" format="1">
  <advance width="592"/>
  <unicode hex="0038"/>
  <outline>
    <contour>
      <point x="293.432" y="42" type="curve" smooth="yes"/>
      <point x="442.234" y="42"/>
      <point x="476" y="65.9191"/>
      <point x="476" y="171.327" type="curve" smooth="yes"/>
      <point x="476" y="315.577"/>
      <point x="396.205" y="307"/>
      <point x="283.434" y="307" type="curve" smooth="yes"/>
      <point x="154.587" y="307"/>
      <point x="116" y="274.914"/>
      <point x="116" y="167.773" type="curve" smooth="yes"/>
      <point x="116" y="36.2789"/>
      <point x="184.077" y="42"/>
    </contour>
    <contour>
      <point x="327.29" y="-0" type="curve" smooth="yes"/>
      <point x="131.859" y="-0"/>
      <point x="74" y="39.3096"/>
      <point x="74" y="172.087" type="curve" smooth="yes"/>
      <point x="74" y="250.579"/>
      <point x="97.0256" y="301.206"/>
      <point x="144" y="326" type="curve"/>
      <point x="97.6298" y="347.158"/>
      <point x="74" y="397.597"/>
      <point x="74" y="475.419" type="curve" smooth="yes"/>
      <point x="74" y="641.955"/>
      <point x="174.523" y="636"/>
      <point x="276.127" y="636" type="curve" smooth="yes"/>
      <point x="467.741" y="636"/>
      <point x="518" y="602.497"/>
      <point x="518" y="474.764" type="curve" smooth="yes"/>
      <point x="518" y="397.197"/>
      <point x="494.425" y="346.37"/>
      <point x="449" y="326" type="curve"/>
      <point x="494.977" y="302.046"/>
      <point x="518" y="250.878"/>
      <point x="518" y="172.651" type="curve" smooth="yes"/>
      <point x="518" y="47.224"/>
      <point x="465.836" y="-0"/>
    </contour>
    <contour>
      <point x="226.194" y="594" type="curve" smooth="yes"/>
      <point x="176.698" y="594"/>
      <point x="116" y="595.3"/>
      <point x="116" y="471.808" type="curve" smooth="yes"/>
      <point x="116" y="371.209"/>
      <point x="146.02" y="349"/>
      <point x="282" y="349" type="curve" smooth="yes"/>
      <point x="321" y="349" type="line" smooth="yes"/>
      <point x="445.07" y="349"/>
      <point x="477.6" y="375.057"/>
      <point x="477.6" y="474.436" type="curve" smooth="yes"/>
      <point x="477.6" y="610.425"/>
      <point x="402.138" y="594"/>
    </contour>
  </outline>
</glyph>
<glyph name="nine" format="1">
  <advance width="592"/>
  <unicode hex="0039"/>
  <outline>
    <contour>
      <point x="74" y="468.958" type="curve" smooth="yes"/>
      <point x="74" y="575.024"/>
      <point x="159.262" y="636"/>
      <point x="307.574" y="636" type="curve" smooth="yes"/>
      <point x="450.2" y="636"/>
      <point x="518" y="575.802"/>
      <point x="518" y="449.168" type="curve" smooth="yes"/>
      <point x="518" y="394.471"/>
      <point x="505.955" y="324.188"/>
      <point x="486.863" y="267.488" type="curve" smooth="yes"/>
      <point x="431.16" y="102.055"/>
      <point x="306.396" y="-16"/>
      <point x="187.265" y="-16" type="curve" smooth="yes"/>
      <point x="160.227" y="-16"/>
      <point x="149" y="-10.5042"/>
      <point x="149" y="2.73157" type="curve" smooth="yes"/>
      <point x="149" y="28.4589"/>
      <point x="191.607" y="28.5325"/>
      <point x="219.326" y="34.4189" type="curve" smooth="yes"/>
      <point x="226.297" y="35.8994"/>
      <point x="231.697" y="37.5905"/>
      <point x="239.852" y="40.8479" type="curve" smooth="yes"/>
      <point x="348.465" y="84.2284"/>
      <point x="436.679" y="203.396"/>
      <point x="465" y="345" type="curve"/>
      <point x="431.418" y="319.57"/>
      <point x="380.043" y="307"/>
      <point x="309.694" y="307" type="curve" smooth="yes"/>
      <point x="156.183" y="307"/>
      <point x="74" y="363.472"/>
    </contour>
    <contour>
      <point x="302.855" y="594" type="curve" smooth="yes"/>
      <point x="183.884" y="594"/>
      <point x="116" y="548.951"/>
      <point x="116" y="470" type="curve" smooth="yes"/>
      <point x="116" y="392.282"/>
      <point x="181.618" y="349"/>
      <point x="299.44" y="349" type="curve" smooth="yes"/>
      <point x="418.43" y="349"/>
      <point x="476" y="388.848"/>
      <point x="476" y="471.209" type="curve" smooth="yes"/>
      <point x="476" y="553.266"/>
      <point x="418.562" y="594"/>
    </contour>
  </outline>
</glyph>
<glyph name="colon" format="1">
  <advance width="238"/>
  <unicode hex="003A"/>
  <outline>
    <contour>
      <point x="73" y="431.93" type="curve" smooth="yes"/>
      <point x="73" y="451.696"/>
      <point x="94.602" y="467.529"/>
      <point x="121.572" y="467.529" type="curve" smooth="yes"/>
      <point x="146.588" y="467.529"/>
      <point x="165" y="453.004"/>
      <point x="165" y="433.27" type="curve" smooth="yes"/>
      <point x="165" y="413.101"/>
      <point x="145.615" y="398.412"/>
      <point x="119" y="398.412" type="curve" smooth="yes"/>
      <point x="92.6565" y="398.411"/>
      <point x="73" y="412.735"/>
    </contour>
    <contour>
      <point x="73" y="78.9303" type="curve" smooth="yes"/>
      <point x="73" y="98.6964"/>
      <point x="94.602" y="114.529"/>
      <point x="121.572" y="114.529" type="curve" smooth="yes"/>
      <point x="146.588" y="114.529"/>
      <point x="165" y="100.004"/>
      <point x="165" y="80.2702" type="curve" smooth="yes"/>
      <point x="165" y="60.1013"/>
      <point x="145.615" y="45.4118"/>
      <point x="119" y="45.4118" type="curve" smooth="yes"/>
      <point x="92.6565" y="45.4118"/>
      <point x="73" y="59.7348"/>
    </contour>
  </outline>
</glyph>
<glyph name="semicolon" format="1">
  <advance width="241"/>
  <unicode hex="003B"/>
  <outline>
    <contour>
      <point x="73" y="431.93" type="curve" smooth="yes"/>
      <point x="73" y="451.696"/>
      <point x="94.602" y="467.529"/>
      <point x="121.572" y="467.529" type="curve" smooth="yes"/>
      <point x="146.588" y="467.529"/>
      <point x="165" y="453.004"/>
      <point x="165" y="433.27" type="curve" smooth="yes"/>
      <point x="165" y="413.101"/>
      <point x="145.615" y="398.412"/>
      <point x="119" y="398.412" type="curve" smooth="yes"/>
      <point x="92.6565" y="398.411"/>
      <point x="73" y="412.735"/>
    </contour>
    <contour>
      <point x="130.453" y="112" type="curve" smooth="yes"/>
      <point x="147.194" y="112"/>
      <point x="162.553" y="102.236"/>
      <point x="162.553" y="91.5934" type="curve" smooth="yes"/>
      <point x="162.553" y="72.6743"/>
      <point x="124.888" y="7.58744"/>
      <point x="117.106" y="-7.79147" type="curve" smooth="yes"/>
      <point x="113.046" y="-15.8141"/>
      <point x="107.661" y="-29"/>
      <point x="94.8759" y="-29" type="curve" smooth="yes"/>
      <point x="85.5177" y="-29"/>
      <point x="80" y="-21.6851"/>
      <point x="80" y="-9.27865" type="curve" smooth="yes"/>
      <point x="80" y="14.2867"/>
      <point x="100.417" y="68.4099"/>
      <point x="105.604" y="86.9985" type="curve" smooth="yes"/>
      <point x="110.49" y="104.505"/>
      <point x="117.939" y="112"/>
    </contour>
  </outline>
</glyph>
<glyph name="less" format="1">
  <advance width="522"/>
  <unicode hex="003C"/>
  <outline>
    <contour>
      <point x="450" y="114.37" type="curve" smooth="yes"/>
      <point x="450" y="102.374"/>
      <point x="442.553" y="94"/>
      <point x="431.885" y="94" type="curve" smooth="yes"/>
      <point x="426.026" y="94"/>
      <point x="418.388" y="96.3047"/>
      <point x="412" y="100" type="curve" smooth="yes"/>
      <point x="49" y="310" type="line" smooth="yes"/>
      <point x="39.902" y="315.263"/>
      <point x="33" y="325.349"/>
      <point x="33" y="333.38" type="curve" smooth="yes"/>
      <point x="33" y="340.785"/>
      <point x="38.5733" y="347.968"/>
      <point x="49" y="354" type="curve" smooth="yes"/>
      <point x="412" y="564" type="line" smooth="yes"/>
      <point x="417.679" y="567.285"/>
      <point x="424.031" y="569"/>
      <point x="430.523" y="569" type="curve" smooth="yes"/>
      <point x="442.734" y="569"/>
      <point x="450" y="563.071"/>
      <point x="450" y="553.108" type="curve" smooth="yes"/>
      <point x="450" y="543.719"/>
      <point x="442.862" y="532.071"/>
      <point x="434" y="527" type="curve" smooth="yes"/>
      <point x="95" y="333" type="line"/>
      <point x="433" y="137" type="line" smooth="yes"/>
      <point x="439.348" y="133.319"/>
      <point x="450" y="127.645"/>
    </contour>
  </outline>
</glyph>
<glyph name="equal" format="1">
  <advance width="458"/>
  <unicode hex="003D"/>
  <outline>
    <contour>
      <point x="103" y="259" type="line" smooth="yes"/>
      <point x="87.1508" y="259"/>
      <point x="79" y="266.152"/>
      <point x="79" y="280.058" type="curve" smooth="yes"/>
      <point x="79" y="294.517"/>
      <point x="87.8672" y="302"/>
      <point x="105" y="302" type="curve" smooth="yes"/>
      <point x="350" y="302" type="line" smooth="yes"/>
      <point x="368.873" y="302"/>
      <point x="379" y="294.414"/>
      <point x="379" y="280.276" type="curve" smooth="yes"/>
      <point x="379" y="266.403"/>
      <point x="368.909" y="259"/>
      <point x="350" y="259" type="curve" smooth="yes"/>
    </contour>
    <contour>
      <point x="105" y="362" type="line" smooth="yes"/>
      <point x="87.8672" y="362"/>
      <point x="79" y="369.483"/>
      <point x="79" y="383.942" type="curve" smooth="yes"/>
      <point x="79" y="397.848"/>
      <point x="87.1508" y="405"/>
      <point x="103" y="405" type="curve" smooth="yes"/>
      <point x="350" y="405" type="line" smooth="yes"/>
      <point x="368.873" y="405"/>
      <point x="379" y="397.414"/>
      <point x="379" y="383.276" type="curve" smooth="yes"/>
      <point x="379" y="369.403"/>
      <point x="368.909" y="362"/>
      <point x="350" y="362" type="curve" smooth="yes"/>
    </contour>
  </outline>
</glyph>
<glyph name="greater" format="1">
  <advance width="522"/>
  <unicode hex="003E"/>
  <outline>
    <contour>
      <point x="72" y="547.449" type="curve" smooth="yes"/>
      <point x="72" y="559.964"/>
      <point x="79.8899" y="569"/>
      <point x="90.8165" y="569" type="curve" smooth="yes"/>
      <point x="96.2112" y="569"/>
      <point x="101.792" y="567.159"/>
      <point x="109" y="563" type="curve" smooth="yes"/>
      <point x="473" y="353" type="line" smooth="yes"/>
      <point x="482.082" y="347.76"/>
      <point x="489" y="337.651"/>
      <point x="489" y="329.618" type="curve" smooth="yes"/>
      <point x="489" y="322.211"/>
      <point x="483.408" y="315.004"/>
      <point x="473" y="309" type="curve" smooth="yes"/>
      <point x="109" y="99" type="line" smooth="yes"/>
      <point x="102.527" y="95.2658"/>
      <point x="98.2918" y="94"/>
      <point x="92.269" y="94" type="curve" smooth="yes"/>
      <point x="79.2831" y="94"/>
      <point x="72" y="100.277"/>
      <point x="72" y="111.47" type="curve" smooth="yes"/>
      <point x="72" y="121.203"/>
      <point x="77.8393" y="130.155"/>
      <point x="88" y="136" type="curve" smooth="yes"/>
      <point x="427" y="331" type="line"/>
      <point x="89" y="526" type="line" smooth="yes"/>
      <point x="82.084" y="529.99"/>
      <point x="72" y="534.488"/>
    </contour>
  </outline>
</glyph>
<glyph name="question" format="1">
  <advance width="528"/>
  <unicode hex="003F"/>
  <outline>
    <contour>
      <point x="200.87" y="28.788" type="curve" smooth="yes"/>
      <point x="200.87" y="46.2201"/>
      <point x="225.387" y="65.4463"/>
      <point x="247.617" y="65.4463" type="curve" smooth="yes"/>
      <point x="269.21" y="65.4463"/>
      <point x="293.14" y="46.4004"/>
      <point x="293.14" y="29.2146" type="curve" smooth="yes"/>
      <point x="293.14" y="11.9351"/>
      <point x="267.814" y="-7.44634"/>
      <point x="245.235" y="-7.44634" type="curve" smooth="yes"/>
      <point x="223.97" y="-7.44634"/>
      <point x="200.87" y="11.4201"/>
    </contour>
    <contour>
      <point x="268" y="303" type="curve"/>
      <point x="268" y="194" type="line" smooth="yes"/>
      <point x="268" y="177.864"/>
      <point x="259.102" y="166"/>
      <point x="247" y="166" type="curve" smooth="yes"/>
      <point x="234.898" y="166"/>
      <point x="226" y="177.864"/>
      <point x="226" y="194" type="curve" smooth="yes"/>
      <point x="226" y="334" type="line"/>
      <point x="379" y="376" type="line" smooth="yes"/>
      <point x="417.281" y="386.509"/>
      <point x="443" y="430.578"/>
      <point x="443" y="485.665" type="curve" smooth="yes"/>
      <point x="443" y="554.5"/>
      <point x="401.353" y="602"/>
      <point x="341" y="602" type="curve" smooth="yes"/>
      <point x="248" y="602" type="line" smooth="yes"/>
      <point x="114.939" y="602"/>
      <point x="82" y="580.384"/>
      <point x="82" y="493.062" type="curve" smooth="yes"/>
      <point x="82" y="458.202"/>
      <point x="75.4713" y="443"/>
      <point x="60.5" y="443" type="curve" smooth="yes"/>
      <point x="45.4982" y="443"/>
      <point x="39" y="458.274"/>
      <point x="39" y="493.534" type="curve" smooth="yes"/>
      <point x="39" y="601.8"/>
      <point x="97.6168" y="644"/>
      <point x="248" y="644" type="curve" smooth="yes"/>
      <point x="324" y="644" type="line" smooth="yes"/>
      <point x="426.769" y="644"/>
      <point x="485" y="584.395"/>
      <point x="485" y="479.201" type="curve" smooth="yes"/>
      <point x="485" y="340.853"/>
      <point x="384.52" y="335.02"/>
    </contour>
  </outline>
</glyph>
<glyph name="at" format="1">
  <advance width="584"/>
  <unicode hex="0040"/>
  <outline>
    <contour>
      <point x="420" y="0" type="curve" smooth="yes"/>
      <point x="279" y="0" type="line" smooth="yes"/>
      <point x="151.067" y="0"/>
      <point x="71" y="92.7701"/>
      <point x="71" y="241" type="curve" smooth="yes"/>
      <point x="71" y="395" type="line" smooth="yes"/>
      <point x="71" y="543.23"/>
      <point x="151.067" y="636"/>
      <point x="279" y="636" type="curve" smooth="yes"/>
      <point x="308" y="636" type="line" smooth="yes"/>
      <point x="440.812" y="636"/>
      <point x="516" y="537.84"/>
      <point x="516" y="364.451" type="curve" smooth="yes"/>
      <point x="516" y="232.985"/>
      <point x="471.385" y="190"/>
      <point x="334.935" y="190" type="curve" smooth="yes"/>
      <point x="211.903" y="190"/>
      <point x="176" y="222.127"/>
      <point x="176" y="332.217" type="curve" smooth="yes"/>
      <point x="176" y="436.836"/>
      <point x="207.014" y="473"/>
      <point x="296.734" y="473" type="curve" smooth="yes"/>
      <point x="386.352" y="473"/>
      <point x="419" y="435.419"/>
      <point x="419" y="332.259" type="curve" smooth="yes"/>
      <point x="419" y="295.978"/>
      <point x="414.272" y="263.513"/>
      <point x="406" y="243" type="curve"/>
      <point x="477.211" y="257.861"/>
      <point x="474" y="327.467"/>
      <point x="474" y="365.498" type="curve" smooth="yes"/>
      <point x="474" y="519.319"/>
      <point x="419.747" y="594"/>
      <point x="308" y="594" type="curve" smooth="yes"/>
      <point x="279" y="594" type="line" smooth="yes"/>
      <point x="172.631" y="594"/>
      <point x="113" y="522.515"/>
      <point x="113" y="395" type="curve" smooth="yes"/>
      <point x="113" y="241" type="line" smooth="yes"/>
      <point x="113" y="113.485"/>
      <point x="172.631" y="42"/>
      <point x="279" y="42" type="curve" smooth="yes"/>
      <point x="413" y="42" type="line" smooth="yes"/>
      <point x="509.891" y="42"/>
      <point x="448.798" y="137"/>
      <point x="493.85" y="137" type="curve" smooth="yes"/>
      <point x="509.871" y="137"/>
      <point x="516" y="125.338"/>
      <point x="516" y="94.8545" type="curve" smooth="yes"/>
      <point x="516" y="29.3635"/>
      <point x="486.282" y="-0"/>
    </contour>
    <contour>
      <point x="218" y="331.5" type="curve" smooth="yes"/>
      <point x="218" y="250.205"/>
      <point x="232.546" y="232"/>
      <point x="297.5" y="232" type="curve" smooth="yes"/>
      <point x="362.454" y="232"/>
      <point x="377" y="250.205"/>
      <point x="377" y="331.5" type="curve" smooth="yes"/>
      <point x="377" y="412.795"/>
      <point x="362.454" y="431"/>
      <point x="297.5" y="431" type="curve" smooth="yes"/>
      <point x="232.546" y="431"/>
      <point x="218" y="412.795"/>
    </contour>
  </outline>
</glyph>
<glyph name="A" format="1">
  <advance width="548"/>
  <unicode hex="0041"/>
  <outline>
    <contour>
      <point x="43.5538" y="-16" type="curve" smooth="yes"/>
      <point x="31.1232" y="-16"/>
      <point x="23" y="-5.10213"/>
      <point x="23" y="11.5744" type="curve" smooth="yes"/>
      <point x="23" y="93.7119"/>
      <point x="206.864" y="519.833"/>
      <point x="251" y="636" type="curve"/>
      <point x="297" y="636" type="line"/>
      <point x="341.136" y="519.833"/>
      <point x="525" y="93.7119"/>
      <point x="525" y="11.5744" type="curve" smooth="yes"/>
      <point x="525" y="-5.10285"/>
      <point x="516.876" y="-16"/>
      <point x="504.444" y="-16" type="curve" smooth="yes"/>
      <point x="494.912" y="-16"/>
      <point x="486.502" y="-8.50654"/>
      <point x="482" y="4" type="curve" smooth="yes"/>
      <point x="410" y="204" type="line"/>
      <point x="138" y="204" type="line"/>
      <point x="66" y="4" type="line" smooth="yes"/>
      <point x="61.4988" y="-8.50345"/>
      <point x="53.0853" y="-16"/>
    </contour>
    <contour>
      <point x="154" y="246" type="line"/>
      <point x="394" y="246" type="line"/>
      <point x="273" y="575" type="line"/>
    </contour>
  </outline>
</glyph>
<glyph name="B" format="1">
  <advance width="584"/>
  <unicode hex="0042"/>
  <outline>
    <contour>
      <point x="126" y="42" type="line"/>
      <point x="321" y="42" type="line" smooth="yes"/>
      <point x="458.078" y="42"/>
      <point x="486" y="63.8909"/>
      <point x="486" y="171.363" type="curve" smooth="yes"/>
      <point x="486" y="303.081"/>
      <point x="452.212" y="337"/>
      <point x="321" y="337" type="curve" smooth="yes"/>
      <point x="126" y="337" type="line"/>
    </contour>
    <contour>
      <point x="84" y="31" type="curve" smooth="yes"/>
      <point x="84" y="605" type="line" smooth="yes"/>
      <point x="84" y="624.676"/>
      <point x="90.9403" y="636"/>
      <point x="103" y="636" type="curve" smooth="yes"/>
      <point x="279" y="636" type="line" smooth="yes"/>
      <point x="423.062" y="636"/>
      <point x="486" y="591.288"/>
      <point x="486" y="488.944" type="curve" smooth="yes"/>
      <point x="486" y="432.473"/>
      <point x="466.729" y="389.745"/>
      <point x="431" y="367" type="curve"/>
      <point x="494.069" y="348.061"/>
      <point x="528" y="295.494"/>
      <point x="528" y="216.725" type="curve" smooth="yes"/>
      <point x="528" y="54.624"/>
      <point x="475.827" y="-0"/>
      <point x="321" y="0" type="curve" smooth="yes"/>
      <point x="103" y="0" type="line" smooth="yes"/>
      <point x="90.9404" y="0"/>
      <point x="84" y="11.3237"/>
    </contour>
    <contour>
      <point x="279" y="379" type="line" smooth="yes"/>
      <point x="400.879" y="379"/>
      <point x="444" y="407.298"/>
      <point x="444" y="487.28" type="curve" smooth="yes"/>
      <point x="444" y="566.881"/>
      <point x="402.071" y="594"/>
      <point x="279" y="594" type="curve" smooth="yes"/>
      <point x="126" y="594" type="line"/>
      <point x="126" y="379" type="line"/>
    </contour>
  </outline>
</glyph>
<glyph name="C" format="1">
  <advance width="572"/>
  <unicode hex="0043"/>
  <outline>
    <contour>
      <point x="421" y="0" type="curve" smooth="yes"/>
      <point x="280" y="0" type="line" smooth="yes"/>
      <point x="127.958" y="0"/>
      <point x="72" y="47.0797"/>
      <point x="72" y="175" type="curve" smooth="yes"/>
      <point x="72" y="461" type="line" smooth="yes"/>
      <point x="72" y="588.92"/>
      <point x="127.958" y="636"/>
      <point x="280" y="636" type="curve"/>
      <point x="431.267" y="636.401" type="line"/>
      <point x="481.337" y="636.401"/>
      <point x="516.606" y="600.813"/>
      <point x="516.606" y="550.291" type="curve" smooth="yes"/>
      <point x="516.606" y="520.057"/>
      <point x="505.336" y="499"/>
      <point x="489.154" y="499" type="curve" smooth="yes"/>
      <point x="450.066" y="499"/>
      <point x="507.844" y="594"/>
      <point x="414" y="594" type="curve" smooth="yes"/>
      <point x="280" y="594" type="line" smooth="yes"/>
      <point x="149.32" y="594"/>
      <point x="114" y="565.701"/>
      <point x="114" y="461" type="curve" smooth="yes"/>
      <point x="114" y="175" type="line" smooth="yes"/>
      <point x="114" y="70.2986"/>
      <point x="149.32" y="42"/>
      <point x="280" y="42" type="curve" smooth="yes"/>
      <point x="414" y="42" type="line" smooth="yes"/>
      <point x="508.232" y="42"/>
      <point x="449.877" y="137"/>
      <point x="493.544" y="137" type="curve" smooth="yes"/>
      <point x="509.496" y="137"/>
      <point x="516" y="124.566"/>
      <point x="516" y="94.0697" type="curve" smooth="yes"/>
      <point x="516" y="29.9285"/>
      <point x="485.776" y="-0"/>
    </contour>
  </outline>
</glyph>
<glyph name="D" format="1">
  <advance width="600"/>
  <unicode hex="0044"/>
  <outline>
    <contour>
      <point x="528" y="461" type="curve" smooth="yes"/>
      <point x="528" y="175" type="line" smooth="yes"/>
      <point x="528" y="46.7354"/>
      <point x="472.719" y="-0"/>
      <point x="321" y="0" type="curve" smooth="yes"/>
      <point x="103" y="0" type="line" smooth="yes"/>
      <point x="90.9044" y="0"/>
      <point x="84" y="11.2651"/>
      <point x="84" y="31" type="curve" smooth="yes"/>
      <point x="84" y="605" type="line" smooth="yes"/>
      <point x="84" y="624.735"/>
      <point x="90.9043" y="636"/>
      <point x="103" y="636" type="curve" smooth="yes"/>
      <point x="321" y="636" type="line" smooth="yes"/>
      <point x="472.719" y="636"/>
      <point x="528" y="589.265"/>
    </contour>
    <contour>
      <point x="486" y="175" type="curve" smooth="yes"/>
      <point x="486" y="461" type="line" smooth="yes"/>
      <point x="486" y="566.031"/>
      <point x="451.302" y="594"/>
      <point x="321" y="594" type="curve" smooth="yes"/>
      <point x="126" y="594" type="line"/>
      <point x="126" y="42" type="line"/>
      <point x="321" y="42" type="line" smooth="yes"/>
      <point x="451.303" y="42"/>
      <point x="486" y="69.9681"/>
    </contour>
  </outline>
</glyph>
<glyph name="E" format="1">
  <advance width="577"/>
  <unicode hex="0045"/>
  <outline>
    <contour>
      <point x="126" y="337" type="line"/>
      <point x="126" y="42" type="line"/>
      <point x="499" y="42" type="line" smooth="yes"/>
      <point x="515.408" y="42"/>
      <point x="528" y="32.3013"/>
      <point x="528" y="19.6636" type="curve" smooth="yes"/>
      <point x="528" y="7.83008"/>
      <point x="516.452" y="-0"/>
      <point x="499" y="0" type="curve" smooth="yes"/>
      <point x="103" y="0" type="line" smooth="yes"/>
      <point x="91.3632" y="0"/>
      <point x="84" y="12.0136"/>
      <point x="84" y="31" type="curve" smooth="yes"/>
      <point x="84" y="605" type="line" smooth="yes"/>
      <point x="84" y="623.986"/>
      <point x="91.3632" y="636"/>
      <point x="103" y="636" type="curve" smooth="yes"/>
      <point x="499" y="636" type="line" smooth="yes"/>
      <point x="515.408" y="636"/>
      <point x="528" y="626.301"/>
      <point x="528" y="613.664" type="curve" smooth="yes"/>
      <point x="528" y="601.83"/>
      <point x="516.452" y="594"/>
      <point x="499" y="594" type="curve" smooth="yes"/>
      <point x="126" y="594" type="line"/>
      <point x="126" y="379" type="line"/>
      <point x="381" y="379" type="line" smooth="yes"/>
      <point x="398.073" y="379"/>
      <point x="411" y="369.36"/>
      <point x="411" y="356.628" type="curve" smooth="yes"/>
      <point x="411" y="344.687"/>
      <point x="399.251" y="337"/>
      <point x="381" y="337" type="curve" smooth="yes"/>
    </contour>
  </outline>
</glyph>
<glyph name="F" format="1">
  <advance width="558"/>
  <unicode hex="0046"/>
  <outline>
    <contour>
      <point x="105" y="-7" type="curve" smooth="yes"/>
      <point x="92.9448" y="-7"/>
      <point x="84" y="5.77831"/>
      <point x="84" y="23" type="curve" smooth="yes"/>
      <point x="84" y="605" type="line" smooth="yes"/>
      <point x="84" y="624.829"/>
      <point x="90.8467" y="636"/>
      <point x="103" y="636" type="curve" smooth="yes"/>
      <point x="499" y="636" type="line" smooth="yes"/>
      <point x="517.685" y="636"/>
      <point x="528" y="628.417"/>
      <point x="528" y="614.679" type="curve" smooth="yes"/>
      <point x="528" y="601.316"/>
      <point x="517.74" y="594"/>
      <point x="499" y="594" type="curve" smooth="yes"/>
      <point x="126" y="594" type="line"/>
      <point x="126" y="379" type="line"/>
      <point x="381" y="379" type="line" smooth="yes"/>
      <point x="400.32" y="379"/>
      <point x="411" y="371.413"/>
      <point x="411" y="357.689" type="curve" smooth="yes"/>
      <point x="411" y="344.331"/>
      <point x="400.369" y="337"/>
      <point x="381" y="337" type="curve" smooth="yes"/>
      <point x="126" y="337" type="line"/>
      <point x="126" y="23" type="line" smooth="yes"/>
      <point x="126" y="5.77831"/>
      <point x="117.055" y="-7"/>
    </contour>
  </outline>
</glyph>
<glyph name="G" format="1">
  <advance width="585"/>
  <unicode hex="0047"/>
  <outline>
    <contour>
      <point x="474" y="251" type="line"/>
      <point x="341" y="251" type="line" smooth="yes"/>
      <point x="323.637" y="251"/>
      <point x="311" y="259.846"/>
      <point x="311" y="272" type="curve" smooth="yes"/>
      <point x="311" y="284.154"/>
      <point x="323.637" y="293"/>
      <point x="341" y="293" type="curve" smooth="yes"/>
      <point x="516" y="293" type="line"/>
      <point x="516" y="106" type="line" smooth="yes"/>
      <point x="516" y="32.3453"/>
      <point x="487.011" y="-0"/>
      <point x="421" y="0" type="curve" smooth="yes"/>
      <point x="280" y="0" type="line" smooth="yes"/>
      <point x="127.372" y="0"/>
      <point x="72" y="46.5872"/>
      <point x="72" y="175" type="curve" smooth="yes"/>
      <point x="72" y="461" type="line" smooth="yes"/>
      <point x="72" y="589.413"/>
      <point x="127.372" y="636"/>
      <point x="280" y="636" type="curve"/>
      <point x="431.267" y="636.401" type="line"/>
      <point x="481.502" y="636.401"/>
      <point x="516.606" y="601.062"/>
      <point x="516.606" y="550.491" type="curve" smooth="yes"/>
      <point x="516.606" y="520.105"/>
      <point x="505.258" y="499"/>
      <point x="488.92" y="499" type="curve" smooth="yes"/>
      <point x="449.552" y="499"/>
      <point x="508.884" y="594"/>
      <point x="414" y="594" type="curve" smooth="yes"/>
      <point x="280" y="594" type="line" smooth="yes"/>
      <point x="149.059" y="594"/>
      <point x="114" y="565.911"/>
      <point x="114" y="461" type="curve" smooth="yes"/>
      <point x="114" y="175" type="line" smooth="yes"/>
      <point x="114" y="70.089"/>
      <point x="149.058" y="42"/>
      <point x="280" y="42" type="curve" smooth="yes"/>
      <point x="414" y="42" type="line" smooth="yes"/>
      <point x="457.429" y="42"/>
      <point x="474" y="60.2286"/>
      <point x="474" y="108" type="curve" smooth="yes"/>
    </contour>
  </outline>
</glyph>
<glyph name="H" format="1">
  <advance width="612"/>
  <unicode hex="0048"/>
  <outline>
    <contour>
      <point x="105" y="-7" type="curve" smooth="yes"/>
      <point x="92.9876" y="-7"/>
      <point x="84" y="5.83945"/>
      <point x="84" y="23" type="curve" smooth="yes"/>
      <point x="84" y="612" type="line" smooth="yes"/>
      <point x="84" y="631.709"/>
      <point x="91.3685" y="643"/>
      <point x="104.231" y="643" type="curve" smooth="yes"/>
      <point x="117.649" y="643"/>
      <point x="126" y="631.108"/>
      <point x="126" y="612" type="curve" smooth="yes"/>
      <point x="126" y="364" type="line"/>
      <point x="486" y="364" type="line"/>
      <point x="486" y="612" type="line" smooth="yes"/>
      <point x="486" y="629.781"/>
      <point x="494.955" y="643"/>
      <point x="507" y="643" type="curve" smooth="yes"/>
      <point x="519.045" y="643"/>
      <point x="528" y="629.781"/>
      <point x="528" y="612" type="curve" smooth="yes"/>
      <point x="528" y="23" type="line" smooth="yes"/>
      <point x="528" y="5.83945"/>
      <point x="519.012" y="-7"/>
      <point x="507" y="-7" type="curve" smooth="yes"/>
      <point x="494.988" y="-7"/>
      <point x="486" y="5.83945"/>
      <point x="486" y="23" type="curve" smooth="yes"/>
      <point x="486" y="322" type="line"/>
      <point x="126" y="322" type="line"/>
      <point x="126" y="23" type="line" smooth="yes"/>
      <point x="126" y="5.83945"/>
      <point x="117.012" y="-7"/>
    </contour>
  </outline>
</glyph>
<glyph name="I" format="1">
  <advance width="210"/>
  <unicode hex="0049"/>
  <outline>
    <contour>
      <point x="126" y="20" type="line" smooth="yes"/>
      <point x="126" y="5.20144"/>
      <point x="116.51" y="-7"/>
      <point x="105" y="-7" type="curve" smooth="yes"/>
      <point x="93.49" y="-7"/>
      <point x="84" y="5.20144"/>
      <point x="84" y="20" type="curve" smooth="yes"/>
      <point x="84" y="615" type="line" smooth="yes"/>
      <point x="84" y="630.564"/>
      <point x="93.3269" y="643"/>
      <point x="105" y="643" type="curve" smooth="yes"/>
      <point x="116.673" y="643"/>
      <point x="126" y="630.564"/>
      <point x="126" y="615" type="curve" smooth="yes"/>
    </contour>
  </outline>
</glyph>
<glyph name="J" format="1">
  <advance width="530"/>
  <unicode hex="004A"/>
  <outline>
    <contour>
      <point x="236.634" y="34" type="curve" smooth="yes"/>
      <point x="372.333" y="34"/>
      <point x="407" y="61.0638"/>
      <point x="407" y="167" type="curve" smooth="yes"/>
      <point x="407" y="615" type="line" smooth="yes"/>
      <point x="407" y="630.974"/>
      <point x="416.02" y="643"/>
      <point x="428" y="643" type="curve" smooth="yes"/>
      <point x="439.98" y="643"/>
      <point x="449" y="630.974"/>
      <point x="449" y="615" type="curve" smooth="yes"/>
      <point x="449" y="167" type="line" smooth="yes"/>
      <point x="449" y="38.0288"/>
      <point x="394.039" y="-8"/>
      <point x="240.041" y="-8" type="curve" smooth="yes"/>
      <point x="88.9329" y="-8"/>
      <point x="32" y="34.4509"/>
      <point x="32" y="147.122" type="curve" smooth="yes"/>
      <point x="32" y="182.226"/>
      <point x="37.8362" y="195"/>
      <point x="53.8754" y="195" type="curve" smooth="yes"/>
      <point x="69.4517" y="195"/>
      <point x="75" y="183.674"/>
      <point x="75" y="151.875" type="curve" smooth="yes"/>
      <point x="75" y="58.6477"/>
      <point x="108.798" y="34"/>
    </contour>
  </outline>
</glyph>
<glyph name="K" format="1">
  <advance width="497"/>
  <unicode hex="004B"/>
  <outline>
    <contour>
      <point x="493.226" y="13.3435" type="curve" smooth="yes"/>
      <point x="493.226" y="2.39872"/>
      <point x="484.246" y="-6.86665"/>
      <point x="473.639" y="-6.86665" type="curve" smooth="yes"/>
      <point x="466.45" y="-6.86665"/>
      <point x="459.176" y="-2.54169"/>
      <point x="452" y="6" type="curve" smooth="yes"/>
      <point x="184" y="325" type="line"/>
      <point x="126" y="255" type="line"/>
      <point x="126" y="20" type="line" smooth="yes"/>
      <point x="126" y="4.56035"/>
      <point x="117.009" y="-7"/>
      <point x="105" y="-7" type="curve" smooth="yes"/>
      <point x="92.9914" y="-7"/>
      <point x="84" y="4.56035"/>
      <point x="84" y="20" type="curve" smooth="yes"/>
      <point x="84" y="615" type="line" smooth="yes"/>
      <point x="84" y="631.025"/>
      <point x="92.9812" y="643"/>
      <point x="105" y="643" type="curve" smooth="yes"/>
      <point x="117.019" y="643"/>
      <point x="126" y="631.025"/>
      <point x="126" y="615" type="curve" smooth="yes"/>
      <point x="126" y="321" type="line"/>
      <point x="386" y="630" type="line" smooth="yes"/>
      <point x="393.563" y="638.988"/>
      <point x="400.622" y="643.329"/>
      <point x="407.674" y="643.329" type="curve" smooth="yes"/>
      <point x="417.819" y="643.329"/>
      <point x="426.044" y="634.138"/>
      <point x="426.044" y="622.801" type="curve" smooth="yes"/>
      <point x="426.044" y="616.307"/>
      <point x="423.124" y="609.119"/>
      <point x="418" y="603" type="curve" smooth="yes"/>
      <point x="212" y="357" type="line"/>
      <point x="484" y="33" type="line" smooth="yes"/>
      <point x="490.438" y="25.3308"/>
      <point x="493.226" y="19.3921"/>
    </contour>
  </outline>
</glyph>
<glyph name="L" format="1">
  <advance width="495"/>
  <unicode hex="004C"/>
  <outline>
    <contour>
      <point x="103" y="0" type="line" smooth="yes"/>
      <point x="90.9554" y="0"/>
      <point x="84" y="11.3483"/>
      <point x="84" y="31" type="curve" smooth="yes"/>
      <point x="84" y="615" type="line" smooth="yes"/>
      <point x="84" y="630.975"/>
      <point x="93.0189" y="643"/>
      <point x="105" y="643" type="curve" smooth="yes"/>
      <point x="116.981" y="643"/>
      <point x="126" y="630.975"/>
      <point x="126" y="615" type="curve" smooth="yes"/>
      <point x="126" y="42" type="line"/>
      <point x="444" y="42" type="line" smooth="yes"/>
      <point x="459.975" y="42"/>
      <point x="472" y="32.9811"/>
      <point x="472" y="21" type="curve" smooth="yes"/>
      <point x="472" y="9.01891"/>
      <point x="459.975" y="-0"/>
      <point x="444" y="0" type="curve" smooth="yes"/>
    </contour>
  </outline>
</glyph>
<glyph name="M" format="1">
  <advance width="633"/>
  <unicode hex="004D"/>
  <outline>
    <contour>
      <point x="316.5" y="279" type="curve" smooth="yes"/>
      <point x="311.251" y="279"/>
      <point x="306.404" y="281.326"/>
      <point x="304" y="285" type="curve" smooth="yes"/>
      <point x="126" y="557" type="line"/>
      <point x="126" y="23" type="line" smooth="yes"/>
      <point x="126" y="5.82108"/>
      <point x="117.025" y="-7"/>
      <point x="105" y="-7" type="curve" smooth="yes"/>
      <point x="92.9748" y="-7"/>
      <point x="84" y="5.82108"/>
      <point x="84" y="23" type="curve" smooth="yes"/>
      <point x="84" y="612" type="line" smooth="yes"/>
      <point x="84" y="631.671"/>
      <point x="91.007" y="643"/>
      <point x="103.174" y="643" type="curve" smooth="yes"/>
      <point x="112.483" y="643"/>
      <point x="121.879" y="636.815"/>
      <point x="129" y="626" type="curve" smooth="yes"/>
      <point x="316" y="342" type="line"/>
      <point x="504" y="626" type="line" smooth="yes"/>
      <point x="511.331" y="637.075"/>
      <point x="520.169" y="643"/>
      <point x="529.355" y="643" type="curve" smooth="yes"/>
      <point x="541.731" y="643"/>
      <point x="549" y="631.529"/>
      <point x="549" y="612" type="curve" smooth="yes"/>
      <point x="549" y="23" type="line" smooth="yes"/>
      <point x="549" y="5.82108"/>
      <point x="540.025" y="-7"/>
      <point x="528" y="-7" type="curve" smooth="yes"/>
      <point x="515.975" y="-7"/>
      <point x="507" y="5.82108"/>
      <point x="507" y="23" type="curve" smooth="yes"/>
      <point x="507" y="557" type="line"/>
      <point x="329" y="285" type="line" smooth="yes"/>
      <point x="326.596" y="281.326"/>
      <point x="321.749" y="279"/>
    </contour>
  </outline>
</glyph>
<glyph name="N" format="1">
  <advance width="612"/>
  <unicode hex="004E"/>
  <outline>
    <contour>
      <point x="507.446" y="-7" type="curve" smooth="yes"/>
      <point x="500.692" y="-7"/>
      <point x="494.864" y="-4.35872"/>
      <point x="492" y="0" type="curve" smooth="yes"/>
      <point x="126" y="557" type="line"/>
      <point x="126" y="23" type="line" smooth="yes"/>
      <point x="126" y="5.85703"/>
      <point x="117" y="-7"/>
      <point x="105" y="-7" type="curve" smooth="yes"/>
      <point x="92.9999" y="-7"/>
      <point x="84" y="5.85703"/>
      <point x="84" y="23" type="curve" smooth="yes"/>
      <point x="84" y="612" type="line" smooth="yes"/>
      <point x="84" y="631.525"/>
      <point x="91.1088" y="643"/>
      <point x="103.204" y="643" type="curve" smooth="yes"/>
      <point x="112.454" y="643"/>
      <point x="121.905" y="636.772"/>
      <point x="129" y="626" type="curve" smooth="yes"/>
      <point x="486" y="84" type="line"/>
      <point x="486" y="612" type="line" smooth="yes"/>
      <point x="486" y="629.778"/>
      <point x="494.957" y="643"/>
      <point x="507" y="643" type="curve" smooth="yes"/>
      <point x="519.043" y="643"/>
      <point x="528" y="629.778"/>
      <point x="528" y="612" type="curve" smooth="yes"/>
      <point x="528" y="23" type="line" smooth="yes"/>
      <point x="528" y="4.27514"/>
      <point x="520.275" y="-7"/>
    </contour>
  </outline>
</glyph>
<glyph name="O" format="1">
  <advance width="574"/>
  <unicode hex="004F"/>
  <outline>
    <contour>
      <point x="65" y="227" type="curve" smooth="yes"/>
      <point x="65" y="409" type="line" smooth="yes"/>
      <point x="65" y="548.434"/>
      <point x="155.838" y="645"/>
      <point x="287" y="645" type="curve" smooth="yes"/>
      <point x="418.162" y="645"/>
      <point x="509" y="548.434"/>
      <point x="509" y="409" type="curve" smooth="yes"/>
      <point x="509" y="227" type="line" smooth="yes"/>
      <point x="509" y="87.5663"/>
      <point x="418.162" y="-9"/>
      <point x="287" y="-9" type="curve" smooth="yes"/>
      <point x="155.838" y="-9"/>
      <point x="65" y="87.5663"/>
    </contour>
    <contour>
      <point x="107" y="409" type="curve" smooth="yes"/>
      <point x="107" y="227" type="line" smooth="yes"/>
      <point x="107" y="108.971"/>
      <point x="177.489" y="33"/>
      <point x="287" y="33" type="curve" smooth="yes"/>
      <point x="396.511" y="33"/>
      <point x="467" y="108.971"/>
      <point x="467" y="227" type="curve" smooth="yes"/>
      <point x="467" y="409" type="line" smooth="yes"/>
      <point x="467" y="527.029"/>
      <point x="396.511" y="603"/>
      <point x="287" y="603" type="curve" smooth="yes"/>
      <point x="177.489" y="603"/>
      <point x="107" y="527.029"/>
    </contour>
  </outline>
</glyph>
<glyph name="P" format="1">
  <advance width="520"/>
  <unicode hex="0050"/>
  <outline>
    <contour>
      <point x="486" y="485.424" type="curve" smooth="yes"/>
      <point x="486" y="387.977"/>
      <point x="429.329" y="337"/>
      <point x="321" y="337" type="curve" smooth="yes"/>
      <point x="126" y="337" type="line"/>
      <point x="126" y="20" type="line" smooth="yes"/>
      <point x="126" y="4.86407"/>
      <point x="116.772" y="-7"/>
      <point x="105" y="-7" type="curve" smooth="yes"/>
      <point x="93.2276" y="-7"/>
      <point x="84" y="4.86407"/>
      <point x="84" y="20" type="curve" smooth="yes"/>
      <point x="84" y="605" type="line" smooth="yes"/>
      <point x="84" y="624.679"/>
      <point x="90.9385" y="636"/>
      <point x="103" y="636" type="curve" smooth="yes"/>
      <point x="279" y="636" type="line" smooth="yes"/>
      <point x="421.417" y="636"/>
      <point x="486" y="589.021"/>
    </contour>
    <contour>
      <point x="279" y="379" type="line" smooth="yes"/>
      <point x="402.578" y="379"/>
      <point x="444" y="405.905"/>
      <point x="444" y="486.174" type="curve" smooth="yes"/>
      <point x="444" y="566.607"/>
      <point x="402.082" y="594"/>
      <point x="279" y="594" type="curve" smooth="yes"/>
      <point x="126" y="594" type="line"/>
      <point x="126" y="379" type="line"/>
    </contour>
  </outline>
</glyph>
<glyph name="Q" format="1">
  <advance width="574"/>
  <unicode hex="0051"/>
  <outline>
    <contour>
      <point x="107" y="409" type="curve" smooth="yes"/>
      <point x="107" y="227" type="line" smooth="yes"/>
      <point x="107" y="107.695"/>
      <point x="175.773" y="33"/>
      <point x="285.619" y="33" type="curve" smooth="yes"/>
      <point x="330.823" y="33"/>
      <point x="371.357" y="45.155"/>
      <point x="399" y="67" type="curve"/>
      <point x="384.294" y="81.4525"/>
      <point x="330.894" y="125.232"/>
      <point x="330.894" y="147.354" type="curve" smooth="yes"/>
      <point x="330.894" y="156.106"/>
      <point x="339.008" y="164.584"/>
      <point x="347.384" y="164.584" type="curve" smooth="yes"/>
      <point x="369.053" y="164.584"/>
      <point x="414.79" y="109.455"/>
      <point x="429" y="95" type="curve"/>
      <point x="454.041" y="127.955"/>
      <point x="467" y="172.97"/>
      <point x="467" y="227" type="curve" smooth="yes"/>
      <point x="467" y="409" type="line" smooth="yes"/>
      <point x="467" y="529.837"/>
      <point x="399.116" y="603"/>
      <point x="287" y="603" type="curve" smooth="yes"/>
      <point x="174.884" y="603"/>
      <point x="107" y="529.837"/>
    </contour>
    <contour>
      <point x="429" y="37" type="curve"/>
      <point x="390.202" y="7.25022"/>
      <point x="339.085" y="-9"/>
      <point x="284.302" y="-9" type="curve" smooth="yes"/>
      <point x="154.416" y="-9"/>
      <point x="65" y="87.2244"/>
      <point x="65" y="227" type="curve" smooth="yes"/>
      <point x="65" y="409" type="line" smooth="yes"/>
      <point x="65" y="551.004"/>
      <point x="153.42" y="645"/>
      <point x="287" y="645" type="curve" smooth="yes"/>
      <point x="420.58" y="645"/>
      <point x="509" y="551.004"/>
      <point x="509" y="409" type="curve" smooth="yes"/>
      <point x="509" y="227" type="line" smooth="yes"/>
      <point x="509" y="161.819"/>
      <point x="491.577" y="107.157"/>
      <point x="458" y="67" type="curve"/>
      <point x="470.602" y="54.398"/>
      <point x="506.119" y="25.909"/>
      <point x="506.119" y="6.219" type="curve" smooth="yes"/>
      <point x="506.119" y="-3.17145"/>
      <point x="498.342" y="-10.9103"/>
      <point x="488.907" y="-10.9103" type="curve" smooth="yes"/>
      <point x="468.611" y="-10.9103"/>
      <point x="442.049" y="23.5979"/>
    </contour>
  </outline>
</glyph>
<glyph name="R" format="1">
  <advance width="549"/>
  <unicode hex="0052"/>
  <outline>
    <contour>
      <point x="279" y="379" type="line" smooth="yes"/>
      <point x="400.879" y="379"/>
      <point x="444" y="407.298"/>
      <point x="444" y="487.28" type="curve" smooth="yes"/>
      <point x="444" y="566.881"/>
      <point x="402.071" y="594"/>
      <point x="279" y="594" type="curve" smooth="yes"/>
      <point x="126" y="594" type="line"/>
      <point x="126" y="379" type="line"/>
    </contour>
    <contour>
      <point x="105" y="-7" type="curve" smooth="yes"/>
      <point x="93.2292" y="-7"/>
      <point x="84" y="4.86614"/>
      <point x="84" y="20" type="curve" smooth="yes"/>
      <point x="84" y="605" type="line" smooth="yes"/>
      <point x="84" y="624.695"/>
      <point x="90.9291" y="636"/>
      <point x="103" y="636" type="curve" smooth="yes"/>
      <point x="279" y="636" type="line" smooth="yes"/>
      <point x="423.869" y="636"/>
      <point x="486" y="592.135"/>
      <point x="486" y="489.856" type="curve" smooth="yes"/>
      <point x="486" y="404.847"/>
      <point x="442.582" y="351.949"/>
      <point x="363" y="340" type="curve"/>
      <point x="407.781" y="303.236"/>
      <point x="494" y="94.6328"/>
      <point x="494" y="23.0523" type="curve" smooth="yes"/>
      <point x="494" y="4.10541"/>
      <point x="486.824" y="-7"/>
      <point x="474.582" y="-7" type="curve" smooth="yes"/>
      <point x="461.249" y="-7"/>
      <point x="452" y="7.21195"/>
      <point x="452" y="27.6996" type="curve" smooth="yes"/>
      <point x="452" y="45.6496"/>
      <point x="444.128" y="68.4364"/>
      <point x="435.749" y="99.2885" type="curve" smooth="yes"/>
      <point x="405.614" y="210.251"/>
      <point x="359.013" y="301.239"/>
      <point x="314" y="337" type="curve"/>
      <point x="126" y="337" type="line"/>
      <point x="126" y="20" type="line" smooth="yes"/>
      <point x="126" y="4.86614"/>
      <point x="116.771" y="-7"/>
    </contour>
  </outline>
</glyph>
<glyph name="S" format="1">
  <advance width="570"/>
  <unicode hex="0053"/>
  <outline>
    <contour>
      <point x="508" y="156.897" type="curve" smooth="yes"/>
      <point x="508" y="53.7957"/>
      <point x="447.665" y="-8"/>
      <point x="347" y="-8" type="curve" smooth="yes"/>
      <point x="271" y="-8" type="line" smooth="yes"/>
      <point x="120.278" y="-8"/>
      <point x="62" y="34.8084"/>
      <point x="62" y="145.522" type="curve" smooth="yes"/>
      <point x="62" y="181.062"/>
      <point x="68.2522" y="195"/>
      <point x="84.1949" y="195" type="curve" smooth="yes"/>
      <point x="99.3488" y="195"/>
      <point x="105" y="183.079"/>
      <point x="105" y="151.111" type="curve" smooth="yes"/>
      <point x="105" y="58.8034"/>
      <point x="140.158" y="34"/>
      <point x="271" y="34" type="curve" smooth="yes"/>
      <point x="364" y="34" type="line" smooth="yes"/>
      <point x="425.145" y="34"/>
      <point x="464.768" y="83.3791"/>
      <point x="464.768" y="159.58" type="curve" smooth="yes"/>
      <point x="464.768" y="220.831"/>
      <point x="440.058" y="266.662"/>
      <point x="402" y="276" type="curve" smooth="yes"/>
      <point x="186" y="329" type="line" smooth="yes"/>
      <point x="97.9331" y="350.609"/>
      <point x="62" y="393.389"/>
      <point x="62" y="476.153" type="curve" smooth="yes"/>
      <point x="62" y="582.204"/>
      <point x="121.643" y="644"/>
      <point x="224" y="644" type="curve" smooth="yes"/>
      <point x="300" y="644" type="line" smooth="yes"/>
      <point x="449.144" y="644"/>
      <point x="508" y="601.664"/>
      <point x="508" y="494.382" type="curve" smooth="yes"/>
      <point x="508" y="458.955"/>
      <point x="501.324" y="443"/>
      <point x="486.5" y="443" type="curve" smooth="yes"/>
      <point x="471.752" y="443"/>
      <point x="465" y="458.773"/>
      <point x="465" y="493.228" type="curve" smooth="yes"/>
      <point x="465" y="579.052"/>
      <point x="430.189" y="602"/>
      <point x="300" y="602" type="curve" smooth="yes"/>
      <point x="206" y="602" type="line" smooth="yes"/>
      <point x="146.956" y="602"/>
      <point x="104" y="552.593"/>
      <point x="104" y="484.681" type="curve" smooth="yes"/>
      <point x="104" y="429.884"/>
      <point x="130.429" y="385.003"/>
      <point x="168" y="376" type="curve" smooth="yes"/>
      <point x="385" y="324" type="line" smooth="yes"/>
      <point x="464.168" y="305.029"/>
      <point x="508" y="245.291"/>
    </contour>
  </outline>
</glyph>
<glyph name="T" format="1">
  <advance width="460"/>
  <unicode hex="0054"/>
  <outline>
    <contour>
      <point x="405" y="636" type="line" smooth="yes"/>
      <point x="420.886" y="636"/>
      <point x="433" y="626.915"/>
      <point x="433" y="615" type="curve" smooth="yes"/>
      <point x="433" y="603.085"/>
      <point x="420.886" y="594"/>
      <point x="405" y="594" type="curve" smooth="yes"/>
      <point x="251" y="594" type="line"/>
      <point x="251" y="20" type="line" smooth="yes"/>
      <point x="251" y="4.7325"/>
      <point x="241.875" y="-7"/>
      <point x="230" y="-7" type="curve" smooth="yes"/>
      <point x="218.125" y="-7"/>
      <point x="209" y="4.7325"/>
      <point x="209" y="20" type="curve" smooth="yes"/>
      <point x="209" y="594" type="line"/>
      <point x="54" y="594" type="line" smooth="yes"/>
      <point x="38.1134" y="594"/>
      <point x="26" y="603.085"/>
      <point x="26" y="615" type="curve" smooth="yes"/>
      <point x="26" y="626.915"/>
      <point x="38.1134" y="636"/>
      <point x="54" y="636" type="curve" smooth="yes"/>
    </contour>
  </outline>
</glyph>
<glyph name="U" format="1">
  <advance width="598"/>
  <unicode hex="0055"/>
  <outline>
    <contour>
      <point x="500" y="643" type="curve" smooth="yes"/>
      <point x="511.847" y="643"/>
      <point x="521" y="630.796"/>
      <point x="521" y="615" type="curve" smooth="yes"/>
      <point x="521" y="227" type="line" smooth="yes"/>
      <point x="521" y="87.2013"/>
      <point x="430.506" y="-9"/>
      <point x="299" y="-9" type="curve" smooth="yes"/>
      <point x="167.494" y="-9"/>
      <point x="77" y="87.2013"/>
      <point x="77" y="227" type="curve" smooth="yes"/>
      <point x="77" y="615" type="line" smooth="yes"/>
      <point x="77" y="630.796"/>
      <point x="86.1527" y="643"/>
      <point x="98" y="643" type="curve" smooth="yes"/>
      <point x="109.847" y="643"/>
      <point x="119" y="630.796"/>
      <point x="119" y="615" type="curve" smooth="yes"/>
      <point x="119" y="227" type="line" smooth="yes"/>
      <point x="119" y="108.575"/>
      <point x="189.121" y="33"/>
      <point x="299" y="33" type="curve" smooth="yes"/>
      <point x="408.879" y="33"/>
      <point x="479" y="108.575"/>
      <point x="479" y="227" type="curve" smooth="yes"/>
      <point x="479" y="615" type="line" smooth="yes"/>
      <point x="479" y="630.796"/>
      <point x="488.153" y="643"/>
    </contour>
  </outline>
</glyph>
<glyph name="V" format="1">
  <advance width="548"/>
  <unicode hex="0056"/>
  <outline>
    <contour>
      <point x="23" y="637.831" type="curve" smooth="yes"/>
      <point x="23" y="644.379"/>
      <point x="34.0901" y="652"/>
      <point x="43.6199" y="652" type="curve" smooth="yes"/>
      <point x="52.402" y="652"/>
      <point x="61.7723" y="643.626"/>
      <point x="66" y="632" type="curve" smooth="yes"/>
      <point x="274" y="60" type="line"/>
      <point x="482" y="632" type="line" smooth="yes"/>
      <point x="486.597" y="644.642"/>
      <point x="495.306" y="652"/>
      <point x="505.672" y="652" type="curve" smooth="yes"/>
      <point x="515.222" y="652"/>
      <point x="524.305" y="645.092"/>
      <point x="524.305" y="637.83" type="curve" smooth="yes"/>
      <point x="524.305" y="607.056"/>
      <point x="319.016" y="60.3734"/>
      <point x="297" y="0" type="curve"/>
      <point x="251" y="0" type="line"/>
      <point x="229.031" y="60.2446"/>
      <point x="23" y="608.792"/>
    </contour>
  </outline>
</glyph>
<glyph name="W" format="1">
  <advance width="892"/>
  <unicode hex="0057"/>
  <outline>
    <contour>
      <point x="445" y="652" type="curve" smooth="yes"/>
      <point x="455.28" y="652"/>
      <point x="464.909" y="643.173"/>
      <point x="469" y="630" type="curve" smooth="yes"/>
      <point x="646" y="60" type="line"/>
      <point x="822" y="632" type="line" smooth="yes"/>
      <point x="825.084" y="642.024"/>
      <point x="837.249" y="651.729"/>
      <point x="846.729" y="651.729" type="curve" smooth="yes"/>
      <point x="856.811" y="651.729"/>
      <point x="865.996" y="640.364"/>
      <point x="865.996" y="627.887" type="curve" smooth="yes"/>
      <point x="865.996" y="623.342"/>
      <point x="864.599" y="619.536"/>
      <point x="862" y="617" type="curve"/>
      <point x="670" y="0" type="line"/>
      <point x="620" y="0" type="line"/>
      <point x="444" y="565" type="line"/>
      <point x="269" y="0" type="line"/>
      <point x="220" y="0" type="line"/>
      <point x="32" y="617" type="line" smooth="yes"/>
      <point x="30.1569" y="623.049"/>
      <point x="24" y="627.31"/>
      <point x="24" y="633.915" type="curve" smooth="yes"/>
      <point x="24" y="642.452"/>
      <point x="36.6799" y="652"/>
      <point x="48.017" y="652" type="curve" smooth="yes"/>
      <point x="56.2097" y="652"/>
      <point x="63.0037" y="644.842"/>
      <point x="67" y="632" type="curve" smooth="yes"/>
      <point x="245" y="60" type="line"/>
      <point x="421" y="630" type="line" smooth="yes"/>
      <point x="425.063" y="643.157"/>
      <point x="434.709" y="652"/>
    </contour>
  </outline>
</glyph>
<glyph name="X" format="1">
  <advance width="537"/>
  <unicode hex="0058"/>
  <outline>
    <contour>
      <point x="482.544" y="643.066" type="curve" smooth="yes"/>
      <point x="492.643" y="643.066"/>
      <point x="501.174" y="632.854"/>
      <point x="501.174" y="620.764" type="curve" smooth="yes"/>
      <point x="501.174" y="615.361"/>
      <point x="499.196" y="609.992"/>
      <point x="495" y="604" type="curve" smooth="yes"/>
      <point x="294" y="317" type="line"/>
      <point x="495" y="32" type="line" smooth="yes"/>
      <point x="498.442" y="27.1193"/>
      <point x="500.447" y="20.7203"/>
      <point x="500.447" y="14.6136" type="curve" smooth="yes"/>
      <point x="500.447" y="1.98328"/>
      <point x="492.7" y="-7.80755"/>
      <point x="482.707" y="-7.80755" type="curve" smooth="yes"/>
      <point x="475.032" y="-7.80755"/>
      <point x="466.458" y="-2.21665"/>
      <point x="460" y="7" type="curve" smooth="yes"/>
      <point x="268" y="281" type="line"/>
      <point x="77" y="7" type="line" smooth="yes"/>
      <point x="70.5914" y="-2.19351"/>
      <point x="61.9822" y="-7.80755"/>
      <point x="54.2926" y="-7.80755" type="curve" smooth="yes"/>
      <point x="44.2998" y="-7.80755"/>
      <point x="36.5533" y="1.98351"/>
      <point x="36.5533" y="14.6139" type="curve" smooth="yes"/>
      <point x="36.5533" y="20.7205"/>
      <point x="38.558" y="27.1195"/>
      <point x="42" y="32" type="curve" smooth="yes"/>
      <point x="243" y="317" type="line"/>
      <point x="42" y="604" type="line" smooth="yes"/>
      <point x="37.7817" y="610.023"/>
      <point x="35.7828" y="615.47"/>
      <point x="35.7828" y="620.943" type="curve" smooth="yes"/>
      <point x="35.7828" y="633.101"/>
      <point x="44.2299" y="643.311"/>
      <point x="54.2892" y="643.311" type="curve" smooth="yes"/>
      <point x="61.8854" y="643.311"/>
      <point x="69.3285" y="637.965"/>
      <point x="77" y="627" type="curve" smooth="yes"/>
      <point x="268" y="354" type="line"/>
      <point x="460" y="627" type="line" smooth="yes"/>
      <point x="467.591" y="637.794"/>
      <point x="474.989" y="643.066"/>
    </contour>
  </outline>
</glyph>
<glyph name="Y" format="1">
  <advance width="499"/>
  <unicode hex="0059"/>
  <outline>
    <contour>
      <point x="229" y="310" type="line"/>
      <point x="23" y="604" type="line" smooth="yes"/>
      <point x="18.3144" y="610.687"/>
      <point x="15.9976" y="616.622"/>
      <point x="15.9976" y="621.936" type="curve" smooth="yes"/>
      <point x="15.9976" y="632.762"/>
      <point x="25.6358" y="642.571"/>
      <point x="36.2732" y="642.571" type="curve" smooth="yes"/>
      <point x="46.1124" y="642.571"/>
      <point x="52.1149" y="633.946"/>
      <point x="57" y="627" type="curve" smooth="yes"/>
      <point x="249" y="354" type="line"/>
      <point x="440" y="627" type="line" smooth="yes"/>
      <point x="448.006" y="638.443"/>
      <point x="454.087" y="643"/>
      <point x="461.351" y="643" type="curve" smooth="yes"/>
      <point x="472.054" y="643"/>
      <point x="481.617" y="633.041"/>
      <point x="481.617" y="621.896" type="curve" smooth="yes"/>
      <point x="481.617" y="616.432"/>
      <point x="479.301" y="610.168"/>
      <point x="475" y="604" type="curve" smooth="yes"/>
      <point x="270" y="310" type="line"/>
      <point x="270" y="20" type="line" smooth="yes"/>
      <point x="270" y="4.79681"/>
      <point x="261.289" y="-7"/>
      <point x="250.063" y="-7" type="curve" smooth="yes"/>
      <point x="238.567" y="-7"/>
      <point x="229" y="5.26372"/>
      <point x="229" y="20" type="curve" smooth="yes"/>
    </contour>
  </outline>
</glyph>
<glyph name="Z" format="1">
  <advance width="535"/>
  <unicode hex="005A"/>
  <outline>
    <contour>
      <point x="46" y="0" type="line"/>
      <point x="46" y="44" type="line"/>
      <point x="442" y="594" type="line"/>
      <point x="76" y="594" type="line" smooth="yes"/>
      <point x="58.2187" y="594"/>
      <point x="45" y="602.955"/>
      <point x="45" y="615" type="curve" smooth="yes"/>
      <point x="45" y="627.045"/>
      <point x="58.2187" y="636"/>
      <point x="76" y="636" type="curve" smooth="yes"/>
      <point x="489" y="636" type="line"/>
      <point x="489" y="590" type="line"/>
      <point x="95" y="42" type="line"/>
      <point x="459" y="42" type="line" smooth="yes"/>
      <point x="476.161" y="42"/>
      <point x="489" y="33.0124"/>
      <point x="489" y="21" type="curve" smooth="yes"/>
      <point x="489" y="8.98762"/>
      <point x="476.161" y="-0"/>
      <point x="459" y="0" type="curve" smooth="yes"/>
    </contour>
  </outline>
</glyph>
<glyph name="backslash" format="1">
  <advance width="349"/>
  <unicode hex="005C"/>
  <outline>
    <contour>
      <point x="62.2813" y="645" type="curve" smooth="yes"/>
      <point x="73.4026" y="645"/>
      <point x="79.7442" y="639.417"/>
      <point x="85" y="625" type="curve" smooth="yes"/>
      <point x="303" y="27" type="line" smooth="yes"/>
      <point x="304.9" y="21.7886"/>
      <point x="306" y="16.0029"/>
      <point x="306" y="11.2235" type="curve" smooth="yes"/>
      <point x="306" y="-0.82064"/>
      <point x="298.704" y="-8"/>
      <point x="286.465" y="-8" type="curve" smooth="yes"/>
      <point x="275.588" y="-8"/>
      <point x="269.226" y="-2.33569"/>
      <point x="264" y="12" type="curve" smooth="yes"/>
      <point x="46" y="610" type="line" smooth="yes"/>
      <point x="44.0618" y="615.317"/>
      <point x="43" y="620.876"/>
      <point x="43" y="625.708" type="curve" smooth="yes"/>
      <point x="43" y="637.988"/>
      <point x="50.0085" y="645"/>
    </contour>
  </outline>
</glyph>
<glyph name="asciicircum" format="1">
  <advance width="443"/>
  <unicode hex="005E"/>
  <outline>
    <contour>
      <point x="223" y="590" type="line"/>
      <point x="220" y="590" type="line"/>
      <point x="127" y="383" type="line" smooth="yes"/>
      <point x="121.943" y="371.744"/>
      <point x="112.512" y="365"/>
      <point x="101.828" y="365" type="curve" smooth="yes"/>
      <point x="92.8188" y="365"/>
      <point x="85" y="370.215"/>
      <point x="85" y="376.223" type="curve" smooth="yes"/>
      <point x="85" y="395.892"/>
      <point x="183.121" y="609.272"/>
      <point x="195" y="636" type="curve"/>
      <point x="249" y="636" type="line"/>
      <point x="261.847" y="606.824"/>
      <point x="358" y="399.165"/>
      <point x="358" y="376.929" type="curve" smooth="yes"/>
      <point x="358" y="370.346"/>
      <point x="350.459" y="365"/>
      <point x="341.172" y="365" type="curve" smooth="yes"/>
      <point x="330.488" y="365"/>
      <point x="321.057" y="371.744"/>
      <point x="316" y="383" type="curve" smooth="yes"/>
    </contour>
  </outline>
</glyph>
<glyph name="underscore" format="1">
  <advance width="475"/>
  <unicode hex="005F"/>
  <outline>
    <contour>
      <point x="28" y="-42" type="line" smooth="yes"/>
      <point x="11.8625" y="-42"/>
      <point x="-0" y="-33.1031"/>
      <point x="0" y="-21" type="curve" smooth="yes"/>
      <point x="-0" y="-8.8969"/>
      <point x="11.8625" y="-0"/>
      <point x="28" y="0" type="curve" smooth="yes"/>
      <point x="447" y="0" type="line" smooth="yes"/>
      <point x="463.137" y="0"/>
      <point x="475" y="-8.89692"/>
      <point x="475" y="-21" type="curve" smooth="yes"/>
      <point x="475" y="-33.1031"/>
      <point x="463.137" y="-42"/>
      <point x="447" y="-42" type="curve" smooth="yes"/>
    </contour>
  </outline>
</glyph>
<glyph name="grave" format="1">
  <advance width="212"/>
  <unicode hex="0060"/>
  <outline>
    <contour>
      <point x="34.351" y="656.655" type="curve" smooth="yes"/>
      <point x="34.351" y="667.991"/>
      <point x="42.9008" y="677.466"/>
      <point x="53.1296" y="677.466" type="curve" smooth="yes"/>
      <point x="60.3641" y="677.466"/>
      <point x="68.4327" y="672.867"/>
      <point x="75" y="665" type="curve" smooth="yes"/>
      <point x="171" y="550" type="line" smooth="yes"/>
      <point x="175.901" y="544.129"/>
      <point x="178.649" y="537.427"/>
      <point x="178.649" y="531.344" type="curve" smooth="yes"/>
      <point x="178.649" y="520.009"/>
      <point x="170.099" y="510.534"/>
      <point x="159.87" y="510.534" type="curve" smooth="yes"/>
      <point x="152.636" y="510.534"/>
      <point x="144.567" y="515.133"/>
      <point x="138" y="523" type="curve" smooth="yes"/>
      <point x="42" y="638" type="line" smooth="yes"/>
      <point x="37.099" y="643.871"/>
      <point x="34.351" y="650.573"/>
    </contour>
  </outline>
</glyph>
<glyph name="a" format="1">
  <advance width="534"/>
  <unicode hex="0061"/>
  <outline>
    <contour>
      <point x="268" y="248" type="line" smooth="yes"/>
      <point x="145.115" y="248"/>
      <point x="102.65" y="220.35"/>
      <point x="102.65" y="140.336" type="curve" smooth="yes"/>
      <point x="102.65" y="80.9033"/>
      <point x="126.13" y="42"/>
      <point x="162" y="42" type="curve" smooth="yes"/>
      <point x="255" y="42" type="line" smooth="yes"/>
      <point x="362.955" y="42"/>
      <point x="420.016" y="111.844"/>
      <point x="420.016" y="243.983" type="curve"/>
      <point x="420" y="248" type="line"/>
    </contour>
    <contour>
      <point x="420" y="290" type="line"/>
      <point x="420" y="354" type="line" smooth="yes"/>
      <point x="420" y="397.944"/>
      <point x="400.564" y="419"/>
      <point x="360" y="419" type="curve" smooth="yes"/>
      <point x="219" y="419" type="line" smooth="yes"/>
      <point x="145.056" y="419"/>
      <point x="102" y="396.225"/>
      <point x="102" y="357.113" type="curve" smooth="yes"/>
      <point x="102" y="337.376"/>
      <point x="93.5168" y="324"/>
      <point x="81" y="324" type="curve" smooth="yes"/>
      <point x="67.9221" y="324"/>
      <point x="60" y="337.89"/>
      <point x="60" y="360.82" type="curve" smooth="yes"/>
      <point x="60" y="419.642"/>
      <point x="122.751" y="461"/>
      <point x="212" y="461" type="curve" smooth="yes"/>
      <point x="367" y="461" type="line" smooth="yes"/>
      <point x="435.784" y="461"/>
      <point x="462" y="426.782"/>
      <point x="462" y="337" type="curve" smooth="yes"/>
      <point x="462" y="23" type="line" smooth="yes"/>
      <point x="462" y="5.95934"/>
      <point x="452.96" y="-7"/>
      <point x="441.073" y="-7" type="curve" smooth="yes"/>
      <point x="423.433" y="-7"/>
      <point x="414.038" y="28.2218"/>
      <point x="420" y="72" type="curve"/>
      <point x="385.709" y="26.7925"/>
      <point x="324.31" y="-0"/>
      <point x="255" y="0" type="curve" smooth="yes"/>
      <point x="162" y="0" type="line" smooth="yes"/>
      <point x="100.345" y="0"/>
      <point x="60" y="54.9346"/>
      <point x="60" y="138.887" type="curve" smooth="yes"/>
      <point x="60" y="244.388"/>
      <point x="122.783" y="290"/>
      <point x="268" y="290" type="curve" smooth="yes"/>
    </contour>
  </outline>
</glyph>
<glyph name="b" format="1">
  <advance width="580"/>
  <unicode hex="0062"/>
  <outline>
    <contour>
      <point x="116" y="389" type="line"/>
      <point x="155.989" y="440.481"/>
      <point x="208.581" y="461"/>
      <point x="300.546" y="461" type="curve" smooth="yes"/>
      <point x="462.103" y="461"/>
      <point x="518" y="416.016"/>
      <point x="518" y="286" type="curve" smooth="yes"/>
      <point x="518" y="175" type="line" smooth="yes"/>
      <point x="518" y="52.3618"/>
      <point x="464.635" y="-0"/>
      <point x="339.646" y="-0" type="curve" smooth="yes"/>
      <point x="217.778" y="-0"/>
      <point x="156.676" y="19.6712"/>
      <point x="116" y="72" type="curve"/>
      <point x="116.268" y="61.6528"/>
      <point x="117.042" y="51.3299"/>
      <point x="117.042" y="38.0984" type="curve" smooth="yes"/>
      <point x="117.042" y="10.3021"/>
      <point x="108.623" y="-7"/>
      <point x="95.0978" y="-7" type="curve" smooth="yes"/>
      <point x="82.9821" y="-7"/>
      <point x="74" y="5.77204"/>
      <point x="74" y="23" type="curve" smooth="yes"/>
      <point x="74" y="612" type="line" smooth="yes"/>
      <point x="74" y="631.967"/>
      <point x="81.2862" y="643"/>
      <point x="94.4722" y="643" type="curve" smooth="yes"/>
      <point x="108.118" y="643"/>
      <point x="116" y="631.65"/>
      <point x="116" y="612" type="curve" smooth="yes"/>
    </contour>
    <contour>
      <point x="116" y="230.556" type="curve" smooth="yes"/>
      <point x="116" y="109.241"/>
      <point x="175.197" y="42"/>
      <point x="282" y="42" type="curve" smooth="yes"/>
      <point x="311" y="42" type="line" smooth="yes"/>
      <point x="441.575" y="42"/>
      <point x="476" y="69.7489"/>
      <point x="476" y="175" type="curve" smooth="yes"/>
      <point x="476" y="286" type="line" smooth="yes"/>
      <point x="476" y="389.699"/>
      <point x="441.119" y="419.104"/>
      <point x="318.106" y="419.104" type="curve"/>
      <point x="282" y="419" type="line"/>
      <point x="175.156" y="419"/>
      <point x="116" y="351.846"/>
    </contour>
  </outline>
</glyph>
<glyph name="c" format="1">
  <advance width="564"/>
  <unicode hex="0063"/>
  <outline>
    <contour>
      <point x="411" y="0" type="curve" smooth="yes"/>
      <point x="270" y="0" type="line" smooth="yes"/>
      <point x="117.958" y="0"/>
      <point x="62" y="47.0797"/>
      <point x="62" y="175" type="curve" smooth="yes"/>
      <point x="62" y="286" type="line" smooth="yes"/>
      <point x="62" y="413.92"/>
      <point x="117.958" y="461"/>
      <point x="270" y="461" type="curve" smooth="yes"/>
      <point x="415" y="461" type="line" smooth="yes"/>
      <point x="475.964" y="461"/>
      <point x="506.021" y="429.8"/>
      <point x="506.021" y="366.518" type="curve" smooth="yes"/>
      <point x="506.021" y="338.465"/>
      <point x="497.91" y="324"/>
      <point x="482.181" y="324" type="curve" smooth="yes"/>
      <point x="440.066" y="324"/>
      <point x="497.844" y="419"/>
      <point x="404" y="419" type="curve" smooth="yes"/>
      <point x="270" y="419" type="line" smooth="yes"/>
      <point x="139.32" y="419"/>
      <point x="104" y="390.701"/>
      <point x="104" y="286" type="curve" smooth="yes"/>
      <point x="104" y="175" type="line" smooth="yes"/>
      <point x="104" y="70.2986"/>
      <point x="139.32" y="42"/>
      <point x="270" y="42" type="curve" smooth="yes"/>
      <point x="404" y="42" type="line" smooth="yes"/>
      <point x="498.232" y="42"/>
      <point x="439.877" y="137"/>
      <point x="483.544" y="137" type="curve" smooth="yes"/>
      <point x="499.496" y="137"/>
      <point x="506" y="124.566"/>
      <point x="506" y="94.0695" type="curve" smooth="yes"/>
      <point x="506" y="29.9288"/>
      <point x="475.775" y="-0"/>
    </contour>
  </outline>
</glyph>
<glyph name="d" format="1">
  <advance width="580"/>
  <unicode hex="0064"/>
  <outline>
    <contour>
      <point x="104" y="175" type="line" smooth="yes"/>
      <point x="104" y="71.5783"/>
      <point x="139" y="41.877"/>
      <point x="260.871" y="41.877" type="curve"/>
      <point x="299" y="42" type="line"/>
      <point x="404.106" y="42"/>
      <point x="464" y="109.517"/>
      <point x="464" y="228" type="curve" smooth="yes"/>
      <point x="464" y="419" type="line"/>
      <point x="270" y="419" type="line" smooth="yes"/>
      <point x="138.531" y="419"/>
      <point x="104" y="391.334"/>
      <point x="104" y="286" type="curve" smooth="yes"/>
    </contour>
    <contour>
      <point x="62" y="286" type="line" smooth="yes"/>
      <point x="62" y="414.539"/>
      <point x="117.222" y="461"/>
      <point x="270" y="461" type="curve" smooth="yes"/>
      <point x="464" y="461" type="line"/>
      <point x="464" y="612" type="line" smooth="yes"/>
      <point x="464" y="631.419"/>
      <point x="472.088" y="643"/>
      <point x="485.651" y="643" type="curve" smooth="yes"/>
      <point x="498.706" y="643"/>
      <point x="506" y="631.888"/>
      <point x="506" y="612" type="curve" smooth="yes"/>
      <point x="506" y="23" type="line" smooth="yes"/>
      <point x="506" y="5.85001"/>
      <point x="497.015" y="-7"/>
      <point x="485.024" y="-7" type="curve" smooth="yes"/>
      <point x="456.395" y="-7"/>
      <point x="463.19" y="54.7289"/>
      <point x="464" y="72" type="curve"/>
      <point x="425.719" y="20.8678"/>
      <point x="372.035" y="-0"/>
      <point x="278.776" y="-0" type="curve" smooth="yes"/>
      <point x="117.935" y="-0"/>
      <point x="62" y="45.1552"/>
      <point x="62" y="175" type="curve" smooth="yes"/>
    </contour>
  </outline>
</glyph>
<glyph name="e" format="1">
  <advance width="566"/>
  <unicode hex="0065"/>
  <outline>
    <contour>
      <point x="506" y="250" type="line"/>
      <point x="104" y="250" type="line"/>
      <point x="104" y="175" type="line" smooth="yes"/>
      <point x="104" y="72.8344"/>
      <point x="142.485" y="42"/>
      <point x="270" y="42" type="curve" smooth="yes"/>
      <point x="404" y="42" type="line" smooth="yes"/>
      <point x="494.269" y="42"/>
      <point x="442.732" y="137"/>
      <point x="483.108" y="137" type="curve" smooth="yes"/>
      <point x="498.572" y="137"/>
      <point x="506" y="123.086"/>
      <point x="506" y="94.1211" type="curve" smooth="yes"/>
      <point x="506" y="32.942"/>
      <point x="472.75" y="-0"/>
      <point x="411" y="0" type="curve" smooth="yes"/>
      <point x="270" y="0" type="line" smooth="yes"/>
      <point x="120.921" y="0"/>
      <point x="62" y="49.5732"/>
      <point x="62" y="175" type="curve" smooth="yes"/>
      <point x="62" y="286" type="line" smooth="yes"/>
      <point x="62" y="410.773"/>
      <point x="119.769" y="461"/>
      <point x="263.281" y="461" type="curve" smooth="yes"/>
      <point x="455.525" y="461"/>
      <point x="506.011" y="418.047"/>
      <point x="506.011" y="254.485" type="curve"/>
    </contour>
    <contour>
      <point x="104" y="292" type="line"/>
      <point x="464" y="292" type="line"/>
      <point x="464.034" y="296.329" type="line"/>
      <point x="464.034" y="392.1"/>
      <point x="420.035" y="420.476"/>
      <point x="271.539" y="420.476" type="curve" smooth="yes"/>
      <point x="147.394" y="420.476"/>
      <point x="103.967" y="388.304"/>
      <point x="103.967" y="296.333" type="curve"/>
    </contour>
  </outline>
</glyph>
<glyph name="f" format="1">
  <advance width="313"/>
  <unicode hex="0066"/>
  <outline>
    <contour>
      <point x="121" y="461" type="curve"/>
      <point x="264" y="461" type="line" smooth="yes"/>
      <point x="283.613" y="461"/>
      <point x="295" y="453.083"/>
      <point x="295" y="439.446" type="curve" smooth="yes"/>
      <point x="295" y="426.276"/>
      <point x="283.969" y="419"/>
      <point x="264" y="419" type="curve" smooth="yes"/>
      <point x="121" y="419" type="line"/>
      <point x="121" y="24" type="line" smooth="yes"/>
      <point x="121" y="4.38755"/>
      <point x="113.082" y="-7"/>
      <point x="99.4463" y="-7" type="curve" smooth="yes"/>
      <point x="86.2758" y="-7"/>
      <point x="79" y="4.03126"/>
      <point x="79" y="24" type="curve" smooth="yes"/>
      <point x="79" y="419" type="line"/>
      <point x="61.2979" y="418.938"/>
      <point x="48" y="427.946"/>
      <point x="48" y="440" type="curve" smooth="yes"/>
      <point x="48" y="452.054"/>
      <point x="61.2979" y="461.062"/>
      <point x="79" y="461" type="curve"/>
      <point x="78.8761" y="584.879"/>
      <point x="131.424" y="636"/>
      <point x="258.884" y="636" type="curve" smooth="yes"/>
      <point x="303.425" y="636"/>
      <point x="318" y="630.686"/>
      <point x="318" y="614.446" type="curve" smooth="yes"/>
      <point x="318" y="598.32"/>
      <point x="305.173" y="594"/>
      <point x="257.289" y="594" type="curve" smooth="yes"/>
      <point x="154.355" y="594"/>
      <point x="120.818" y="561.273"/>
    </contour>
  </outline>
</glyph>
<glyph name="g" format="1">
  <advance width="581"/>
  <unicode hex="0067"/>
  <outline>
    <contour>
      <point x="62" y="286" type="line" smooth="yes"/>
      <point x="62" y="408.017"/>
      <point x="116.158" y="461"/>
      <point x="240.881" y="461" type="curve" smooth="yes"/>
      <point x="362.393" y="461"/>
      <point x="425.197" y="440.733"/>
      <point x="464" y="389" type="curve"/>
      <point x="463.474" y="399.431"/>
      <point x="462.896" y="409.883"/>
      <point x="462.896" y="424.561" type="curve" smooth="yes"/>
      <point x="462.896" y="451.356"/>
      <point x="471.225" y="468"/>
      <point x="484.636" y="468" type="curve" smooth="yes"/>
      <point x="496.919" y="468"/>
      <point x="506" y="455.248"/>
      <point x="506" y="438" type="curve" smooth="yes"/>
      <point x="506" y="-92" type="line" smooth="yes"/>
      <point x="506" y="-176.449"/>
      <point x="484.271" y="-205"/>
      <point x="420" y="-205" type="curve" smooth="yes"/>
      <point x="153" y="-205" type="line" smooth="yes"/>
      <point x="91.9559" y="-205"/>
      <point x="61.9788" y="-174.058"/>
      <point x="61.9788" y="-111.049" type="curve" smooth="yes"/>
      <point x="61.9788" y="-82.5896"/>
      <point x="70.1128" y="-68"/>
      <point x="85.9792" y="-68" type="curve" smooth="yes"/>
      <point x="128.137" y="-68"/>
      <point x="69.8581" y="-163"/>
      <point x="164" y="-163" type="curve" smooth="yes"/>
      <point x="413" y="-163" type="line" smooth="yes"/>
      <point x="452.255" y="-163"/>
      <point x="464" y="-150.334"/>
      <point x="464" y="-108" type="curve" smooth="yes"/>
      <point x="464" y="9" type="line"/>
      <point x="450.121" y="2.82069"/>
      <point x="433.51" y="-0"/>
      <point x="411" y="0" type="curve" smooth="yes"/>
      <point x="270" y="0" type="line" smooth="yes"/>
      <point x="117.715" y="0"/>
      <point x="62" y="46.8752"/>
      <point x="62" y="175" type="curve" smooth="yes"/>
    </contour>
    <contour>
      <point x="104" y="175" type="line" smooth="yes"/>
      <point x="104" y="70.09"/>
      <point x="139.06" y="42"/>
      <point x="270" y="42" type="curve" smooth="yes"/>
      <point x="404" y="42" type="line" smooth="yes"/>
      <point x="447.502" y="42"/>
      <point x="464" y="59.5976"/>
      <point x="464" y="106" type="curve" smooth="yes"/>
      <point x="464" y="232" type="line" smooth="yes"/>
      <point x="464" y="350.298"/>
      <point x="403.38" y="419"/>
      <point x="299" y="419" type="curve" smooth="yes"/>
      <point x="270" y="419" type="line" smooth="yes"/>
      <point x="139.06" y="419"/>
      <point x="104" y="390.91"/>
      <point x="104" y="286" type="curve" smooth="yes"/>
    </contour>
  </outline>
</glyph>
<glyph name="h" format="1">
  <advance width="588"/>
  <unicode hex="0068"/>
  <outline>
    <contour>
      <point x="95" y="-7" type="curve" smooth="yes"/>
      <point x="82.9683" y="-7"/>
      <point x="74" y="5.81191"/>
      <point x="74" y="23" type="curve" smooth="yes"/>
      <point x="74" y="612" type="line" smooth="yes"/>
      <point x="74" y="631.966"/>
      <point x="81.2809" y="643"/>
      <point x="94.4562" y="643" type="curve" smooth="yes"/>
      <point x="108.095" y="643"/>
      <point x="116" y="631.625"/>
      <point x="116" y="612" type="curve" smooth="yes"/>
      <point x="116" y="389" type="line"/>
      <point x="156.006" y="440.488"/>
      <point x="208.573" y="461"/>
      <point x="300.518" y="461" type="curve" smooth="yes"/>
      <point x="462.101" y="461"/>
      <point x="518" y="416.02"/>
      <point x="518" y="286" type="curve" smooth="yes"/>
      <point x="518" y="23" type="line" smooth="yes"/>
      <point x="518" y="5.81191"/>
      <point x="509.032" y="-7"/>
      <point x="497" y="-7" type="curve" smooth="yes"/>
      <point x="484.968" y="-7"/>
      <point x="476" y="5.81191"/>
      <point x="476" y="23" type="curve" smooth="yes"/>
      <point x="476" y="286" type="line" smooth="yes"/>
      <point x="476" y="389.823"/>
      <point x="441.161" y="419.098"/>
      <point x="317.611" y="419.098" type="curve"/>
      <point x="282" y="419" type="line"/>
      <point x="175.962" y="419"/>
      <point x="116" y="351.452"/>
      <point x="116" y="232" type="curve" smooth="yes"/>
      <point x="116" y="23" type="line" smooth="yes"/>
      <point x="116" y="5.81191"/>
      <point x="107.032" y="-7"/>
    </contour>
  </outline>
</glyph>
<glyph name="i" format="1">
  <advance width="190"/>
  <unicode hex="0069"/>
  <outline>
    <contour>
      <point x="49" y="600.104" type="curve" smooth="yes"/>
      <point x="49" y="619.752"/>
      <point x="70.4745" y="635.529"/>
      <point x="97.2189" y="635.529" type="curve" smooth="yes"/>
      <point x="122.265" y="635.529"/>
      <point x="141" y="620.842"/>
      <point x="141" y="601.207" type="curve" smooth="yes"/>
      <point x="141" y="581.235"/>
      <point x="121.403" y="566.412"/>
      <point x="95" y="566.411" type="curve" smooth="yes"/>
      <point x="68.8239" y="566.411"/>
      <point x="49" y="580.931"/>
    </contour>
    <contour>
      <point x="116" y="20" type="line" smooth="yes"/>
      <point x="116" y="4.56033"/>
      <point x="107.009" y="-7"/>
      <point x="95" y="-7" type="curve" smooth="yes"/>
      <point x="82.9914" y="-7"/>
      <point x="74" y="4.56033"/>
      <point x="74" y="20" type="curve" smooth="yes"/>
      <point x="74" y="440" type="line" smooth="yes"/>
      <point x="74" y="456.025"/>
      <point x="82.9812" y="468"/>
      <point x="95" y="468" type="curve" smooth="yes"/>
      <point x="107.019" y="468"/>
      <point x="116" y="456.025"/>
      <point x="116" y="440" type="curve" smooth="yes"/>
    </contour>
  </outline>
</glyph>
<glyph name="j" format="1">
  <advance width="192"/>
  <unicode hex="006A"/>
  <outline>
    <contour>
      <point x="49.8595" y="600.834" type="curve" smooth="yes"/>
      <point x="49.8595" y="618.212"/>
      <point x="74.9482" y="637.446"/>
      <point x="97.6154" y="637.446" type="curve" smooth="yes"/>
      <point x="119.074" y="637.446"/>
      <point x="142.13" y="618.665"/>
      <point x="142.13" y="601.186" type="curve" smooth="yes"/>
      <point x="142.13" y="583.651"/>
      <point x="117.817" y="564.554"/>
      <point x="95.4931" y="564.554" type="curve" smooth="yes"/>
      <point x="73.7209" y="564.554"/>
      <point x="49.8595" y="583.524"/>
    </contour>
    <contour>
      <point x="117" y="0" type="line" smooth="yes"/>
      <point x="117" y="-124.696"/>
      <point x="66.7556" y="-175"/>
      <point x="-57.7929" y="-175" type="curve" smooth="yes"/>
      <point x="-104.514" y="-175"/>
      <point x="-122" y="-169.281"/>
      <point x="-122" y="-154" type="curve" smooth="yes"/>
      <point x="-122" y="-138.384"/>
      <point x="-103.481" y="-133"/>
      <point x="-49.7668" y="-133" type="curve" smooth="yes"/>
      <point x="42.033" y="-133"/>
      <point x="75" y="-97.8575"/>
      <point x="75" y="0" type="curve" smooth="yes"/>
      <point x="75" y="437" type="line" smooth="yes"/>
      <point x="75" y="454.787"/>
      <point x="83.9506" y="468"/>
      <point x="96" y="468" type="curve" smooth="yes"/>
      <point x="108.049" y="468"/>
      <point x="117" y="454.787"/>
      <point x="117" y="437" type="curve" smooth="yes"/>
    </contour>
  </outline>
</glyph>
<glyph name="k" format="1">
  <advance width="433"/>
  <unicode hex="006B"/>
  <outline>
    <contour>
      <point x="420.727" y="14.2466" type="curve" smooth="yes"/>
      <point x="420.727" y="3.13846"/>
      <point x="412.466" y="-5.68604"/>
      <point x="402.069" y="-5.68604" type="curve" smooth="yes"/>
      <point x="395.305" y="-5.68604"/>
      <point x="387.901" y="-1.93045"/>
      <point x="381" y="5" type="curve" smooth="yes"/>
      <point x="150" y="237" type="line"/>
      <point x="116" y="203" type="line"/>
      <point x="116" y="20" type="line" smooth="yes"/>
      <point x="116" y="4.49123"/>
      <point x="107.062" y="-7"/>
      <point x="95" y="-7" type="curve" smooth="yes"/>
      <point x="82.9376" y="-7"/>
      <point x="74" y="4.49123"/>
      <point x="74" y="20" type="curve" smooth="yes"/>
      <point x="74" y="615" type="line" smooth="yes"/>
      <point x="74" y="631.08"/>
      <point x="82.9397" y="643"/>
      <point x="95" y="643" type="curve" smooth="yes"/>
      <point x="107.06" y="643"/>
      <point x="116" y="631.08"/>
      <point x="116" y="615" type="curve" smooth="yes"/>
      <point x="116" y="262" type="line"/>
      <point x="308" y="455" type="line" smooth="yes"/>
      <point x="313.727" y="460.756"/>
      <point x="322.69" y="464.644"/>
      <point x="330.236" y="464.644" type="curve" smooth="yes"/>
      <point x="340.971" y="464.644"/>
      <point x="348.998" y="457.019"/>
      <point x="348.998" y="446.82" type="curve" smooth="yes"/>
      <point x="348.998" y="439.806"/>
      <point x="345.128" y="432.128"/>
      <point x="338" y="425" type="curve" smooth="yes"/>
      <point x="179" y="266" type="line"/>
      <point x="411" y="35" type="line" smooth="yes"/>
      <point x="417.181" y="28.8452"/>
      <point x="420.727" y="21.281"/>
    </contour>
  </outline>
</glyph>
<glyph name="l" format="1">
  <advance width="260"/>
  <unicode hex="006C"/>
  <outline>
    <contour>
      <point x="182.378" y="-0" type="curve" smooth="yes"/>
      <point x="113.269" y="-0"/>
      <point x="90" y="31.234"/>
      <point x="90" y="124" type="curve" smooth="yes"/>
      <point x="90" y="613" type="line" smooth="yes"/>
      <point x="90" y="630.187"/>
      <point x="98.9689" y="643"/>
      <point x="111" y="643" type="curve" smooth="yes"/>
      <point x="123.031" y="643"/>
      <point x="132" y="630.187"/>
      <point x="132" y="613" type="curve" smooth="yes"/>
      <point x="132" y="106" type="line" smooth="yes"/>
      <point x="132" y="5.66112"/>
      <point x="222.002" y="65.4985"/>
      <point x="222.002" y="23.3422" type="curve" smooth="yes"/>
      <point x="222.002" y="7.7977"/>
      <point x="208.765" y="-0"/>
    </contour>
  </outline>
</glyph>
<glyph name="m" format="1">
  <advance width="812"/>
  <unicode hex="006D"/>
  <outline>
    <contour>
      <point x="289.059" y="419" type="curve" smooth="yes"/>
      <point x="176.42" y="419"/>
      <point x="116" y="353.713"/>
      <point x="116" y="232" type="curve" smooth="yes"/>
      <point x="116" y="23" type="line" smooth="yes"/>
      <point x="116" y="5.81019"/>
      <point x="107.033" y="-7"/>
      <point x="95" y="-7" type="curve" smooth="yes"/>
      <point x="82.9671" y="-7"/>
      <point x="74" y="5.81019"/>
      <point x="74" y="23" type="curve" smooth="yes"/>
      <point x="74" y="437" type="line" smooth="yes"/>
      <point x="74" y="456.934"/>
      <point x="81.1584" y="468"/>
      <point x="94.0531" y="468" type="curve" smooth="yes"/>
      <point x="125.597" y="468"/>
      <point x="116.363" y="409.162"/>
      <point x="116" y="389" type="curve"/>
      <point x="158.865" y="445.025"/>
      <point x="191.07" y="461"/>
      <point x="261.151" y="461" type="curve" smooth="yes"/>
      <point x="347.563" y="461"/>
      <point x="397.359" y="433.202"/>
      <point x="417" y="374" type="curve"/>
      <point x="449.638" y="434.56"/>
      <point x="500.711" y="461"/>
      <point x="585.052" y="461" type="curve" smooth="yes"/>
      <point x="696.788" y="461"/>
      <point x="741" y="411.386"/>
      <point x="741" y="286" type="curve" smooth="yes"/>
      <point x="741" y="23" type="line" smooth="yes"/>
      <point x="741" y="5.81019"/>
      <point x="732.033" y="-7"/>
      <point x="720" y="-7" type="curve" smooth="yes"/>
      <point x="707.967" y="-7"/>
      <point x="699" y="5.81019"/>
      <point x="699" y="23" type="curve" smooth="yes"/>
      <point x="699" y="286" type="line" smooth="yes"/>
      <point x="699" y="388.63"/>
      <point x="676.865" y="419"/>
      <point x="602.063" y="419" type="curve" smooth="yes"/>
      <point x="488.686" y="419"/>
      <point x="428" y="353.804"/>
      <point x="428" y="232" type="curve" smooth="yes"/>
      <point x="428" y="23" type="line" smooth="yes"/>
      <point x="428" y="5.81019"/>
      <point x="419.033" y="-7"/>
      <point x="407" y="-7" type="curve" smooth="yes"/>
      <point x="394.967" y="-7"/>
      <point x="386" y="5.81019"/>
      <point x="386" y="23" type="curve" smooth="yes"/>
      <point x="386" y="286" type="line" smooth="yes"/>
      <point x="386" y="388.73"/>
      <point x="363.937" y="419"/>
    </contour>
  </outline>
</glyph>
<glyph name="n" format="1">
  <advance width="587"/>
  <unicode hex="006E"/>
  <outline>
    <contour>
      <point x="95" y="-7" type="curve" smooth="yes"/>
      <point x="83.0239" y="-7"/>
      <point x="74" y="5.89127"/>
      <point x="74" y="23" type="curve" smooth="yes"/>
      <point x="74" y="437" type="line" smooth="yes"/>
      <point x="74" y="456.719"/>
      <point x="81.2754" y="468"/>
      <point x="93.9934" y="468" type="curve" smooth="yes"/>
      <point x="125.01" y="468"/>
      <point x="117.218" y="409.081"/>
      <point x="116" y="389" type="curve"/>
      <point x="155.628" y="440.074"/>
      <point x="210.323" y="461"/>
      <point x="304.191" y="461" type="curve" smooth="yes"/>
      <point x="461.653" y="461"/>
      <point x="518" y="414.881"/>
      <point x="518" y="286" type="curve" smooth="yes"/>
      <point x="518" y="23" type="line" smooth="yes"/>
      <point x="518" y="5.89127"/>
      <point x="508.976" y="-7"/>
      <point x="497" y="-7" type="curve" smooth="yes"/>
      <point x="485.024" y="-7"/>
      <point x="476" y="5.89127"/>
      <point x="476" y="23" type="curve" smooth="yes"/>
      <point x="476" y="286" type="line" smooth="yes"/>
      <point x="476" y="389.26"/>
      <point x="440.492" y="419.098"/>
      <point x="317.611" y="419.098" type="curve"/>
      <point x="282" y="419" type="line"/>
      <point x="176.651" y="419"/>
      <point x="116" y="350.677"/>
      <point x="116" y="232" type="curve" smooth="yes"/>
      <point x="116" y="23" type="line" smooth="yes"/>
      <point x="116" y="5.89127"/>
      <point x="106.976" y="-7"/>
    </contour>
  </outline>
</glyph>
<glyph name="o" format="1">
  <advance width="568"/>
  <unicode hex="006F"/>
  <outline>
    <contour>
      <point x="304.2" y="-0" type="curve" smooth="yes"/>
      <point x="123.814" y="-0"/>
      <point x="62" y="44.6635"/>
      <point x="62" y="175" type="curve" smooth="yes"/>
      <point x="62" y="286" type="line" smooth="yes"/>
      <point x="62" y="410.706"/>
      <point x="119.532" y="461"/>
      <point x="262.187" y="461" type="curve" smooth="yes"/>
      <point x="443.835" y="461"/>
      <point x="506" y="416.38"/>
      <point x="506" y="286" type="curve" smooth="yes"/>
      <point x="506" y="175" type="line" smooth="yes"/>
      <point x="506" y="49.896"/>
      <point x="448.463" y="-0"/>
    </contour>
    <contour>
      <point x="464" y="175" type="curve" smooth="yes"/>
      <point x="464" y="286" type="line" smooth="yes"/>
      <point x="464" y="384.993"/>
      <point x="424.599" y="420.351"/>
      <point x="314.287" y="420.351" type="curve" smooth="yes"/>
      <point x="144.601" y="420.351"/>
      <point x="104" y="394.411"/>
      <point x="104" y="286" type="curve" smooth="yes"/>
      <point x="104" y="175" type="line" smooth="yes"/>
      <point x="104" y="74.3576"/>
      <point x="143.432" y="40.6458"/>
      <point x="261.152" y="40.6458" type="curve" smooth="yes"/>
      <point x="423.575" y="40.6458"/>
      <point x="464" y="67.4209"/>
    </contour>
  </outline>
</glyph>
<glyph name="p" format="1">
  <advance width="581"/>
  <unicode hex="0070"/>
  <outline>
    <contour>
      <point x="477" y="286" type="line" smooth="yes"/>
      <point x="477" y="389.559"/>
      <point x="441.952" y="419.104"/>
      <point x="319.106" y="419.104" type="curve"/>
      <point x="283" y="419" type="line"/>
      <point x="177.196" y="419"/>
      <point x="117" y="351.189"/>
      <point x="117" y="232" type="curve" smooth="yes"/>
      <point x="117" y="42" type="line"/>
      <point x="312" y="42" type="line" smooth="yes"/>
      <point x="442.302" y="42"/>
      <point x="477" y="69.9685"/>
      <point x="477" y="175" type="curve" smooth="yes"/>
    </contour>
    <contour>
      <point x="519" y="175" type="line" smooth="yes"/>
      <point x="519" y="46.7352"/>
      <point x="463.719" y="-0"/>
      <point x="312" y="0" type="curve" smooth="yes"/>
      <point x="117" y="0" type="line"/>
      <point x="117" y="-152" type="line" smooth="yes"/>
      <point x="117" y="-170.767"/>
      <point x="108.876" y="-182"/>
      <point x="95.3019" y="-182" type="curve" smooth="yes"/>
      <point x="82.2761" y="-182"/>
      <point x="75" y="-171.248"/>
      <point x="75" y="-152" type="curve" smooth="yes"/>
      <point x="75" y="438" type="line" smooth="yes"/>
      <point x="75" y="455.15"/>
      <point x="83.9848" y="468"/>
      <point x="95.9763" y="468" type="curve" smooth="yes"/>
      <point x="124.605" y="468"/>
      <point x="117.81" y="406.271"/>
      <point x="117" y="389" type="curve"/>
      <point x="156.894" y="440.384"/>
      <point x="209.959" y="461"/>
      <point x="302.327" y="461" type="curve" smooth="yes"/>
      <point x="462.911" y="461"/>
      <point x="519" y="415.699"/>
      <point x="519" y="286" type="curve" smooth="yes"/>
    </contour>
  </outline>
</glyph>
<glyph name="q" format="1">
  <advance width="581"/>
  <unicode hex="0071"/>
  <outline>
    <contour>
      <point x="104" y="286" type="curve" smooth="yes"/>
      <point x="104" y="175" type="line" smooth="yes"/>
      <point x="104" y="69.187"/>
      <point x="137.933" y="42"/>
      <point x="270" y="42" type="curve" smooth="yes"/>
      <point x="464" y="42" type="line"/>
      <point x="464" y="232" type="line" smooth="yes"/>
      <point x="464" y="351.32"/>
      <point x="404.282" y="419"/>
      <point x="299" y="419" type="curve" smooth="yes"/>
      <point x="270" y="419" type="line" smooth="yes"/>
      <point x="137.933" y="419"/>
      <point x="104" y="391.813"/>
    </contour>
    <contour>
      <point x="62" y="175" type="curve" smooth="yes"/>
      <point x="62" y="286" type="line" smooth="yes"/>
      <point x="62" y="409.147"/>
      <point x="115.031" y="461"/>
      <point x="240.975" y="461" type="curve" smooth="yes"/>
      <point x="364.65" y="461"/>
      <point x="424.518" y="441.673"/>
      <point x="464" y="389" type="curve"/>
      <point x="464" y="406.81"/>
      <point x="455.873" y="468"/>
      <point x="484.87" y="468" type="curve" smooth="yes"/>
      <point x="497.02" y="468"/>
      <point x="506" y="455.251"/>
      <point x="506" y="438" type="curve" smooth="yes"/>
      <point x="506" y="-152" type="line" smooth="yes"/>
      <point x="506" y="-171.466"/>
      <point x="498.782" y="-182"/>
      <point x="485.442" y="-182" type="curve" smooth="yes"/>
      <point x="471.673" y="-182"/>
      <point x="464" y="-171.264"/>
      <point x="464" y="-152" type="curve" smooth="yes"/>
      <point x="464" y="0" type="line"/>
      <point x="270" y="0" type="line" smooth="yes"/>
      <point x="116.666" y="0"/>
      <point x="62" y="45.9928"/>
    </contour>
  </outline>
</glyph>
<glyph name="r" format="1">
  <advance width="372"/>
  <unicode hex="0072"/>
  <outline>
    <contour>
      <point x="95" y="-7" type="curve" smooth="yes"/>
      <point x="82.9723" y="-7"/>
      <point x="74" y="5.81755"/>
      <point x="74" y="23" type="curve" smooth="yes"/>
      <point x="74" y="437" type="line" smooth="yes"/>
      <point x="74" y="456.791"/>
      <point x="81.327" y="468"/>
      <point x="94.2638" y="468" type="curve" smooth="yes"/>
      <point x="125.792" y="468"/>
      <point x="116.568" y="409.196"/>
      <point x="116" y="389" type="curve"/>
      <point x="152.316" y="435.703"/>
      <point x="210.641" y="461"/>
      <point x="282" y="461" type="curve" smooth="yes"/>
      <point x="328" y="461" type="line" smooth="yes"/>
      <point x="345.27" y="461"/>
      <point x="358" y="451.895"/>
      <point x="358" y="439.541" type="curve" smooth="yes"/>
      <point x="358" y="410.795"/>
      <point x="299.627" y="419"/>
      <point x="267.216" y="419" type="curve" smooth="yes"/>
      <point x="173.291" y="419"/>
      <point x="116" y="348.152"/>
      <point x="116" y="232" type="curve" smooth="yes"/>
      <point x="116" y="23" type="line" smooth="yes"/>
      <point x="116" y="5.81755"/>
      <point x="107.028" y="-7"/>
    </contour>
  </outline>
</glyph>
<glyph name="s" format="1">
  <advance width="566"/>
  <unicode hex="0073"/>
  <outline>
    <contour>
      <point x="144.733" y="-0.400614" type="line" smooth="yes"/>
      <point x="94.8846" y="-0.484426"/>
      <point x="59.3939" y="35.4326"/>
      <point x="59.3939" y="85.9633" type="curve" smooth="yes"/>
      <point x="59.3939" y="116.058"/>
      <point x="70.6643" y="137"/>
      <point x="86.8599" y="137" type="curve" smooth="yes"/>
      <point x="126.091" y="137"/>
      <point x="67.6104" y="42"/>
      <point x="162" y="42" type="curve" smooth="yes"/>
      <point x="400" y="42" type="line" smooth="yes"/>
      <point x="440.877" y="42"/>
      <point x="464" y="70.0164"/>
      <point x="464" y="119.545" type="curve" smooth="yes"/>
      <point x="464" y="175.731"/>
      <point x="437.671" y="215"/>
      <point x="400" y="215" type="curve" smooth="yes"/>
      <point x="184" y="215" type="line" smooth="yes"/>
      <point x="103.15" y="215"/>
      <point x="60" y="259.254"/>
      <point x="60" y="342.174" type="curve" smooth="yes"/>
      <point x="60" y="422.312"/>
      <point x="100.373" y="461"/>
      <point x="184" y="461" type="curve" smooth="yes"/>
      <point x="413" y="461" type="line" smooth="yes"/>
      <point x="473.72" y="461"/>
      <point x="504.021" y="429.535"/>
      <point x="504.021" y="366.483" type="curve" smooth="yes"/>
      <point x="504.021" y="338.459"/>
      <point x="495.946" y="324"/>
      <point x="480.296" y="324" type="curve" smooth="yes"/>
      <point x="438.417" y="324"/>
      <point x="495.365" y="419"/>
      <point x="402" y="419" type="curve" smooth="yes"/>
      <point x="166" y="419" type="line" smooth="yes"/>
      <point x="124.648" y="419"/>
      <point x="102" y="392.852"/>
      <point x="102" y="345.111" type="curve" smooth="yes"/>
      <point x="102" y="292.168"/>
      <point x="127.545" y="257"/>
      <point x="166" y="257" type="curve" smooth="yes"/>
      <point x="383" y="257" type="line" smooth="yes"/>
      <point x="462.702" y="257"/>
      <point x="506" y="211.013"/>
      <point x="506" y="126.361" type="curve" smooth="yes"/>
      <point x="506" y="43.2361"/>
      <point x="463.914" y="-0"/>
      <point x="383" y="0" type="curve"/>
    </contour>
  </outline>
</glyph>
<glyph name="t" format="1">
  <advance width="330"/>
  <unicode hex="0074"/>
  <outline>
    <contour>
      <point x="119" y="175" type="line" smooth="yes"/>
      <point x="119" y="75.3279"/>
      <point x="152.763" y="42"/>
      <point x="253.736" y="42" type="curve" smooth="yes"/>
      <point x="301.913" y="42"/>
      <point x="315" y="37.6376"/>
      <point x="315" y="21.5792" type="curve" smooth="yes"/>
      <point x="315" y="5.45277"/>
      <point x="300.253" y="-0"/>
      <point x="256.638" y="-0" type="curve" smooth="yes"/>
      <point x="132.149" y="-0"/>
      <point x="77" y="52.4967"/>
      <point x="77" y="171" type="curve" smooth="yes"/>
      <point x="77" y="419" type="line"/>
      <point x="59.3321" y="418.91"/>
      <point x="46" y="427.941"/>
      <point x="46" y="440" type="curve" smooth="yes"/>
      <point x="46" y="452.059"/>
      <point x="59.3321" y="461.09"/>
      <point x="77" y="461" type="curve"/>
      <point x="77" y="570" type="line" smooth="yes"/>
      <point x="77" y="589.789"/>
      <point x="84.3165" y="601"/>
      <point x="97.2316" y="601" type="curve" smooth="yes"/>
      <point x="110.701" y="601"/>
      <point x="119" y="589.182"/>
      <point x="119" y="570" type="curve" smooth="yes"/>
      <point x="119" y="461" type="line"/>
      <point x="262" y="461" type="line" smooth="yes"/>
      <point x="281.182" y="461"/>
      <point x="293" y="452.701"/>
      <point x="293" y="439.231" type="curve" smooth="yes"/>
      <point x="293" y="426.316"/>
      <point x="281.789" y="419"/>
      <point x="262" y="419" type="curve" smooth="yes"/>
      <point x="119" y="419" type="line"/>
    </contour>
  </outline>
</glyph>
<glyph name="u" format="1">
  <advance width="588"/>
  <unicode hex="0075"/>
  <outline>
    <contour>
      <point x="493" y="468" type="curve" smooth="yes"/>
      <point x="504.943" y="468"/>
      <point x="514" y="455.061"/>
      <point x="514" y="438" type="curve" smooth="yes"/>
      <point x="514" y="24" type="line" smooth="yes"/>
      <point x="514" y="4.61967"/>
      <point x="506.543" y="-7"/>
      <point x="494.105" y="-7" type="curve" smooth="yes"/>
      <point x="478.887" y="-7"/>
      <point x="469.95" y="10.9356"/>
      <point x="469.95" y="41.4783" type="curve" smooth="yes"/>
      <point x="469.95" y="51.225"/>
      <point x="470.628" y="61.3277"/>
      <point x="472" y="72" type="curve"/>
      <point x="434.623" y="21.9753"/>
      <point x="375.874" y="-0"/>
      <point x="279.514" y="-0" type="curve" smooth="yes"/>
      <point x="127.499" y="-0"/>
      <point x="70" y="48.0272"/>
      <point x="70" y="175" type="curve" smooth="yes"/>
      <point x="70" y="438" type="line" smooth="yes"/>
      <point x="70" y="455.061"/>
      <point x="79.057" y="468"/>
      <point x="91" y="468" type="curve" smooth="yes"/>
      <point x="102.943" y="468"/>
      <point x="112" y="455.061"/>
      <point x="112" y="438" type="curve" smooth="yes"/>
      <point x="112" y="175" type="line" smooth="yes"/>
      <point x="112" y="73.3231"/>
      <point x="149.166" y="41.8833"/>
      <point x="269.361" y="41.8833" type="curve"/>
      <point x="307" y="42" type="line"/>
      <point x="410.19" y="42"/>
      <point x="472" y="111.676"/>
      <point x="472" y="228" type="curve" smooth="yes"/>
      <point x="472" y="438" type="line" smooth="yes"/>
      <point x="472" y="455.061"/>
      <point x="481.057" y="468"/>
    </contour>
  </outline>
</glyph>
<glyph name="v" format="1">
  <advance width="499"/>
  <unicode hex="0076"/>
  <outline>
    <contour>
      <point x="28" y="458.027" type="curve" smooth="yes"/>
      <point x="28" y="462.924"/>
      <point x="37.5777" y="468"/>
      <point x="46.8183" y="468" type="curve" smooth="yes"/>
      <point x="56.9289" y="468"/>
      <point x="64.5116" y="461.785"/>
      <point x="70" y="449" type="curve" smooth="yes"/>
      <point x="243" y="46" type="line"/>
      <point x="250" y="46" type="line"/>
      <point x="430" y="450" type="line" smooth="yes"/>
      <point x="435.035" y="461.301"/>
      <point x="444.256" y="468"/>
      <point x="454.776" y="468" type="curve" smooth="yes"/>
      <point x="465.833" y="468"/>
      <point x="472" y="461.174"/>
      <point x="472" y="448.935" type="curve" smooth="yes"/>
      <point x="472" y="444.504"/>
      <point x="470.926" y="440.948"/>
      <point x="469" y="439" type="curve"/>
      <point x="276" y="0" type="line"/>
      <point x="212" y="0" type="line"/>
      <point x="196.13" y="38.4914"/>
      <point x="28" y="437.872"/>
    </contour>
  </outline>
</glyph>
<glyph name="w" format="1">
  <advance width="771"/>
  <unicode hex="0077"/>
  <outline>
    <contour>
      <point x="546" y="46" type="line"/>
      <point x="552" y="46" type="line"/>
      <point x="697" y="450" type="line" smooth="yes"/>
      <point x="701.38" y="462.203"/>
      <point x="707.16" y="468"/>
      <point x="714.946" y="468" type="curve" smooth="yes"/>
      <point x="728.251" y="468"/>
      <point x="742" y="458.627"/>
      <point x="742" y="449.558" type="curve" smooth="yes"/>
      <point x="742" y="445.822"/>
      <point x="740.457" y="441.749"/>
      <point x="738" y="439" type="curve"/>
      <point x="583" y="0" type="line"/>
      <point x="512" y="0" type="line"/>
      <point x="386" y="384" type="line"/>
      <point x="250" y="0" type="line"/>
      <point x="179" y="0" type="line"/>
      <point x="143.845" y="106.906"/>
      <point x="110.687" y="214.454"/>
      <point x="90.8649" y="273.867" type="curve" smooth="yes"/>
      <point x="63.7162" y="355.239"/>
      <point x="49.0134" y="414.625"/>
      <point x="30.2143" y="444.349" type="curve"/>
      <point x="30.8007" y="455.542"/>
      <point x="44.7557" y="468"/>
      <point x="56.7069" y="468" type="curve" smooth="yes"/>
      <point x="64.3854" y="468"/>
      <point x="70.7137" y="461.427"/>
      <point x="75" y="449" type="curve" smooth="yes"/>
      <point x="214" y="46" type="line"/>
      <point x="220" y="46" type="line"/>
      <point x="364" y="450" type="line" smooth="yes"/>
      <point x="367.993" y="461.202"/>
      <point x="375.013" y="467"/>
      <point x="384.583" y="467" type="curve" smooth="yes"/>
      <point x="395.028" y="467"/>
      <point x="404.556" y="460.083"/>
      <point x="408" y="450" type="curve" smooth="yes"/>
    </contour>
  </outline>
</glyph>
<glyph name="x" format="1">
  <advance width="488"/>
  <unicode hex="0078"/>
  <outline>
    <contour>
      <point x="428.958" y="-12" type="curve" smooth="yes"/>
      <point x="420.037" y="-12"/>
      <point x="414.597" y="-4.48839"/>
      <point x="410" y="1" type="curve" smooth="yes"/>
      <point x="245" y="198" type="line"/>
      <point x="79" y="1" type="line" smooth="yes"/>
      <point x="72.0758" y="-7.2173"/>
      <point x="64.4718" y="-11.6421"/>
      <point x="57.2747" y="-11.6421" type="curve" smooth="yes"/>
      <point x="47.2241" y="-11.6421"/>
      <point x="39.6467" y="-2.95444"/>
      <point x="39.6467" y="8.56896" type="curve" smooth="yes"/>
      <point x="39.6467" y="15.6222"/>
      <point x="42.5811" y="23.7753"/>
      <point x="47" y="29" type="curve" smooth="yes"/>
      <point x="217" y="230" type="line"/>
      <point x="47" y="433" type="line" smooth="yes"/>
      <point x="40.9881" y="440.179"/>
      <point x="37.9812" y="446.635"/>
      <point x="37.9812" y="452.363" type="curve" smooth="yes"/>
      <point x="37.9812" y="462.613"/>
      <point x="47.8195" y="472.063"/>
      <point x="58.4917" y="472.063" type="curve" smooth="yes"/>
      <point x="65.2081" y="472.063"/>
      <point x="72.3992" y="467.833"/>
      <point x="79" y="460" type="curve" smooth="yes"/>
      <point x="245" y="263" type="line"/>
      <point x="410" y="460" type="line" smooth="yes"/>
      <point x="416.345" y="467.575"/>
      <point x="423.669" y="471.758"/>
      <point x="430.59" y="471.758" type="curve" smooth="yes"/>
      <point x="440.655" y="471.758"/>
      <point x="448.712" y="462.974"/>
      <point x="448.712" y="452" type="curve" smooth="yes"/>
      <point x="448.712" y="445.753"/>
      <point x="445.92" y="438.875"/>
      <point x="441" y="433" type="curve" smooth="yes"/>
      <point x="271" y="230" type="line"/>
      <point x="441" y="29" type="line" smooth="yes"/>
      <point x="446.183" y="22.8721"/>
      <point x="450.008" y="13.79"/>
      <point x="450.008" y="7.61151" type="curve" smooth="yes"/>
      <point x="450.008" y="-2.38915"/>
      <point x="439.692" y="-12"/>
    </contour>
  </outline>
</glyph>
<glyph name="y" format="1">
  <advance width="589"/>
  <unicode hex="0079"/>
  <outline>
    <contour>
      <point x="514" y="-92" type="line" smooth="yes"/>
      <point x="514" y="-174.987"/>
      <point x="491.158" y="-205"/>
      <point x="428" y="-205" type="curve" smooth="yes"/>
      <point x="161" y="-205" type="line" smooth="yes"/>
      <point x="100.703" y="-205"/>
      <point x="69.9788" y="-172.847"/>
      <point x="69.9788" y="-109.746" type="curve" smooth="yes"/>
      <point x="69.9788" y="-82.2876"/>
      <point x="77.9889" y="-68"/>
      <point x="93.3833" y="-68" type="curve" smooth="yes"/>
      <point x="134.97" y="-68"/>
      <point x="79.4638" y="-163"/>
      <point x="172" y="-163" type="curve" smooth="yes"/>
      <point x="421" y="-163" type="line" smooth="yes"/>
      <point x="459.239" y="-163"/>
      <point x="472" y="-149.238"/>
      <point x="472" y="-108" type="curve" smooth="yes"/>
      <point x="472" y="72" type="line"/>
      <point x="434.49" y="21.7618"/>
      <point x="376.613" y="-0"/>
      <point x="280.511" y="-0" type="curve" smooth="yes"/>
      <point x="127.121" y="-0"/>
      <point x="70" y="47.4855"/>
      <point x="70" y="175" type="curve" smooth="yes"/>
      <point x="70" y="436" type="line" smooth="yes"/>
      <point x="70" y="454.576"/>
      <point x="78.8096" y="468"/>
      <point x="91" y="468" type="curve" smooth="yes"/>
      <point x="103.19" y="468"/>
      <point x="112" y="454.576"/>
      <point x="112" y="436" type="curve" smooth="yes"/>
      <point x="112" y="175" type="line" smooth="yes"/>
      <point x="112" y="72.9212"/>
      <point x="148.691" y="41.8833"/>
      <point x="269.361" y="41.8833" type="curve"/>
      <point x="307" y="42" type="line"/>
      <point x="410.593" y="42"/>
      <point x="472" y="111.223"/>
      <point x="472" y="228" type="curve" smooth="yes"/>
      <point x="472" y="436" type="line" smooth="yes"/>
      <point x="472" y="454.576"/>
      <point x="480.81" y="468"/>
      <point x="493" y="468" type="curve" smooth="yes"/>
      <point x="505.19" y="468"/>
      <point x="514" y="454.576"/>
      <point x="514" y="436" type="curve" smooth="yes"/>
    </contour>
  </outline>
</glyph>
<glyph name="z" format="1">
  <advance width="530"/>
  <unicode hex="007A"/>
  <outline>
    <contour>
      <point x="108" y="42" type="line"/>
      <point x="377" y="42" type="line" smooth="yes"/>
      <point x="475.043" y="42"/>
      <point x="411.763" y="156"/>
      <point x="458.043" y="156" type="curve" smooth="yes"/>
      <point x="474.329" y="156"/>
      <point x="480" y="142.913"/>
      <point x="480" y="105.327" type="curve" smooth="yes"/>
      <point x="480" y="30.9765"/>
      <point x="452.061" y="-0"/>
      <point x="385" y="0" type="curve" smooth="yes"/>
      <point x="58" y="0" type="line"/>
      <point x="58" y="59" type="line"/>
      <point x="412" y="419" type="line"/>
      <point x="160" y="419" type="line" smooth="yes"/>
      <point x="64.3119" y="419"/>
      <point x="124.666" y="305.988"/>
      <point x="80.9077" y="305.988" type="curve" smooth="yes"/>
      <point x="64.387" y="305.988"/>
      <point x="58" y="321.539"/>
      <point x="58" y="361.762" type="curve" smooth="yes"/>
      <point x="58" y="431.044"/>
      <point x="86.6768" y="461"/>
      <point x="153" y="461" type="curve" smooth="yes"/>
      <point x="459" y="461" type="line"/>
      <point x="459" y="399" type="line"/>
    </contour>
  </outline>
</glyph>
<glyph name="braceleft" format="1">
  <advance width="250"/>
  <unicode hex="007B"/>
  <outline>
    <contour>
      <point x="76" y="317" type="curve"/>
      <point x="117.493" y="298.447"/>
      <point x="152" y="257.143"/>
      <point x="152" y="226.031" type="curve" smooth="yes"/>
      <point x="152" y="194.646"/>
      <point x="124" y="140.9"/>
      <point x="124" y="64.0731" type="curve" smooth="yes"/>
      <point x="124" y="36.3125"/>
      <point x="120.344" y="-0.316143"/>
      <point x="202" y="0" type="curve"/>
      <point x="202" y="-42" type="line"/>
      <point x="118.627" y="-42.1356"/>
      <point x="82" y="-7.80539"/>
      <point x="82" y="70.4766" type="curve" smooth="yes"/>
      <point x="82" y="150.194"/>
      <point x="110" y="193.671"/>
      <point x="110" y="227.824" type="curve" smooth="yes"/>
      <point x="110" y="258.495"/>
      <point x="85.5082" y="287.233"/>
      <point x="34" y="317" type="curve"/>
      <point x="73.6148" y="335.461"/>
      <point x="110" y="380.592"/>
      <point x="110" y="411.268" type="curve" smooth="yes"/>
      <point x="110" y="442.329"/>
      <point x="82" y="485.806"/>
      <point x="82" y="565.524" type="curve" smooth="yes"/>
      <point x="82" y="643.806"/>
      <point x="118.626" y="678.136"/>
      <point x="202" y="678" type="curve"/>
      <point x="202" y="636" type="line"/>
      <point x="120.781" y="636.312"/>
      <point x="124" y="598.946"/>
      <point x="124" y="572.602" type="curve" smooth="yes"/>
      <point x="124" y="494.902"/>
      <point x="152" y="440.777"/>
      <point x="152" y="406.936" type="curve" smooth="yes"/>
      <point x="152" y="375.989"/>
      <point x="126.199" y="345.457"/>
    </contour>
  </outline>
</glyph>
<glyph name="bar" format="1">
  <advance width="204"/>
  <unicode hex="007C"/>
  <outline>
    <contour>
      <point x="123" y="20" type="line" smooth="yes"/>
      <point x="123" y="4.41722"/>
      <point x="114.12" y="-7"/>
      <point x="102" y="-7" type="curve" smooth="yes"/>
      <point x="89.8801" y="-7"/>
      <point x="81" y="4.41722"/>
      <point x="81" y="20" type="curve" smooth="yes"/>
      <point x="81" y="615" type="line" smooth="yes"/>
      <point x="81" y="631.137"/>
      <point x="89.8969" y="643"/>
      <point x="102" y="643" type="curve" smooth="yes"/>
      <point x="114.103" y="643"/>
      <point x="123" y="631.137"/>
      <point x="123" y="615" type="curve" smooth="yes"/>
    </contour>
  </outline>
</glyph>
<glyph name="braceright" format="1">
  <advance width="251"/>
  <unicode hex="007D"/>
  <outline>
    <contour>
      <point x="174" y="318" type="curve"/>
      <point x="134.151" y="335.032"/>
      <point x="98" y="378.758"/>
      <point x="98" y="409.923" type="curve" smooth="yes"/>
      <point x="98" y="440.777"/>
      <point x="126" y="494.902"/>
      <point x="126" y="572.602" type="curve" smooth="yes"/>
      <point x="126" y="598.946"/>
      <point x="129.219" y="636.312"/>
      <point x="48" y="636" type="curve"/>
      <point x="48" y="678" type="line"/>
      <point x="131.374" y="678.136"/>
      <point x="168" y="643.806"/>
      <point x="168" y="565.524" type="curve" smooth="yes"/>
      <point x="168" y="485.806"/>
      <point x="140" y="442.329"/>
      <point x="140" y="408.747" type="curve" smooth="yes"/>
      <point x="140" y="378.012"/>
      <point x="167.146" y="345.598"/>
      <point x="216" y="318" type="curve"/>
      <point x="176.979" y="301.291"/>
      <point x="140" y="255.961"/>
      <point x="140" y="224.836" type="curve" smooth="yes"/>
      <point x="140" y="193.671"/>
      <point x="168" y="150.194"/>
      <point x="168" y="70.4766" type="curve" smooth="yes"/>
      <point x="168" y="-7.80539"/>
      <point x="131.373" y="-42.1356"/>
      <point x="48" y="-42" type="curve"/>
      <point x="48" y="0" type="line"/>
      <point x="129.656" y="-0.316143"/>
      <point x="126" y="36.3125"/>
      <point x="126" y="64.0731" type="curve" smooth="yes"/>
      <point x="126" y="140.9"/>
      <point x="98" y="194.646"/>
      <point x="98" y="228.665" type="curve" smooth="yes"/>
      <point x="98" y="259.598"/>
      <point x="123.087" y="289.086"/>
    </contour>
  </outline>
</glyph>
<glyph name="asciitilde" format="1">
  <advance width="418"/>
  <unicode hex="007E"/>
  <outline>
    <contour>
      <point x="255.669" y="228.959" type="curve" smooth="yes"/>
      <point x="280.885" y="228.959"/>
      <point x="296.844" y="268.603"/>
      <point x="324.123" y="268.603" type="curve" smooth="yes"/>
      <point x="335.863" y="268.603"/>
      <point x="345.899" y="261.929"/>
      <point x="345.899" y="254.121" type="curve" smooth="yes"/>
      <point x="345.899" y="233.055"/>
      <point x="284.247" y="182.909"/>
      <point x="258.346" y="182.909" type="curve" smooth="yes"/>
      <point x="234.26" y="182.909"/>
      <point x="188.305" y="223.041"/>
      <point x="162.724" y="223.041" type="curve" smooth="yes"/>
      <point x="136.851" y="223.041"/>
      <point x="116.297" y="181.991"/>
      <point x="93.9157" y="181.991" type="curve" smooth="yes"/>
      <point x="84.0429" y="181.991"/>
      <point x="72.9585" y="191.527"/>
      <point x="72.9585" y="200.021" type="curve" smooth="yes"/>
      <point x="72.9585" y="219.441"/>
      <point x="135.348" y="269.091"/>
      <point x="159.75" y="269.091" type="curve" smooth="yes"/>
      <point x="183.137" y="269.091"/>
      <point x="230.299" y="228.959"/>
    </contour>
  </outline>
</glyph>
<glyph name="exclamdown" format="1">
  <advance width="218"/>
  <unicode hex="00A1"/>
  <outline>
    <contour>
      <point x="130" y="-138" type="line" smooth="yes"/>
      <point x="130" y="-153.583"/>
      <point x="121.12" y="-165"/>
      <point x="109" y="-165" type="curve" smooth="yes"/>
      <point x="96.8801" y="-165"/>
      <point x="88" y="-153.583"/>
      <point x="88" y="-138" type="curve" smooth="yes"/>
      <point x="88" y="282" type="line" smooth="yes"/>
      <point x="88" y="298.137"/>
      <point x="96.8969" y="310"/>
      <point x="109" y="310" type="curve" smooth="yes"/>
      <point x="121.103" y="310"/>
      <point x="130" y="298.137"/>
      <point x="130" y="282" type="curve" smooth="yes"/>
    </contour>
    <contour>
      <point x="61.808" y="449.734" type="curve" smooth="yes"/>
      <point x="61.808" y="467.234"/>
      <point x="86.5817" y="486.446"/>
      <point x="109.148" y="486.446" type="curve" smooth="yes"/>
      <point x="131.062" y="486.446"/>
      <point x="155.202" y="467.481"/>
      <point x="155.202" y="450.265" type="curve" smooth="yes"/>
      <point x="155.202" y="432.918"/>
      <point x="129.618" y="413.554"/>
      <point x="106.698" y="413.554" type="curve" smooth="yes"/>
      <point x="85.1149" y="413.554"/>
      <point x="61.808" y="432.338"/>
    </contour>
  </outline>
</glyph>
<glyph name="cent" format="1">
  <advance width="471"/>
  <unicode hex="00A2"/>
  <outline>
    <contour>
      <point x="240" y="-7" type="curve" smooth="yes"/>
      <point x="227.88" y="-7"/>
      <point x="219" y="4.41765"/>
      <point x="219" y="20" type="curve" smooth="yes"/>
      <point x="219" y="124" type="line"/>
      <point x="94.472" y="129.774"/>
      <point x="50" y="174.265"/>
      <point x="50" y="293.075" type="curve" smooth="yes"/>
      <point x="50" y="451.202"/>
      <point x="93.5327" y="508.11"/>
      <point x="219" y="514" type="curve"/>
      <point x="219" y="615" type="line" smooth="yes"/>
      <point x="219" y="631.136"/>
      <point x="227.898" y="643"/>
      <point x="240" y="643" type="curve" smooth="yes"/>
      <point x="252.102" y="643"/>
      <point x="261" y="631.136"/>
      <point x="261" y="615" type="curve" smooth="yes"/>
      <point x="261" y="515" type="line"/>
      <point x="354.465" y="515"/>
      <point x="414" y="521.655"/>
      <point x="414" y="425.39" type="curve" smooth="yes"/>
      <point x="414" y="392.62"/>
      <point x="406.68" y="377.999"/>
      <point x="390.274" y="377.999" type="curve" smooth="yes"/>
      <point x="348.694" y="377.999"/>
      <point x="406.532" y="473"/>
      <point x="311" y="473" type="curve" smooth="yes"/>
      <point x="261" y="473" type="line"/>
      <point x="261" y="165" type="line"/>
      <point x="309" y="165" type="line" smooth="yes"/>
      <point x="404.819" y="165"/>
      <point x="346.081" y="260.023"/>
      <point x="389.077" y="260.023" type="curve" smooth="yes"/>
      <point x="405.384" y="260.023"/>
      <point x="412" y="246.453"/>
      <point x="412" y="213.008" type="curve" smooth="yes"/>
      <point x="412" y="118.984"/>
      <point x="360.142" y="123"/>
      <point x="261" y="123" type="curve"/>
      <point x="261" y="20" type="line" smooth="yes"/>
      <point x="261" y="4.41765"/>
      <point x="252.12" y="-7"/>
    </contour>
    <contour>
      <point x="219" y="166" type="curve"/>
      <point x="219" y="472" type="line"/>
      <point x="124.656" y="469.543"/>
      <point x="92" y="435.602"/>
      <point x="92" y="340" type="curve" smooth="yes"/>
      <point x="92" y="298" type="line" smooth="yes"/>
      <point x="92" y="199.577"/>
      <point x="121.924" y="168.475"/>
    </contour>
  </outline>
</glyph>
<glyph name="sterling" format="1">
  <advance width="491"/>
  <unicode hex="00A3"/>
  <outline>
    <contour>
      <point x="82" y="0" type="line" smooth="yes"/>
      <point x="71.3366" y="0"/>
      <point x="65" y="7.89776"/>
      <point x="65" y="21.1882" type="curve" smooth="yes"/>
      <point x="65" y="25.7529"/>
      <point x="65.7653" y="28.3014"/>
      <point x="66" y="31" type="curve" smooth="yes"/>
      <point x="104" y="468" type="line" smooth="yes"/>
      <point x="114.707" y="591.135"/>
      <point x="167.934" y="643"/>
      <point x="283.592" y="643" type="curve" smooth="yes"/>
      <point x="383.903" y="643"/>
      <point x="431" y="603.35"/>
      <point x="431" y="518.9" type="curve" smooth="yes"/>
      <point x="431" y="487.156"/>
      <point x="424.232" y="472.995"/>
      <point x="409.058" y="472.995" type="curve" smooth="yes"/>
      <point x="371.623" y="472.995"/>
      <point x="407.339" y="559.923"/>
      <point x="353.455" y="588.342" type="curve" smooth="yes"/>
      <point x="338.308" y="596.331"/>
      <point x="311.254" y="601"/>
      <point x="280.112" y="601" type="curve" smooth="yes"/>
      <point x="189.476" y="601"/>
      <point x="154.518" y="566.435"/>
      <point x="146" y="468" type="curve" smooth="yes"/>
      <point x="137" y="364" type="line"/>
      <point x="153.767" y="364"/>
      <point x="203" y="371.498"/>
      <point x="203" y="343.19" type="curve" smooth="yes"/>
      <point x="203" y="313.781"/>
      <point x="149.864" y="322"/>
      <point x="133" y="322" type="curve"/>
      <point x="109" y="42" type="line"/>
      <point x="405" y="42" type="line" smooth="yes"/>
      <point x="421.136" y="42"/>
      <point x="433" y="33.1023"/>
      <point x="433" y="21" type="curve" smooth="yes"/>
      <point x="433" y="8.89772"/>
      <point x="421.136" y="-0"/>
      <point x="405" y="0" type="curve" smooth="yes"/>
    </contour>
  </outline>
</glyph>
<glyph name="currency" format="1">
  <advance width="493"/>
  <unicode hex="00A4"/>
  <outline>
    <contour>
      <point x="246.5" y="340" type="curve" smooth="yes"/>
      <point x="185.931" y="340"/>
      <point x="137" y="291.069"/>
      <point x="137" y="230.5" type="curve" smooth="yes"/>
      <point x="137" y="169.931"/>
      <point x="185.931" y="121"/>
      <point x="246.5" y="121" type="curve" smooth="yes"/>
      <point x="307.069" y="121"/>
      <point x="356" y="169.931"/>
      <point x="356" y="230.5" type="curve" smooth="yes"/>
      <point x="356" y="291.069"/>
      <point x="307.069" y="340"/>
    </contour>
    <contour>
      <point x="131" y="145" type="curve"/>
      <point x="112.955" y="168.848"/>
      <point x="103" y="199.237"/>
      <point x="103" y="230.471" type="curve" smooth="yes"/>
      <point x="103" y="261.733"/>
      <point x="112.96" y="291.802"/>
      <point x="131" y="315" type="curve"/>
      <point x="118.824" y="327.429"/>
      <point x="72.798" y="365.124"/>
      <point x="72.798" y="386.368" type="curve" smooth="yes"/>
      <point x="72.798" y="395.216"/>
      <point x="80.7835" y="403.202"/>
      <point x="89.6323" y="403.202" type="curve" smooth="yes"/>
      <point x="110.876" y="403.202"/>
      <point x="148.571" y="357.176"/>
      <point x="161" y="345" type="curve"/>
      <point x="184.831" y="363.677"/>
      <point x="215.267" y="374"/>
      <point x="246.5" y="374" type="curve" smooth="yes"/>
      <point x="277.733" y="374"/>
      <point x="308.169" y="363.677"/>
      <point x="332" y="345" type="curve"/>
      <point x="345.179" y="358.179"/>
      <point x="380.351" y="403.105"/>
      <point x="402.786" y="403.105" type="curve" smooth="yes"/>
      <point x="412.197" y="403.105"/>
      <point x="420.751" y="395.63"/>
      <point x="420.751" y="387.405" type="curve" smooth="yes"/>
      <point x="420.751" y="367.267"/>
      <point x="372.132" y="326.364"/>
      <point x="361" y="315" type="curve"/>
      <point x="379.637" y="292.502"/>
      <point x="390" y="262.464"/>
      <point x="390" y="230.939" type="curve" smooth="yes"/>
      <point x="390" y="199.474"/>
      <point x="379.648" y="168.795"/>
      <point x="361" y="145" type="curve"/>
      <point x="372.254" y="133.746"/>
      <point x="420.196" y="94.7236"/>
      <point x="420.196" y="74.4504" type="curve" smooth="yes"/>
      <point x="420.196" y="65.7116"/>
      <point x="411.288" y="56.8034"/>
      <point x="402.55" y="56.8034" type="curve" smooth="yes"/>
      <point x="382.277" y="56.8034"/>
      <point x="343.254" y="104.746"/>
      <point x="332" y="116" type="curve"/>
      <point x="308.169" y="97.3233"/>
      <point x="277.733" y="87"/>
      <point x="246.5" y="87" type="curve" smooth="yes"/>
      <point x="215.267" y="87"/>
      <point x="184.831" y="97.3233"/>
      <point x="161" y="116" type="curve"/>
      <point x="149.655" y="104.887"/>
      <point x="109.014" y="56.293"/>
      <point x="88.7826" y="56.293" type="curve" smooth="yes"/>
      <point x="80.2928" y="56.293"/>
      <point x="72.3097" y="64.8102"/>
      <point x="72.3097" y="73.8678" type="curve" smooth="yes"/>
      <point x="72.3097" y="95.6735"/>
      <point x="118.366" y="132.366"/>
    </contour>
  </outline>
</glyph>
<glyph name="yen" format="1">
  <advance width="529"/>
  <unicode hex="00A5"/>
  <outline>
    <contour>
      <point x="245" y="310" type="line"/>
      <point x="39" y="604" type="line" smooth="yes"/>
      <point x="34.3763" y="610.599"/>
      <point x="31.9976" y="616.613"/>
      <point x="31.9976" y="621.705" type="curve" smooth="yes"/>
      <point x="31.9976" y="632.214"/>
      <point x="42.1036" y="642.571"/>
      <point x="52.3579" y="642.571" type="curve" smooth="yes"/>
      <point x="59.1093" y="642.571"/>
      <point x="65.3709" y="637.848"/>
      <point x="73" y="627" type="curve" smooth="yes"/>
      <point x="265" y="354" type="line"/>
      <point x="456" y="627" type="line" smooth="yes"/>
      <point x="462.256" y="635.942"/>
      <point x="472.477" y="643"/>
      <point x="479.171" y="643" type="curve" smooth="yes"/>
      <point x="488.626" y="643"/>
      <point x="497.617" y="632.759"/>
      <point x="497.617" y="621.99" type="curve" smooth="yes"/>
      <point x="497.617" y="616.46"/>
      <point x="495.305" y="610.174"/>
      <point x="491" y="604" type="curve" smooth="yes"/>
      <point x="286" y="310" type="line"/>
      <point x="286" y="272" type="line"/>
      <point x="385" y="272" type="line" smooth="yes"/>
      <point x="403.416" y="272"/>
      <point x="413" y="264.432"/>
      <point x="413" y="249.89" type="curve" smooth="yes"/>
      <point x="413" y="235.684"/>
      <point x="404.041" y="229"/>
      <point x="385" y="229" type="curve" smooth="yes"/>
      <point x="286" y="229" type="line"/>
      <point x="286" y="183" type="line"/>
      <point x="385" y="183" type="line" smooth="yes"/>
      <point x="404.041" y="183"/>
      <point x="413" y="176.316"/>
      <point x="413" y="162.11" type="curve" smooth="yes"/>
      <point x="413" y="147.568"/>
      <point x="403.416" y="140"/>
      <point x="385" y="140" type="curve" smooth="yes"/>
      <point x="286" y="140" type="line"/>
      <point x="286" y="20" type="line" smooth="yes"/>
      <point x="286" y="4.44253"/>
      <point x="277.618" y="-7"/>
      <point x="266.221" y="-7" type="curve" smooth="yes"/>
      <point x="254.503" y="-7"/>
      <point x="245" y="5.09019"/>
      <point x="245" y="20" type="curve" smooth="yes"/>
      <point x="245" y="140" type="line"/>
      <point x="140" y="140" type="line" smooth="yes"/>
      <point x="122.396" y="140"/>
      <point x="113" y="147.57"/>
      <point x="113" y="161.751" type="curve" smooth="yes"/>
      <point x="113" y="175.663"/>
      <point x="122.323" y="183"/>
      <point x="140" y="183" type="curve" smooth="yes"/>
      <point x="245" y="183" type="line"/>
      <point x="245" y="229" type="line"/>
      <point x="140" y="229" type="line" smooth="yes"/>
      <point x="122.396" y="229"/>
      <point x="113" y="236.57"/>
      <point x="113" y="250.751" type="curve" smooth="yes"/>
      <point x="113" y="264.663"/>
      <point x="122.323" y="272"/>
      <point x="140" y="272" type="curve" smooth="yes"/>
      <point x="245" y="272" type="line"/>
    </contour>
  </outline>
</glyph>
<glyph name="brokenbar" format="1">
  <advance width="207"/>
  <unicode hex="00A6"/>
  <outline>
    <contour>
      <point x="83" y="616" type="line" smooth="yes"/>
      <point x="83" y="630.91"/>
      <point x="92.5028" y="643"/>
      <point x="104.222" y="643" type="curve" smooth="yes"/>
      <point x="115.618" y="643"/>
      <point x="124" y="631.557"/>
      <point x="124" y="616" type="curve" smooth="yes"/>
      <point x="124" y="401" type="line" smooth="yes"/>
      <point x="124" y="382.791"/>
      <point x="116.753" y="373"/>
      <point x="103.275" y="373" type="curve" smooth="yes"/>
      <point x="90.063" y="373"/>
      <point x="83" y="382.754"/>
      <point x="83" y="401" type="curve" smooth="yes"/>
    </contour>
    <contour>
      <point x="83" y="237" type="line" smooth="yes"/>
      <point x="83" y="251.355"/>
      <point x="92.5177" y="263"/>
      <point x="104.25" y="263" type="curve" smooth="yes"/>
      <point x="115.641" y="263"/>
      <point x="124" y="251.996"/>
      <point x="124" y="237" type="curve" smooth="yes"/>
      <point x="124" y="22" type="line" smooth="yes"/>
      <point x="124" y="3.34511"/>
      <point x="116.561" y="-7"/>
      <point x="103.147" y="-7" type="curve" smooth="yes"/>
      <point x="90.0578" y="-7"/>
      <point x="83" y="3.15897"/>
      <point x="83" y="22" type="curve" smooth="yes"/>
    </contour>
  </outline>
</glyph>
<glyph name="section" format="1">
  <advance width="510"/>
  <unicode hex="00A7"/>
  <outline>
    <contour>
      <point x="162" y="42" type="curve" smooth="yes"/>
      <point x="346" y="42" type="line" smooth="yes"/>
      <point x="380.059" y="42"/>
      <point x="393" y="57.4958"/>
      <point x="393" y="98.2794" type="curve" smooth="yes"/>
      <point x="393" y="143.589"/>
      <point x="378.002" y="170"/>
      <point x="350" y="174" type="curve" smooth="yes"/>
      <point x="175" y="199" type="line" smooth="yes"/>
      <point x="107.928" y="208.582"/>
      <point x="75" y="244.708"/>
      <point x="75" y="308.567" type="curve" smooth="yes"/>
      <point x="75" y="356.186"/>
      <point x="93.6591" y="388.024"/>
      <point x="128" y="399" type="curve"/>
      <point x="92.9583" y="415.499"/>
      <point x="75" y="448.258"/>
      <point x="75" y="495.68" type="curve" smooth="yes"/>
      <point x="75" y="560.914"/>
      <point x="108.651" y="594"/>
      <point x="175" y="594" type="curve" smooth="yes"/>
      <point x="360" y="594" type="line" smooth="yes"/>
      <point x="411.673" y="594"/>
      <point x="435" y="572.203"/>
      <point x="435" y="523.918" type="curve" smooth="yes"/>
      <point x="435" y="495.145"/>
      <point x="427.61" y="482.999"/>
      <point x="410.104" y="482.999" type="curve" smooth="yes"/>
      <point x="368.487" y="482.999"/>
      <point x="427.044" y="552"/>
      <point x="348" y="552" type="curve" smooth="yes"/>
      <point x="164" y="552" type="line" smooth="yes"/>
      <point x="130.329" y="552"/>
      <point x="117" y="535.801"/>
      <point x="117" y="494.879" type="curve" smooth="yes"/>
      <point x="117" y="450.348"/>
      <point x="132.142" y="423.98"/>
      <point x="160" y="420" type="curve" smooth="yes"/>
      <point x="335" y="395" type="line" smooth="yes"/>
      <point x="402.144" y="385.408"/>
      <point x="435" y="349.494"/>
      <point x="435" y="285.838" type="curve" smooth="yes"/>
      <point x="435" y="238.13"/>
      <point x="416.216" y="205.937"/>
      <point x="382" y="195" type="curve"/>
      <point x="417.042" y="178.501"/>
      <point x="435" y="145.742"/>
      <point x="435" y="98.3198" type="curve" smooth="yes"/>
      <point x="435" y="33.0859"/>
      <point x="401.349" y="-0"/>
      <point x="335" y="0" type="curve" smooth="yes"/>
      <point x="151" y="0" type="line" smooth="yes"/>
      <point x="100.054" y="0"/>
      <point x="75" y="23.8089"/>
      <point x="75" y="72.2219" type="curve" smooth="yes"/>
      <point x="75" y="99.0966"/>
      <point x="82.4098" y="111.027"/>
      <point x="99.1013" y="111.027" type="curve" smooth="yes"/>
      <point x="139.073" y="111.027"/>
      <point x="84.3496" y="42"/>
    </contour>
    <contour>
      <point x="202.104" y="373" type="curve" smooth="yes"/>
      <point x="153.195" y="373"/>
      <point x="117" y="379.941"/>
      <point x="117" y="329.095" type="curve" smooth="yes"/>
      <point x="117" y="262.912"/>
      <point x="191.597" y="221"/>
      <point x="309.391" y="221" type="curve" smooth="yes"/>
      <point x="357.368" y="221"/>
      <point x="393" y="214.106"/>
      <point x="393" y="265.026" type="curve" smooth="yes"/>
      <point x="393" y="331.371"/>
      <point x="319.4" y="373"/>
    </contour>
  </outline>
</glyph>
<glyph name="dieresis" format="1">
  <advance width="367"/>
  <unicode hex="00A8"/>
  <outline>
    <contour>
      <point x="211" y="629.921" type="curve" smooth="yes"/>
      <point x="211" y="649.017"/>
      <point x="232.04" y="664.529"/>
      <point x="257.939" y="664.529" type="curve" smooth="yes"/>
      <point x="282.918" y="664.529"/>
      <point x="303" y="649.123"/>
      <point x="303" y="629.961" type="curve" smooth="yes"/>
      <point x="303" y="610.82"/>
      <point x="282.485" y="595.412"/>
      <point x="257" y="595.411" type="curve" smooth="yes"/>
      <point x="231.523" y="595.411"/>
      <point x="211" y="610.808"/>
    </contour>
    <contour>
      <point x="65" y="629.921" type="curve" smooth="yes"/>
      <point x="65" y="649.017"/>
      <point x="86.0396" y="664.529"/>
      <point x="111.94" y="664.529" type="curve" smooth="yes"/>
      <point x="136.918" y="664.529"/>
      <point x="157" y="649.123"/>
      <point x="157" y="629.961" type="curve" smooth="yes"/>
      <point x="157" y="610.82"/>
      <point x="136.485" y="595.412"/>
      <point x="111" y="595.411" type="curve" smooth="yes"/>
      <point x="85.5233" y="595.411"/>
      <point x="65" y="610.808"/>
    </contour>
  </outline>
</glyph>
<glyph name="copyright" format="1">
  <advance width="604"/>
  <unicode hex="00A9"/>
  <outline>
    <contour>
      <point x="347" y="219" type="curve" smooth="yes"/>
      <point x="297" y="219" type="line" smooth="yes"/>
      <point x="242.954" y="219"/>
      <point x="207" y="250.559"/>
      <point x="207" y="298" type="curve" smooth="yes"/>
      <point x="207" y="337" type="line" smooth="yes"/>
      <point x="207" y="384.441"/>
      <point x="242.954" y="416"/>
      <point x="297" y="416" type="curve" smooth="yes"/>
      <point x="347" y="416" type="line" smooth="yes"/>
      <point x="375.711" y="416"/>
      <point x="397" y="396.406"/>
      <point x="397" y="369.98" type="curve" smooth="yes"/>
      <point x="397" y="357.464"/>
      <point x="391.527" y="350.999"/>
      <point x="380.932" y="350.999" type="curve" smooth="yes"/>
      <point x="355.465" y="350.999"/>
      <point x="380.44" y="385"/>
      <point x="345" y="385" type="curve" smooth="yes"/>
      <point x="297" y="385" type="line" smooth="yes"/>
      <point x="261.464" y="385"/>
      <point x="237" y="365.429"/>
      <point x="237" y="337" type="curve" smooth="yes"/>
      <point x="237" y="298" type="line" smooth="yes"/>
      <point x="237" y="269.571"/>
      <point x="261.464" y="250"/>
      <point x="297" y="250" type="curve" smooth="yes"/>
      <point x="345" y="250" type="line" smooth="yes"/>
      <point x="380.8" y="250"/>
      <point x="355.555" y="284"/>
      <point x="380.859" y="284" type="curve" smooth="yes"/>
      <point x="391.566" y="284"/>
      <point x="397" y="277.451"/>
      <point x="397" y="264.546" type="curve" smooth="yes"/>
      <point x="397" y="237.887"/>
      <point x="376.266" y="219"/>
    </contour>
    <contour>
      <point x="330.309" y="87" type="curve" smooth="yes"/>
      <point x="138.108" y="87"/>
      <point x="80" y="127.625"/>
      <point x="80" y="262" type="curve" smooth="yes"/>
      <point x="80" y="373" type="line" smooth="yes"/>
      <point x="80" y="499.251"/>
      <point x="133.384" y="548"/>
      <point x="271.639" y="548" type="curve" smooth="yes"/>
      <point x="465.477" y="548"/>
      <point x="524" y="507.417"/>
      <point x="524" y="373" type="curve" smooth="yes"/>
      <point x="524" y="262" type="line" smooth="yes"/>
      <point x="524" y="135.233"/>
      <point x="470.616" y="87"/>
    </contour>
    <contour>
      <point x="314.252" y="129" type="curve" smooth="yes"/>
      <point x="447.784" y="129"/>
      <point x="482" y="156.128"/>
      <point x="482" y="262" type="curve" smooth="yes"/>
      <point x="482" y="373" type="line" smooth="yes"/>
      <point x="482" y="514.7"/>
      <point x="401.941" y="506"/>
      <point x="289.514" y="506" type="curve" smooth="yes"/>
      <point x="155.98" y="506"/>
      <point x="122" y="479.021"/>
      <point x="122" y="373" type="curve" smooth="yes"/>
      <point x="122" y="262" type="line" smooth="yes"/>
      <point x="122" y="119.758"/>
      <point x="202.556" y="129"/>
    </contour>
  </outline>
</glyph>
<glyph name="ordfeminine" format="1">
  <advance width="376"/>
  <unicode hex="00AA"/>
  <outline>
    <contour>
      <point x="89" y="164" type="line" smooth="yes"/>
      <point x="76.9709" y="164"/>
      <point x="68" y="171.517"/>
      <point x="68" y="181.597" type="curve" smooth="yes"/>
      <point x="68" y="191.31"/>
      <point x="76.09" y="199.01"/>
      <point x="86.2933" y="199.01" type="curve"/>
      <point x="285" y="199" type="line"/>
      <point x="299.79" y="199"/>
      <point x="308" y="192.61"/>
      <point x="308" y="181.099" type="curve" smooth="yes"/>
      <point x="308" y="169.937"/>
      <point x="300.014" y="164"/>
      <point x="285" y="164" type="curve" smooth="yes"/>
    </contour>
    <contour>
      <point x="252" y="354" type="curve"/>
      <point x="225.953" y="354"/>
      <point x="199.87" y="355.04"/>
      <point x="187.424" y="355.04" type="curve" smooth="yes"/>
      <point x="144.841" y="355.04"/>
      <point x="123.597" y="342.763"/>
      <point x="123.597" y="318.153" type="curve" smooth="yes"/>
      <point x="123.597" y="297.866"/>
      <point x="134.031" y="279.335"/>
      <point x="145.454" y="279.335" type="curve"/>
      <point x="146.48" y="279.335"/>
      <point x="147.105" y="279.498"/>
      <point x="148" y="280" type="curve"/>
      <point x="229.338" y="280"/>
      <point x="252.029" y="296.146"/>
    </contour>
    <contour>
      <point x="148" y="430" type="line" smooth="yes"/>
      <point x="110.098" y="430"/>
      <point x="137.682" y="391.999"/>
      <point x="108.863" y="391.999" type="curve" smooth="yes"/>
      <point x="98.106" y="391.999"/>
      <point x="93" y="397.765"/>
      <point x="93" y="409.913" type="curve" smooth="yes"/>
      <point x="93" y="437.674"/>
      <point x="116.743" y="461"/>
      <point x="145" y="461" type="curve" smooth="yes"/>
      <point x="230" y="461" type="line" smooth="yes"/>
      <point x="264.913" y="461"/>
      <point x="283" y="439.159"/>
      <point x="283" y="397" type="curve" smooth="yes"/>
      <point x="283" y="258" type="line" smooth="yes"/>
      <point x="283" y="250.581"/>
      <point x="277.19" y="246"/>
      <point x="267.78" y="246" type="curve" smooth="yes"/>
      <point x="244.172" y="246"/>
      <point x="252" y="276.271"/>
      <point x="252" y="292" type="curve"/>
      <point x="240.507" y="260.263"/>
      <point x="222.958" y="249"/>
      <point x="185" y="249" type="curve" smooth="yes"/>
      <point x="148" y="249" type="line" smooth="yes"/>
      <point x="116.202" y="249"/>
      <point x="93" y="278.884"/>
      <point x="93" y="319.839" type="curve" smooth="yes"/>
      <point x="93" y="401.931"/>
      <point x="188.162" y="385"/>
      <point x="252" y="385" type="curve"/>
      <point x="252" y="404" type="line" smooth="yes"/>
      <point x="252" y="422.819"/>
      <point x="245.095" y="430"/>
      <point x="227" y="430" type="curve" smooth="yes"/>
    </contour>
  </outline>
</glyph>
<glyph name="logicalnot" format="1">
  <advance width="515"/>
  <unicode hex="00AC"/>
  <outline>
    <contour>
      <point x="436" y="225" type="curve" smooth="yes"/>
      <point x="436" y="141" type="line" smooth="yes"/>
      <point x="436" y="122.759"/>
      <point x="428.424" y="113"/>
      <point x="414.263" y="113" type="curve" smooth="yes"/>
      <point x="400.37" y="113"/>
      <point x="393" y="122.705"/>
      <point x="393" y="141" type="curve" smooth="yes"/>
      <point x="393" y="209" type="line"/>
      <point x="109" y="209" type="line" smooth="yes"/>
      <point x="91.2074" y="209"/>
      <point x="83" y="215.574"/>
      <point x="83" y="229.824" type="curve" smooth="yes"/>
      <point x="83" y="244.467"/>
      <point x="91.832" y="252"/>
      <point x="109" y="252" type="curve" smooth="yes"/>
      <point x="407" y="252" type="line" smooth="yes"/>
      <point x="426.167" y="252"/>
      <point x="436" y="242.845"/>
    </contour>
  </outline>
</glyph>
<glyph name="uni00AD" format="1">
  <advance width="446"/>
  <unicode hex="00AD"/>
  <outline>
    <contour>
      <point x="97" y="209" type="line" smooth="yes"/>
      <point x="81.1508" y="209"/>
      <point x="73" y="216.152"/>
      <point x="73" y="230.058" type="curve" smooth="yes"/>
      <point x="73" y="244.517"/>
      <point x="81.8672" y="252"/>
      <point x="99" y="252" type="curve" smooth="yes"/>
      <point x="344" y="252" type="line" smooth="yes"/>
      <point x="362.873" y="252"/>
      <point x="373" y="244.414"/>
      <point x="373" y="230.276" type="curve" smooth="yes"/>
      <point x="373" y="216.403"/>
      <point x="362.909" y="209"/>
      <point x="344" y="209" type="curve" smooth="yes"/>
    </contour>
  </outline>
</glyph>
<glyph name="registered" format="1">
  <advance width="604"/>
  <unicode hex="00AE"/>
  <outline>
    <contour>
      <point x="307.993" y="332.539" type="curve" smooth="yes"/>
      <point x="350.435" y="332.539"/>
      <point x="375.235" y="343.405"/>
      <point x="375.235" y="362" type="curve" smooth="yes"/>
      <point x="375.235" y="380.595"/>
      <point x="350.435" y="391.461"/>
      <point x="307.993" y="391.461" type="curve" smooth="yes"/>
      <point x="292.496" y="391.461"/>
      <point x="263.254" y="390"/>
      <point x="234" y="390" type="curve"/>
      <point x="234" y="334" type="line"/>
      <point x="263.254" y="334"/>
      <point x="292.496" y="332.539"/>
    </contour>
    <contour>
      <point x="217.572" y="208" type="curve" smooth="yes"/>
      <point x="208.868" y="208"/>
      <point x="203" y="211.624"/>
      <point x="203" y="217" type="curve" smooth="yes"/>
      <point x="203" y="411" type="line" smooth="yes"/>
      <point x="203" y="417.478"/>
      <point x="207.931" y="421"/>
      <point x="217" y="421" type="curve" smooth="yes"/>
      <point x="301" y="421" type="line" smooth="yes"/>
      <point x="367.504" y="421"/>
      <point x="405" y="399.992"/>
      <point x="405" y="362.731" type="curve" smooth="yes"/>
      <point x="405" y="332.319"/>
      <point x="382.084" y="307.849"/>
      <point x="350" y="304" type="curve"/>
      <point x="369.131" y="292.455"/>
      <point x="408" y="234.907"/>
      <point x="408" y="218.129" type="curve" smooth="yes"/>
      <point x="408" y="212.486"/>
      <point x="403.264" y="207.903"/>
      <point x="397.433" y="207.903" type="curve" smooth="yes"/>
      <point x="392.433" y="207.903"/>
      <point x="372.909" y="212.414"/>
      <point x="377" y="217" type="curve"/>
      <point x="375.035" y="235.825"/>
      <point x="334.569" y="288.554"/>
      <point x="311" y="303" type="curve"/>
      <point x="234" y="303" type="line"/>
      <point x="234" y="217" type="line" smooth="yes"/>
      <point x="234" y="211.821"/>
      <point x="227.026" y="208"/>
    </contour>
    <contour>
      <point x="330.309" y="87" type="curve" smooth="yes"/>
      <point x="138.108" y="87"/>
      <point x="80" y="127.625"/>
      <point x="80" y="262" type="curve" smooth="yes"/>
      <point x="80" y="373" type="line" smooth="yes"/>
      <point x="80" y="499.251"/>
      <point x="133.384" y="548"/>
      <point x="271.639" y="548" type="curve" smooth="yes"/>
      <point x="465.477" y="548"/>
      <point x="524" y="507.417"/>
      <point x="524" y="373" type="curve" smooth="yes"/>
      <point x="524" y="262" type="line" smooth="yes"/>
      <point x="524" y="135.233"/>
      <point x="470.616" y="87"/>
    </contour>
    <contour>
      <point x="314.252" y="129" type="curve" smooth="yes"/>
      <point x="447.784" y="129"/>
      <point x="482" y="156.128"/>
      <point x="482" y="262" type="curve" smooth="yes"/>
      <point x="482" y="373" type="line" smooth="yes"/>
      <point x="482" y="514.7"/>
      <point x="401.941" y="506"/>
      <point x="289.514" y="506" type="curve" smooth="yes"/>
      <point x="155.98" y="506"/>
      <point x="122" y="479.021"/>
      <point x="122" y="373" type="curve" smooth="yes"/>
      <point x="122" y="262" type="line" smooth="yes"/>
      <point x="122" y="119.758"/>
      <point x="202.556" y="129"/>
    </contour>
  </outline>
</glyph>
<glyph name="macron" format="1">
  <advance width="429"/>
  <unicode hex="00AF"/>
  <outline>
    <contour>
      <point x="91" y="678" type="line" smooth="yes"/>
      <point x="73.8672" y="678"/>
      <point x="65" y="685.483"/>
      <point x="65" y="699.942" type="curve" smooth="yes"/>
      <point x="65" y="713.848"/>
      <point x="73.1508" y="721"/>
      <point x="89" y="721" type="curve" smooth="yes"/>
      <point x="336" y="721" type="line" smooth="yes"/>
      <point x="354.873" y="721"/>
      <point x="365" y="713.414"/>
      <point x="365" y="699.276" type="curve" smooth="yes"/>
      <point x="365" y="685.403"/>
      <point x="354.909" y="678"/>
      <point x="336" y="678" type="curve" smooth="yes"/>
    </contour>
  </outline>
</glyph>
<glyph name="degree" format="1">
  <advance width="394"/>
  <unicode hex="00B0"/>
  <outline>
    <contour>
      <point x="197.5" y="637" type="curve" smooth="yes"/>
      <point x="141.091" y="637"/>
      <point x="95" y="590.909"/>
      <point x="95" y="534.5" type="curve" smooth="yes"/>
      <point x="95" y="478.091"/>
      <point x="141.091" y="432"/>
      <point x="197.5" y="432" type="curve" smooth="yes"/>
      <point x="253.909" y="432"/>
      <point x="300" y="478.091"/>
      <point x="300" y="534.5" type="curve" smooth="yes"/>
      <point x="300" y="590.909"/>
      <point x="253.909" y="637"/>
    </contour>
    <contour>
      <point x="54" y="535.023" type="curve" smooth="yes"/>
      <point x="54" y="613.582"/>
      <point x="118.418" y="678"/>
      <point x="196.977" y="678" type="curve" smooth="yes"/>
      <point x="275.863" y="678"/>
      <point x="341" y="613.336"/>
      <point x="341" y="535.022" type="curve" smooth="yes"/>
      <point x="341" y="456.384"/>
      <point x="275.616" y="391"/>
      <point x="196.978" y="391" type="curve" smooth="yes"/>
      <point x="118.664" y="391"/>
      <point x="54" y="456.137"/>
    </contour>
  </outline>
</glyph>
<glyph name="plusminus" format="1">
  <advance width="573"/>
  <unicode hex="00B1"/>
  <outline>
    <contour>
      <point x="474" y="43" type="line" smooth="yes"/>
      <point x="492.873" y="43"/>
      <point x="503" y="35.4139"/>
      <point x="503" y="21.2763" type="curve" smooth="yes"/>
      <point x="503" y="7.40305"/>
      <point x="492.91" y="-0"/>
      <point x="474" y="0" type="curve" smooth="yes"/>
      <point x="96" y="0" type="line" smooth="yes"/>
      <point x="79.0388" y="0"/>
      <point x="70" y="7.56743"/>
      <point x="70" y="21.7677" type="curve" smooth="yes"/>
      <point x="70" y="35.6952"/>
      <point x="78.9451" y="43"/>
      <point x="96" y="43" type="curve" smooth="yes"/>
    </contour>
    <contour>
      <point x="286" y="116" type="curve" smooth="yes"/>
      <point x="273.88" y="116"/>
      <point x="265" y="127.417"/>
      <point x="265" y="143" type="curve" smooth="yes"/>
      <point x="265" y="270" type="line"/>
      <point x="96" y="270" type="line" smooth="yes"/>
      <point x="79.039" y="270"/>
      <point x="70" y="277.568"/>
      <point x="70" y="291.768" type="curve" smooth="yes"/>
      <point x="70" y="305.695"/>
      <point x="78.9453" y="313"/>
      <point x="96" y="313" type="curve" smooth="yes"/>
      <point x="265" y="313" type="line"/>
      <point x="265" y="440" type="line" smooth="yes"/>
      <point x="265" y="456.137"/>
      <point x="273.897" y="468"/>
      <point x="286" y="468" type="curve" smooth="yes"/>
      <point x="298.103" y="468"/>
      <point x="307" y="456.137"/>
      <point x="307" y="440" type="curve" smooth="yes"/>
      <point x="307" y="313" type="line"/>
      <point x="474" y="313" type="line" smooth="yes"/>
      <point x="493.641" y="313"/>
      <point x="503" y="306.294"/>
      <point x="503" y="292.22" type="curve" smooth="yes"/>
      <point x="503" y="277.771"/>
      <point x="492.858" y="270"/>
      <point x="474" y="270" type="curve" smooth="yes"/>
      <point x="307" y="270" type="line"/>
      <point x="307" y="143" type="line" smooth="yes"/>
      <point x="307" y="127.417"/>
      <point x="298.12" y="116"/>
    </contour>
  </outline>
</glyph>
<glyph name="twosuperior" format="1">
  <advance width="310"/>
  <unicode hex="00B2"/>
  <outline>
    <contour>
      <point x="266" y="704.276" type="curve" smooth="yes"/>
      <point x="266" y="598.044"/>
      <point x="78.0755" y="580.208"/>
      <point x="78" y="494" type="curve"/>
      <point x="244" y="494" type="line" smooth="yes"/>
      <point x="255.862" y="494"/>
      <point x="264.942" y="486.846"/>
      <point x="264.942" y="477.5" type="curve" smooth="yes"/>
      <point x="264.941" y="468.154"/>
      <point x="255.862" y="461"/>
      <point x="244" y="461" type="curve" smooth="yes"/>
      <point x="41" y="461" type="line"/>
      <point x="41" y="483" type="line" smooth="yes"/>
      <point x="41" y="607.174"/>
      <point x="233" y="621.24"/>
      <point x="233" y="699.259" type="curve" smooth="yes"/>
      <point x="233" y="724.247"/>
      <point x="214.152" y="734.119"/>
      <point x="166.445" y="734.119" type="curve"/>
      <point x="120" y="734" type="line"/>
      <point x="55.2667" y="734"/>
      <point x="93.1373" y="685.706"/>
      <point x="61.3136" y="685.706" type="curve" smooth="yes"/>
      <point x="48.2609" y="685.706"/>
      <point x="41" y="693.749"/>
      <point x="41" y="708.207" type="curve" smooth="yes"/>
      <point x="41" y="739.177"/>
      <point x="76.4935" y="767"/>
      <point x="116" y="767" type="curve" smooth="yes"/>
      <point x="146" y="767" type="line" smooth="yes"/>
      <point x="233.474" y="767"/>
      <point x="266" y="749.999"/>
    </contour>
  </outline>
</glyph>
<glyph name="threesuperior" format="1">
  <advance width="280"/>
  <unicode hex="00B3"/>
  <outline>
    <contour>
      <point x="47.9975" y="687.975" type="curve" smooth="yes"/>
      <point x="37.1872" y="687.975"/>
      <point x="30" y="696.543"/>
      <point x="30" y="709.431" type="curve" smooth="yes"/>
      <point x="30" y="742.384"/>
      <point x="83.0128" y="767"/>
      <point x="153.978" y="767" type="curve" smooth="yes"/>
      <point x="212.793" y="767"/>
      <point x="243" y="745.274"/>
      <point x="243" y="702.973" type="curve" smooth="yes"/>
      <point x="243" y="663.41"/>
      <point x="212.248" y="626.081"/>
      <point x="173" y="618" type="curve"/>
      <point x="211.785" y="612.331"/>
      <point x="243" y="571.918"/>
      <point x="243" y="527.375" type="curve" smooth="yes"/>
      <point x="243" y="486.514"/>
      <point x="209.731" y="461"/>
      <point x="156.45" y="461" type="curve" smooth="yes"/>
      <point x="85.3188" y="461"/>
      <point x="30" y="486.598"/>
      <point x="30" y="519.512" type="curve" smooth="yes"/>
      <point x="30" y="531.864"/>
      <point x="37.4449" y="540.025"/>
      <point x="48.7121" y="540.025" type="curve" smooth="yes"/>
      <point x="58.9795" y="540.025"/>
      <point x="66" y="533.7"/>
      <point x="66" y="524.449" type="curve" smooth="yes"/>
      <point x="66" y="505.218"/>
      <point x="97.7104" y="494"/>
      <point x="152.07" y="494" type="curve" smooth="yes"/>
      <point x="193.872" y="494"/>
      <point x="211" y="504.574"/>
      <point x="211" y="530.381" type="curve" smooth="yes"/>
      <point x="211" y="564.96"/>
      <point x="166.286" y="601"/>
      <point x="123.383" y="601" type="curve" smooth="yes"/>
      <point x="109.669" y="601"/>
      <point x="101" y="607.39"/>
      <point x="101" y="617.5" type="curve" smooth="yes"/>
      <point x="101" y="627.775"/>
      <point x="109.914" y="634"/>
      <point x="124.628" y="634" type="curve" smooth="yes"/>
      <point x="168.53" y="634"/>
      <point x="211" y="664.328"/>
      <point x="211" y="695.679" type="curve" smooth="yes"/>
      <point x="211" y="723.013"/>
      <point x="189.266" y="734.002"/>
      <point x="135.204" y="734.002" type="curve"/>
      <point x="131" y="734" type="line"/>
      <point x="105.462" y="734"/>
      <point x="88.0437" y="729.634"/>
      <point x="78.8601" y="720.93" type="curve" smooth="yes"/>
      <point x="66.8963" y="709.592"/>
      <point x="64.6888" y="687.975"/>
    </contour>
  </outline>
</glyph>
<glyph name="acute" format="1">
  <advance width="212"/>
  <unicode hex="00B4"/>
  <outline>
    <contour>
      <point x="53.132" y="510.534" type="curve" smooth="yes"/>
      <point x="42.9044" y="510.534"/>
      <point x="34.351" y="520.013"/>
      <point x="34.351" y="531.347" type="curve" smooth="yes"/>
      <point x="34.351" y="537.427"/>
      <point x="37.0993" y="544.129"/>
      <point x="42" y="550" type="curve" smooth="yes"/>
      <point x="138" y="665" type="line" smooth="yes"/>
      <point x="144.567" y="672.867"/>
      <point x="152.635" y="677.466"/>
      <point x="159.868" y="677.466" type="curve" smooth="yes"/>
      <point x="170.096" y="677.466"/>
      <point x="178.649" y="667.987"/>
      <point x="178.649" y="656.653" type="curve" smooth="yes"/>
      <point x="178.649" y="650.573"/>
      <point x="175.901" y="643.871"/>
      <point x="171" y="638" type="curve" smooth="yes"/>
      <point x="75" y="523" type="line" smooth="yes"/>
      <point x="68.433" y="515.133"/>
      <point x="60.3647" y="510.534"/>
    </contour>
  </outline>
</glyph>
<glyph name="uni00B5" format="1">
  <advance width="565"/>
  <unicode hex="00B5"/>
  <outline>
    <contour>
      <point x="470" y="468" type="curve" smooth="yes"/>
      <point x="482.054" y="468"/>
      <point x="491" y="455.22"/>
      <point x="491" y="438" type="curve" smooth="yes"/>
      <point x="491" y="24" type="line" smooth="yes"/>
      <point x="491" y="6.17972"/>
      <point x="482.001" y="-6.99998"/>
      <point x="469.832" y="-6.99998" type="curve" smooth="yes"/>
      <point x="441.059" y="-6.99997"/>
      <point x="448.671" y="54.5484"/>
      <point x="449" y="72" type="curve"/>
      <point x="412.307" y="24.8073"/>
      <point x="355.112" y="-0"/>
      <point x="283" y="-0" type="curve" smooth="yes"/>
      <point x="210.888" y="-0"/>
      <point x="153.693" y="24.8073"/>
      <point x="117" y="72" type="curve"/>
      <point x="117" y="-172" type="line" smooth="yes"/>
      <point x="117" y="-191.617"/>
      <point x="109.087" y="-203"/>
      <point x="95.4499" y="-203" type="curve" smooth="yes"/>
      <point x="82.2778" y="-203"/>
      <point x="75" y="-191.968"/>
      <point x="75" y="-172" type="curve" smooth="yes"/>
      <point x="75" y="438" type="line" smooth="yes"/>
      <point x="75" y="455.22"/>
      <point x="83.946" y="468"/>
      <point x="96" y="468" type="curve" smooth="yes"/>
      <point x="108.054" y="468"/>
      <point x="117" y="455.22"/>
      <point x="117" y="438" type="curve" smooth="yes"/>
      <point x="117" y="228" type="line" smooth="yes"/>
      <point x="117" y="109.048"/>
      <point x="176.672" y="42"/>
      <point x="282.536" y="42" type="curve" smooth="yes"/>
      <point x="388.691" y="42"/>
      <point x="449" y="109.387"/>
      <point x="449" y="228" type="curve" smooth="yes"/>
      <point x="449" y="438" type="line" smooth="yes"/>
      <point x="449" y="455.22"/>
      <point x="457.946" y="468"/>
    </contour>
  </outline>
</glyph>
<glyph name="paragraph" format="1">
  <advance width="447"/>
  <unicode hex="00B6"/>
  <outline>
    <contour>
      <point x="358" y="20" type="line" smooth="yes"/>
      <point x="358" y="4.41704"/>
      <point x="349.12" y="-7"/>
      <point x="337" y="-7" type="curve" smooth="yes"/>
      <point x="324.88" y="-7"/>
      <point x="316" y="4.41704"/>
      <point x="316" y="20" type="curve" smooth="yes"/>
      <point x="316" y="594" type="line"/>
      <point x="285" y="594" type="line"/>
      <point x="285" y="20" type="line" smooth="yes"/>
      <point x="285" y="4.41704"/>
      <point x="276.12" y="-7"/>
      <point x="264" y="-7" type="curve" smooth="yes"/>
      <point x="251.88" y="-7"/>
      <point x="243" y="4.41704"/>
      <point x="243" y="20" type="curve" smooth="yes"/>
      <point x="243" y="337" type="line"/>
      <point x="91.3864" y="337"/>
      <point x="36" y="375.355"/>
      <point x="36" y="480.347" type="curve" smooth="yes"/>
      <point x="36" y="588.438"/>
      <point x="99.2514" y="636"/>
      <point x="243" y="636" type="curve" smooth="yes"/>
      <point x="358" y="636" type="line"/>
    </contour>
  </outline>
</glyph>
<glyph name="periodcentered" format="1">
  <advance width="232"/>
  <unicode hex="00B7"/>
  <outline>
    <contour>
      <point x="69.7737" y="386.703" type="curve" smooth="yes"/>
      <point x="69.7737" y="404.178"/>
      <point x="94.6501" y="423.446"/>
      <point x="117.212" y="423.446" type="curve" smooth="yes"/>
      <point x="138.802" y="423.446"/>
      <point x="162.226" y="404.635"/>
      <point x="162.226" y="387.297" type="curve" smooth="yes"/>
      <point x="162.226" y="369.822"/>
      <point x="137.35" y="350.554"/>
      <point x="114.788" y="350.554" type="curve" smooth="yes"/>
      <point x="93.198" y="350.554"/>
      <point x="69.7737" y="369.365"/>
    </contour>
  </outline>
</glyph>
<glyph name="cedilla" format="1">
  <advance width="242"/>
  <unicode hex="00B8"/>
  <outline>
    <contour>
      <point x="42" y="-120.423" type="curve" smooth="yes"/>
      <point x="42" y="-111.995"/>
      <point x="44.9237" y="-107"/>
      <point x="49.8573" y="-107" type="curve" smooth="yes"/>
      <point x="59.4779" y="-107"/>
      <point x="95.6335" y="-125"/>
      <point x="124.47" y="-125" type="curve" smooth="yes"/>
      <point x="148.761" y="-125"/>
      <point x="165" y="-113.576"/>
      <point x="165" y="-96.4875" type="curve" smooth="yes"/>
      <point x="165" y="-57.5437"/>
      <point x="96.0403" y="-52.549"/>
      <point x="96" y="15" type="curve"/>
      <point x="138" y="15" type="line"/>
      <point x="137.955" y="-40.8012"/>
      <point x="207.038" y="-30.353"/>
      <point x="207.038" y="-89.7081" type="curve" smooth="yes"/>
      <point x="207.038" y="-132.003"/>
      <point x="167.419" y="-165.072"/>
      <point x="116.747" y="-165.072" type="curve" smooth="yes"/>
      <point x="75.0132" y="-165.072"/>
      <point x="42" y="-145.352"/>
    </contour>
  </outline>
</glyph>
<glyph name="onesuperior" format="1">
  <advance width="138"/>
  <unicode hex="00B9"/>
  <outline>
    <contour>
      <point x="52" y="715" type="line"/>
      <point x="40.5828" y="703.438"/>
      <point x="22.5501" y="678"/>
      <point x="4.0523" y="678" type="curve" smooth="yes"/>
      <point x="-3.77949" y="678"/>
      <point x="-10" y="682.617"/>
      <point x="-10" y="688.43" type="curve" smooth="yes"/>
      <point x="-10" y="707.342"/>
      <point x="53.7292" y="770"/>
      <point x="72.9642" y="770" type="curve" smooth="yes"/>
      <point x="80.3022" y="770"/>
      <point x="86" y="761.695"/>
      <point x="86" y="751" type="curve" smooth="yes"/>
      <point x="86" y="480" type="line" smooth="yes"/>
      <point x="86" y="467.418"/>
      <point x="78.7227" y="458"/>
      <point x="69" y="458" type="curve" smooth="yes"/>
      <point x="59.2773" y="458"/>
      <point x="52" y="467.418"/>
      <point x="52" y="480" type="curve" smooth="yes"/>
    </contour>
  </outline>
</glyph>
